{"glyphs":{"0":{"ha":972,"x_min":43,"x_max":928,"o":"m 43 514 q 81 725 43 626 q 184 897 119 824 q 334 1012 249 969 q 514 1054 419 1054 q 676 1011 600 1054 q 808 897 751 968 q 896 733 864 825 q 928 540 928 640 q 894 335 928 433 q 800 163 860 238 q 660 44 740 89 q 486 0 579 0 q 320 41 400 0 q 178 152 240 82 q 80 315 117 222 q 43 514 43 408 m 210 528 q 231 408 210 467 q 288 305 251 350 q 376 233 325 260 q 486 206 426 206 q 597 235 546 206 q 683 314 647 264 q 738 428 718 364 q 758 564 758 493 q 738 697 758 642 q 669 799 718 751 q 681 729 676 769 q 686 629 686 689 q 624 705 657 668 q 557 771 590 742 q 491 817 524 800 q 432 835 458 835 q 394 827 413 835 q 360 811 376 819 q 354 808 357 810 q 347 806 351 807 q 308 824 317 806 q 276 769 293 801 q 244 699 260 738 q 219 617 229 660 q 210 528 210 574 z "},"1":{"ha":972,"x_min":167,"x_max":876,"o":"m 836 -6 q 780 1 804 0 q 733 3 756 3 q 661 0 697 3 q 589 -6 625 -3 q 439 -14 515 -14 q 353 -9 393 -14 q 268 11 314 -4 q 211 55 228 25 q 194 117 194 85 q 236 194 194 164 q 263 179 250 185 q 294 171 276 174 q 340 167 313 168 q 410 167 367 167 l 440 167 q 433 437 438 303 q 424 707 429 571 l 303 664 q 259 674 278 664 q 226 699 240 685 q 199 729 211 714 q 175 756 186 744 q 168 769 169 763 q 167 786 167 776 q 169 801 167 793 q 183 824 171 810 q 239 851 204 833 q 307 892 274 868 q 365 946 340 917 q 394 1008 390 975 q 428 1047 407 1036 q 472 1058 449 1058 q 509 1054 486 1058 q 555 1042 532 1050 q 597 1022 578 1033 q 619 997 615 1011 q 625 656 621 828 q 633 313 629 483 q 635 249 635 282 q 636 183 636 217 q 722 190 676 186 q 819 193 767 193 q 840 191 831 193 q 861 182 850 189 q 873 147 869 167 q 876 108 876 128 q 867 40 876 75 q 836 -6 857 6 z "},"2":{"ha":972,"x_min":35,"x_max":938,"o":"m 500 542 q 542 590 517 560 q 593 655 568 619 q 635 727 618 690 q 653 793 653 764 q 642 828 653 811 q 617 858 632 844 q 583 878 601 871 q 551 886 565 886 q 459 878 494 886 q 399 855 424 869 q 360 820 375 840 q 329 778 344 800 q 328 768 329 775 q 325 753 326 761 q 324 746 324 750 q 315 718 319 732 q 301 694 310 704 q 277 676 292 683 q 240 669 263 669 q 201 683 217 671 q 178 711 186 694 q 166 747 169 728 q 163 783 163 765 q 165 826 163 815 l 165 825 q 205 935 172 890 q 286 1006 238 979 q 392 1045 335 1033 q 507 1057 450 1057 q 561 1053 540 1057 q 658 1024 610 1046 q 745 965 707 1001 q 808 878 783 929 q 832 763 832 828 q 791 621 832 692 q 691 481 750 550 q 567 347 632 413 q 451 218 501 281 q 517 192 476 203 q 628 181 557 181 q 773 202 704 181 q 874 271 842 224 q 906 254 893 267 q 925 225 918 242 q 935 189 932 208 q 938 151 938 169 q 877 90 913 118 q 801 40 842 61 q 718 8 761 19 q 635 -3 675 -3 q 548 3 589 -3 q 467 15 507 8 q 385 28 426 22 q 300 33 344 33 q 253 23 275 33 q 210 1 232 13 q 165 -22 189 -11 q 111 -32 140 -32 q 57 -7 79 -32 q 35 51 35 18 l 500 542 z "},"3":{"ha":972,"x_min":119,"x_max":853,"o":"m 311 865 q 292 858 297 860 q 310 838 297 850 q 338 813 322 826 q 369 785 353 799 q 399 763 386 772 q 371 764 383 764 q 350 764 360 764 q 316 763 328 764 q 296 760 304 761 q 279 757 288 758 q 257 756 271 756 q 178 789 201 756 q 154 871 154 822 q 178 972 154 924 q 247 1035 203 1019 q 329 1058 292 1050 q 418 1065 367 1065 q 569 1051 496 1065 q 701 1003 643 1038 q 794 910 758 969 q 832 761 829 851 q 826 712 832 739 q 809 656 819 685 q 783 600 799 628 q 747 551 768 572 q 797 513 776 533 q 829 466 817 493 q 847 401 842 439 q 853 311 853 364 q 817 155 853 215 q 724 60 781 94 q 599 13 668 25 q 464 0 529 0 q 315 27 379 0 q 207 93 250 54 q 142 176 164 132 q 119 254 119 219 q 127 332 119 307 q 169 357 135 357 q 205 347 183 357 q 246 307 226 338 q 340 215 283 249 q 472 181 396 181 q 528 188 496 181 q 588 211 560 194 q 637 254 617 228 q 657 319 657 281 q 654 355 657 340 q 643 382 651 369 q 620 406 635 394 q 582 429 606 417 q 496 410 542 415 q 407 404 450 404 q 325 413 363 404 q 259 438 288 422 q 215 476 231 454 q 199 522 199 497 q 231 591 199 565 q 303 630 263 617 q 380 647 343 643 q 426 651 417 651 q 572 632 497 651 q 601 652 589 636 q 622 688 614 668 q 635 728 631 707 q 639 763 639 749 q 619 823 639 800 q 566 859 599 846 q 494 877 533 872 q 415 882 454 882 q 362 878 390 882 q 311 865 333 874 z "},"4":{"ha":972,"x_min":90,"x_max":826,"o":"m 665 -57 q 624 -53 646 -57 q 582 -40 601 -49 q 547 -20 563 -32 q 528 7 532 -8 q 522 48 525 21 q 515 110 518 75 q 510 187 513 146 q 508 269 508 228 l 508 311 q 406 319 463 313 q 293 342 349 326 q 188 385 238 358 q 107 450 139 411 q 94 512 97 482 q 90 574 90 542 q 101 684 90 626 q 131 799 113 742 q 175 910 150 856 q 229 1011 200 965 q 255 1043 244 1035 q 288 1051 265 1051 q 331 1033 315 1051 q 347 985 347 1014 q 337 926 347 957 q 319 876 326 894 q 281 747 296 815 q 267 615 267 678 q 276 526 267 564 q 324 504 293 514 q 390 488 356 494 q 458 477 425 481 q 507 472 490 474 q 508 490 507 478 q 508 550 508 503 q 509 647 508 592 q 513 760 510 701 q 526 874 517 818 q 550 974 535 931 q 589 1045 565 1018 q 647 1072 613 1072 q 737 1036 701 1072 q 792 942 772 1000 q 819 813 811 885 q 826 671 826 742 q 823 553 826 604 q 807 463 819 503 q 769 394 794 424 q 701 342 744 364 q 703 287 701 321 q 708 213 704 253 q 717 133 711 174 q 735 57 724 92 q 740 44 738 50 q 742 32 742 39 q 728 -17 742 10 q 683 -57 715 -44 l 665 -57 m 713 632 q 710 778 713 704 q 693 911 708 851 q 685 847 689 885 q 678 765 681 808 q 674 678 675 722 q 672 599 672 635 q 673 553 672 574 q 675 522 674 533 q 692 542 685 528 q 704 574 700 557 q 710 607 708 590 q 713 632 713 624 z "},"5":{"ha":972,"x_min":75,"x_max":896,"o":"m 772 1063 q 794 1061 783 1063 q 817 1049 806 1060 l 815 1049 q 858 990 843 1029 q 875 910 872 951 q 849 889 864 899 q 818 876 833 879 q 781 874 806 875 q 727 872 757 874 q 665 870 697 871 q 601 869 632 869 q 559 869 581 869 q 508 867 538 868 q 435 865 478 865 q 329 863 393 864 q 316 800 319 839 q 313 725 313 761 l 313 706 q 381 713 342 710 q 469 715 421 715 q 618 701 542 715 q 756 649 694 688 q 856 541 817 611 q 896 358 896 471 q 876 241 896 293 q 822 149 856 189 q 747 82 789 110 q 663 37 706 54 q 578 11 619 19 q 506 3 536 3 q 426 10 471 3 q 333 34 381 18 q 238 74 285 50 q 156 131 192 99 q 97 202 119 163 q 75 289 75 242 q 121 410 75 369 q 235 451 167 451 q 305 450 265 451 q 388 441 344 449 q 475 418 432 433 q 556 374 518 403 q 550 333 556 353 q 534 297 544 313 q 509 271 524 281 q 478 261 494 261 q 448 265 463 261 q 422 282 433 268 q 369 313 404 303 q 301 324 333 324 q 254 316 274 324 q 235 293 235 308 q 263 240 235 261 q 327 204 290 218 q 401 184 364 190 q 456 178 438 178 q 587 201 538 178 q 663 258 636 225 q 699 328 690 292 q 708 390 708 365 q 683 467 708 438 q 617 513 658 497 q 522 533 575 528 q 414 539 469 539 q 359 538 385 539 q 306 535 333 536 q 296 533 301 535 q 289 531 290 532 q 256 513 272 518 q 228 507 240 507 l 206 504 q 177 510 192 504 q 136 535 163 515 l 136 565 q 128 639 131 603 q 125 711 125 675 q 130 795 125 751 q 147 885 135 839 q 103 937 121 904 q 75 1001 85 969 l 114 1032 l 168 1043 q 307 1046 226 1044 q 470 1049 388 1047 q 629 1054 553 1051 q 757 1063 706 1057 l 772 1063 z "},"6":{"ha":972,"x_min":85,"x_max":886,"o":"m 886 538 q 869 426 886 483 q 819 313 851 369 q 740 203 786 257 q 635 101 693 149 q 640 88 638 94 q 644 72 643 81 l 646 58 q 637 12 646 35 q 613 -30 628 -11 q 577 -60 597 -49 q 536 -71 557 -71 q 492 -56 514 -71 q 456 -8 469 -42 q 411 -17 435 -15 q 364 -18 388 -18 q 236 10 289 -18 q 149 85 183 38 q 100 194 115 132 q 85 325 85 257 q 109 531 85 428 q 180 728 133 633 q 293 903 226 822 q 444 1046 360 985 q 490 1071 464 1061 q 535 1081 515 1081 q 579 1068 563 1081 q 596 1024 596 1056 q 576 966 596 996 q 529 906 556 936 q 476 849 503 876 q 436 803 449 822 q 322 567 365 697 q 279 301 279 436 q 285 246 279 276 q 301 189 290 215 q 330 145 313 163 q 372 128 347 128 q 410 139 388 128 q 402 185 406 156 q 396 247 399 215 q 391 306 393 278 q 389 350 389 335 q 407 488 389 414 q 462 624 425 561 q 556 729 499 688 q 690 771 613 771 q 777 749 740 771 q 838 694 814 728 q 874 619 863 661 q 886 538 886 578 m 592 386 q 593 352 592 369 q 597 318 594 335 q 671 420 640 364 q 701 533 701 476 q 690 604 701 583 q 669 628 678 625 q 613 518 635 579 q 592 386 592 457 z "},"7":{"ha":972,"x_min":89,"x_max":882,"o":"m 576 811 q 392 833 485 822 q 207 858 299 843 q 188 824 199 839 q 154 808 176 808 q 128 831 140 808 q 108 882 117 854 q 94 935 99 910 q 89 965 89 961 q 99 999 89 982 q 126 1029 110 1015 q 163 1051 143 1043 q 203 1060 183 1060 l 214 1060 q 317 1045 267 1057 q 419 1019 368 1033 q 519 997 469 1007 q 622 983 569 988 q 647 983 638 982 q 669 981 657 983 q 688 1008 678 994 q 710 1030 697 1021 q 744 1044 724 1039 q 793 1050 764 1050 q 856 1022 829 1050 q 882 958 882 994 q 876 906 882 932 q 844 858 869 879 q 810 840 826 847 q 782 828 794 833 q 625 499 681 678 q 553 142 569 321 q 540 97 550 121 q 514 53 529 74 q 479 19 499 33 q 439 6 460 6 q 369 28 399 6 q 339 99 339 50 q 358 274 339 183 q 411 457 378 365 q 488 638 444 549 q 576 811 531 728 z "},"8":{"ha":972,"x_min":104,"x_max":867,"o":"m 104 314 q 122 389 104 354 q 169 453 139 424 q 238 509 199 483 q 322 558 278 535 q 190 656 239 601 q 140 779 140 711 q 169 898 140 844 q 245 989 197 951 q 356 1047 293 1026 q 488 1068 418 1068 q 631 1047 563 1068 q 751 989 700 1026 q 833 901 803 951 q 864 793 864 851 q 849 719 864 753 q 808 658 833 686 q 746 608 782 631 q 668 567 710 586 q 746 528 710 550 q 809 477 782 507 q 851 406 836 447 q 867 306 867 364 q 840 183 867 238 q 764 92 813 129 q 648 34 715 54 q 499 14 581 14 q 338 35 410 14 q 213 97 265 57 q 133 192 161 136 q 104 314 104 247 m 674 297 q 654 359 674 331 q 606 411 635 388 q 542 453 576 435 q 478 486 508 471 q 403 449 438 468 q 343 410 369 431 q 302 365 317 389 q 288 313 288 340 q 301 271 288 292 q 341 234 314 250 q 411 208 368 218 q 513 197 454 197 q 558 203 531 197 q 612 221 586 208 q 656 252 638 233 q 674 297 674 271 m 375 869 q 347 874 356 869 q 323 819 328 850 q 318 776 318 789 q 332 747 318 764 q 369 713 346 731 q 423 675 392 694 q 488 638 454 656 q 562 678 526 658 q 624 718 597 699 q 666 756 650 738 q 682 794 682 775 q 666 842 682 815 q 622 888 650 868 q 628 854 628 875 l 628 769 q 578 811 606 789 q 524 852 551 833 q 473 883 497 871 q 431 896 449 896 q 417 887 426 896 q 406 876 408 878 q 375 869 394 869 z "},"9":{"ha":972,"x_min":128,"x_max":822,"o":"m 358 -7 q 338 13 340 1 q 335 39 335 24 q 340 64 335 49 q 352 97 344 79 q 369 130 360 114 q 388 157 378 146 q 497 308 447 226 q 578 482 546 389 q 488 419 538 444 q 375 393 439 393 q 266 420 313 393 q 189 490 219 447 q 143 588 158 533 q 128 697 128 643 q 165 856 128 785 q 260 978 203 928 q 385 1057 317 1029 q 515 1085 453 1085 q 648 1057 590 1085 q 744 982 706 1029 q 802 873 782 935 q 822 744 822 811 q 798 540 822 642 q 728 344 774 438 q 615 168 682 250 q 465 25 549 86 q 420 0 446 10 q 372 -10 394 -10 l 358 -7 m 628 768 q 617 835 628 806 q 588 884 606 864 q 549 915 571 904 q 507 925 528 925 q 352 869 407 925 q 297 692 297 814 q 303 645 297 669 q 319 600 308 621 q 347 566 331 579 q 385 553 364 553 q 459 561 431 553 q 506 587 488 569 q 538 630 525 604 q 564 690 550 656 q 579 712 567 699 q 628 736 592 725 l 628 768 z "}," ":{"ha":694,"x_min":0,"x_max":0,"o":""},"#":{"ha":738,"x_min":42,"x_max":746,"o":"m 100 335 q 67 373 78 351 q 57 417 57 394 q 66 453 57 436 q 90 481 75 471 q 113 488 100 486 q 136 490 125 490 l 215 486 l 215 567 q 114 588 167 574 q 58 622 74 599 q 42 669 42 644 q 67 720 42 697 q 133 751 93 743 q 137 731 135 735 q 142 728 139 728 q 219 711 181 717 q 219 763 219 736 q 217 817 219 789 q 228 834 218 826 q 249 847 238 842 q 272 856 260 853 q 293 858 285 858 l 315 860 q 349 852 336 860 q 363 821 363 844 q 365 782 364 801 q 365 743 365 763 l 365 707 q 396 707 381 707 q 428 710 413 707 l 432 711 l 432 822 q 465 849 439 839 q 517 860 490 860 q 559 850 540 860 q 585 819 578 840 l 585 722 q 624 725 604 725 q 664 726 644 725 q 689 728 671 728 q 732 715 715 728 q 746 664 746 692 q 735 610 746 638 q 700 571 724 582 q 645 578 669 576 q 599 579 621 579 l 582 578 l 582 482 q 615 485 599 483 q 650 489 631 486 l 649 489 q 663 490 656 490 q 679 490 671 490 q 722 481 704 490 q 743 446 740 472 q 739 428 740 439 q 735 408 738 417 l 733 401 q 719 353 728 374 q 682 332 711 332 l 647 332 q 613 330 628 331 q 586 329 599 329 q 594 226 588 282 l 628 226 q 594 160 608 182 q 544 139 579 139 q 478 161 508 139 q 443 214 447 183 q 437 241 439 226 q 432 269 435 256 l 432 326 l 358 326 q 375 228 363 279 q 377 215 376 219 q 378 201 378 210 q 362 158 378 171 q 322 144 346 144 q 288 151 306 144 q 258 164 269 157 q 228 208 235 175 q 220 267 222 238 q 215 326 218 296 q 199 327 207 326 q 181 329 190 328 l 114 329 l 100 335 m 432 483 l 432 569 l 360 565 q 356 522 357 543 q 354 478 354 500 l 431 478 l 432 483 z "},"$":{"ha":1018,"x_min":69,"x_max":947,"o":"m 465 1101 q 553 1058 524 1099 q 589 942 582 1017 q 763 925 682 940 q 906 894 843 910 q 926 885 919 892 q 933 854 933 878 q 915 815 932 829 q 878 792 899 800 q 835 784 863 789 q 793 776 808 779 q 719 770 774 774 q 594 761 664 767 q 597 694 596 728 q 597 625 597 660 q 741 601 676 615 q 851 557 806 586 q 922 478 897 528 q 947 351 947 429 q 913 221 947 274 q 826 133 878 168 q 714 78 774 97 q 606 51 654 60 l 606 18 q 602 -22 606 -1 q 590 -60 599 -43 q 567 -87 582 -76 q 531 -97 553 -97 q 497 -92 517 -97 q 463 -79 478 -86 q 447 -61 454 -75 q 435 -28 440 -47 q 426 12 431 -10 q 419 53 422 33 q 298 92 354 65 q 200 154 242 119 q 135 226 158 189 q 111 300 111 264 q 133 383 111 350 q 190 434 156 415 q 265 460 224 453 q 343 468 306 468 q 415 464 375 468 l 424 463 q 424 488 424 475 q 425 513 424 500 q 413 514 418 514 q 403 514 407 514 q 226 525 292 517 q 126 551 161 533 q 80 597 90 568 q 69 668 69 625 q 107 778 69 732 q 201 853 144 824 q 322 901 257 883 q 444 928 388 919 q 449 1000 447 964 q 453 1076 450 1036 q 465 1101 454 1101 m 678 374 q 674 357 678 361 q 646 336 664 347 q 604 317 628 325 l 604 247 q 672 268 640 256 q 728 297 704 281 q 767 333 753 313 q 781 376 781 353 q 765 413 781 396 q 725 443 750 429 q 667 468 700 457 q 600 488 635 479 q 601 451 601 469 q 601 417 601 435 q 674 383 636 403 q 678 374 678 379 m 306 257 q 419 233 349 238 l 419 338 q 364 351 392 344 q 313 357 336 357 q 265 345 283 357 q 246 303 246 333 q 262 281 246 293 q 306 257 278 268 m 246 683 q 263 668 246 675 q 305 656 279 661 q 363 648 331 651 q 429 642 396 644 l 435 746 q 361 735 396 742 q 301 722 326 729 q 260 704 275 714 q 246 683 246 694 z "},"%":{"ha":997,"x_min":57,"x_max":947,"o":"m 310 944 q 387 915 346 944 q 457 836 428 885 q 601 876 528 844 q 728 956 674 907 q 764 969 744 969 q 794 960 778 969 q 826 938 811 951 q 851 908 840 924 q 861 878 861 892 q 860 861 861 867 q 851 849 858 856 q 771 746 811 799 q 686 635 731 693 q 592 511 642 576 q 486 369 543 446 q 378 225 433 299 q 267 83 322 151 q 245 67 258 74 q 218 61 232 61 q 187 69 203 61 q 157 90 171 78 q 134 118 143 103 q 125 147 125 133 q 142 188 125 171 q 355 431 258 300 q 546 699 451 561 l 544 697 q 551 708 547 703 q 558 718 556 713 q 563 727 561 722 q 569 736 565 732 q 531 728 550 732 q 492 722 511 725 l 492 708 q 474 625 492 663 q 426 560 456 588 q 360 518 397 533 q 285 503 324 503 q 117 560 176 503 q 57 708 57 618 q 60 755 57 733 q 73 797 64 776 q 97 840 82 818 q 136 890 113 863 q 189 921 154 911 q 263 936 224 931 l 310 944 m 511 285 q 517 345 511 311 q 543 411 524 379 q 599 468 563 443 q 693 503 635 493 q 729 513 710 510 q 763 515 749 515 q 837 494 803 515 q 895 439 871 472 q 933 365 919 406 q 947 285 947 324 q 928 201 947 239 q 877 135 908 163 q 807 92 846 107 q 729 76 768 76 q 565 135 619 76 q 511 285 511 194 m 642 293 q 663 233 642 257 q 724 210 685 210 q 756 217 739 210 q 786 236 772 224 q 809 265 800 249 q 818 299 818 281 q 801 362 818 336 q 763 388 783 388 l 753 386 l 642 293 m 224 794 q 199 759 210 779 q 189 707 189 739 q 216 650 189 669 q 283 631 243 631 q 336 653 313 631 q 360 711 360 676 q 358 726 360 721 q 320 736 339 729 q 282 750 301 743 l 286 774 l 224 794 z "},"'":{"ha":342,"x_min":47,"x_max":314,"o":"m 125 1142 q 210 1121 175 1142 q 269 1071 246 1100 q 303 1009 292 1042 q 314 953 314 976 q 298 886 314 917 q 258 831 282 856 q 204 789 233 807 q 149 759 175 771 q 104 742 124 747 q 81 736 85 736 q 60 745 68 736 q 53 767 53 754 q 64 804 53 789 q 88 832 75 819 q 111 855 100 844 q 122 878 122 865 q 110 915 122 904 q 85 940 99 926 q 59 976 71 953 q 47 1053 47 1000 q 49 1076 47 1061 q 60 1105 51 1090 q 83 1131 68 1119 q 125 1142 99 1142 z "},"(":{"ha":418,"x_min":24,"x_max":388,"o":"m 376 -119 l 297 -185 l 235 -154 q 133 10 174 -86 q 69 203 93 106 q 34 391 44 301 q 24 538 24 481 q 35 705 24 629 q 71 856 46 781 q 138 1018 96 932 q 243 1219 181 1104 l 288 1226 q 346 1153 339 1201 q 235 878 271 1022 q 199 574 199 733 q 208 430 199 511 q 239 267 218 349 q 291 115 260 186 q 365 4 322 44 l 379 -11 l 388 -25 l 376 -119 z "},")":{"ha":425,"x_min":18,"x_max":406,"o":"m 97 -175 l 42 -93 l 53 -28 q 119 51 90 3 q 170 159 149 100 q 206 284 192 218 q 230 414 221 350 q 242 536 239 478 q 246 639 246 594 q 240 766 246 703 q 216 885 233 829 q 168 989 199 942 q 88 1068 138 1036 l 18 1113 l 54 1193 q 185 1145 129 1181 q 280 1061 240 1110 q 344 955 319 1013 q 382 840 368 897 q 401 731 396 783 q 406 642 406 679 q 401 436 406 546 q 378 217 397 326 q 318 6 358 107 q 206 -176 278 -96 l 174 -179 l 97 -175 z "},"*":{"ha":446,"x_min":-15,"x_max":454,"o":"m 301 676 l 432 567 l 436 531 l 410 490 q 393 484 399 485 q 382 483 388 483 q 372 484 378 483 q 357 489 365 485 l 349 497 q 335 509 342 503 q 320 524 329 515 q 297 544 311 532 q 261 574 283 556 l 256 463 q 218 431 249 431 q 172 438 183 431 q 157 465 160 444 l 153 561 q 126 535 138 547 q 100 507 114 524 q 77 489 92 494 q 47 483 63 483 q -2 524 8 507 q -12 561 -12 542 q -1 604 -12 588 q 35 637 13 618 q 97 683 58 656 q 59 706 82 690 q -1 744 36 721 q -14 761 -12 756 q -15 772 -15 767 q -6 799 -15 783 q 33 847 4 815 q 53 860 46 857 q 68 863 60 863 q 93 853 78 863 q 149 811 108 843 q 152 838 149 821 q 167 894 156 854 l 257 926 l 276 921 q 298 904 289 914 q 307 871 307 894 q 307 863 307 868 q 304 849 307 857 l 301 836 q 296 819 299 828 q 290 799 293 810 q 318 810 303 804 q 357 826 333 817 l 403 847 l 447 818 l 454 768 l 301 676 z "},"+":{"ha":667,"x_min":50,"x_max":594,"o":"m 406 594 q 463 600 433 599 q 525 606 493 601 q 543 607 532 607 q 565 603 553 607 q 588 588 576 599 q 594 538 594 569 q 585 478 594 510 q 556 436 575 447 q 476 446 507 446 q 452 444 467 446 q 396 440 438 443 q 400 374 396 408 q 418 303 404 340 q 421 292 421 297 q 421 285 421 288 q 403 246 421 257 q 361 235 386 235 q 325 240 343 235 q 296 249 307 244 q 260 286 268 257 q 248 358 251 322 q 244 429 244 393 q 107 457 176 429 q 63 493 76 468 q 50 543 50 518 q 74 597 50 571 q 136 635 97 624 l 136 604 q 188 590 154 596 q 250 582 222 583 l 250 646 q 249 663 250 654 q 247 681 249 671 l 247 729 q 283 756 254 747 q 331 765 311 765 l 350 765 q 388 759 371 765 q 407 729 406 753 q 408 703 408 717 q 408 676 408 690 q 408 635 408 656 q 406 594 407 614 z "},",":{"ha":400,"x_min":31,"x_max":369,"o":"m 56 -128 q 117 -117 86 -128 q 172 -88 147 -107 q 210 -42 196 -69 q 225 17 225 -15 q 216 49 225 38 q 194 64 207 60 q 172 53 179 64 q 119 31 150 31 q 88 38 104 31 q 60 55 72 44 q 39 79 47 65 q 31 108 31 93 q 35 167 31 138 q 57 222 40 197 q 105 263 74 247 q 189 278 136 278 q 278 248 243 278 q 333 178 313 218 q 362 99 354 139 q 369 39 369 58 q 354 -51 369 -8 q 311 -128 339 -94 q 244 -181 283 -161 q 156 -200 204 -200 q 88 -184 118 -200 q 42 -128 57 -168 l 56 -128 z "},"-":{"ha":467,"x_min":21,"x_max":438,"o":"m 281 558 q 334 567 306 564 q 392 571 363 571 q 413 566 403 571 q 431 550 424 561 q 438 501 438 532 q 429 445 438 475 q 403 400 421 415 q 344 410 368 410 q 310 407 332 410 q 263 401 288 404 q 212 394 238 397 q 167 392 186 392 q 116 400 142 392 q 64 422 90 408 q 31 458 40 433 q 21 507 21 483 q 42 561 21 535 q 99 603 63 588 l 99 569 q 146 551 124 556 q 192 547 168 547 q 235 551 213 547 q 281 558 257 554 z "},"­":{"ha":467,"x_min":21,"x_max":438,"o":"m 281 558 q 334 567 306 564 q 392 571 363 571 q 413 566 403 571 q 431 550 424 561 q 438 501 438 532 q 429 445 438 475 q 403 400 421 415 q 344 410 368 410 q 310 407 332 410 q 263 401 288 404 q 212 394 238 397 q 167 392 186 392 q 116 400 142 392 q 64 422 90 408 q 31 458 40 433 q 21 507 21 483 q 42 561 21 535 q 99 603 63 588 l 99 569 q 146 551 124 556 q 192 547 168 547 q 235 551 213 547 q 281 558 257 554 z "},".":{"ha":358,"x_min":42,"x_max":317,"o":"m 182 240 q 233 229 208 240 q 276 199 258 218 q 306 156 294 181 q 317 103 317 131 q 306 52 317 76 q 276 9 294 28 q 235 -21 258 -10 q 186 -32 211 -32 q 132 -23 158 -32 q 85 3 106 -14 q 53 42 65 19 q 42 93 42 65 q 81 199 42 157 q 182 240 119 240 z "},"/":{"ha":554,"x_min":-68,"x_max":622,"o":"m 522 793 q 459 681 494 747 q 384 539 424 615 q 303 380 344 463 q 225 216 263 297 q 157 59 188 135 q 107 -78 126 -17 q 91 -101 103 -89 q 60 -112 79 -112 q 24 -103 43 -112 q -13 -78 4 -93 q -44 -44 -31 -62 q -64 -11 -58 -26 q -68 8 -68 1 q -67 19 -68 15 q 26 202 -18 117 q 107 361 69 288 q 204 546 160 463 q 288 708 249 629 q 361 868 326 788 q 431 1044 396 949 q 448 1068 438 1063 q 474 1074 458 1074 q 514 1067 492 1074 q 556 1049 536 1060 q 592 1025 576 1038 q 614 1000 607 1013 q 622 974 622 985 q 618 957 622 965 l 522 793 z "},":":{"ha":450,"x_min":69,"x_max":381,"o":"m 339 114 q 231 61 294 61 q 169 72 199 61 q 118 101 140 82 q 83 147 96 119 q 69 206 69 174 q 81 270 69 240 q 114 322 93 300 q 164 357 135 344 q 228 369 193 369 q 333 325 289 369 q 381 217 381 278 q 339 114 381 156 m 339 578 q 231 531 300 531 q 169 540 199 531 q 118 569 140 550 q 83 614 96 588 q 69 672 69 640 q 81 737 69 707 q 114 789 93 767 q 164 824 135 811 q 228 836 193 836 q 337 793 293 836 q 381 681 381 750 q 339 578 381 619 z "},";":{"ha":431,"x_min":61,"x_max":400,"o":"m 86 -244 q 147 -234 117 -244 q 202 -205 178 -224 q 241 -159 226 -186 q 256 -100 256 -132 q 247 -68 256 -79 q 225 -53 238 -57 q 203 -64 210 -53 q 150 -86 181 -86 q 119 -79 135 -86 q 90 -62 103 -72 q 69 -37 78 -51 q 61 -8 61 -24 q 66 51 61 21 q 88 106 71 81 q 135 146 104 131 q 219 161 167 161 q 308 131 274 161 q 364 62 343 101 q 392 -18 385 22 q 400 -78 400 -58 q 385 -168 400 -125 q 342 -244 369 -211 q 274 -297 314 -278 q 186 -317 235 -317 q 118 -301 149 -317 q 72 -244 88 -285 l 86 -244 m 228 858 q 285 846 258 858 q 333 813 313 833 q 366 764 354 792 q 378 706 378 736 q 366 649 378 676 q 333 600 354 621 q 286 566 313 579 q 231 553 260 553 q 169 564 199 553 q 118 594 140 575 q 83 638 96 613 q 69 694 69 664 q 113 812 69 765 q 228 858 157 858 z "},"?":{"ha":703,"x_min":25,"x_max":674,"o":"m 244 774 q 168 754 201 754 q 110 767 136 754 q 65 801 83 781 q 35 846 46 822 q 25 890 25 869 q 56 974 25 938 q 135 1037 88 1011 q 241 1076 183 1063 q 353 1089 299 1089 q 471 1069 413 1089 q 574 1012 529 1049 q 646 926 618 975 q 674 818 674 876 q 655 731 674 772 q 607 652 636 690 q 544 577 578 614 q 480 503 510 540 q 428 426 450 465 q 404 344 407 388 q 444 310 404 310 l 483 310 l 494 236 l 465 199 l 444 192 q 417 185 429 186 q 399 183 406 183 q 333 194 367 183 q 270 225 299 204 q 223 276 242 246 q 204 344 204 306 q 224 442 204 394 q 274 535 244 490 q 338 622 303 581 q 403 699 374 663 q 452 766 432 735 q 472 824 472 797 q 467 851 472 836 q 448 879 461 867 q 414 901 435 892 q 364 910 393 910 q 328 909 357 910 q 269 905 300 908 q 215 896 239 901 q 190 882 190 890 q 203 858 190 869 q 244 832 215 847 l 244 774 m 363 111 q 406 102 385 111 q 442 77 426 93 q 467 40 458 61 q 476 -3 476 19 q 467 -44 476 -24 q 442 -80 457 -64 q 406 -105 426 -96 q 364 -114 386 -114 q 320 -106 342 -114 q 282 -84 299 -99 q 256 -51 265 -69 q 246 -8 246 -32 q 278 76 246 42 q 363 111 310 111 z "},"@":{"ha":918,"x_min":39,"x_max":888,"o":"m 271 549 q 283 613 271 576 q 327 683 296 649 q 410 742 358 717 q 539 776 461 768 q 564 783 553 783 q 623 765 599 783 q 663 716 647 747 q 687 643 679 685 q 694 553 694 601 q 675 438 694 493 q 689 435 679 435 q 738 465 726 435 q 750 550 750 496 q 730 703 750 639 q 674 808 710 767 q 592 870 639 850 q 494 890 546 890 q 374 866 429 890 q 278 796 318 842 q 214 685 238 750 q 190 538 190 619 q 210 403 190 467 q 269 293 231 340 q 362 219 307 246 q 486 192 417 192 q 544 197 510 192 q 613 212 578 201 q 681 240 649 222 q 733 283 714 258 q 772 301 756 296 q 801 306 789 306 q 845 291 829 306 q 861 256 861 276 q 860 248 861 253 q 857 236 860 243 l 857 239 q 778 135 826 174 q 676 76 729 97 q 569 49 622 56 q 478 43 517 43 q 301 82 382 43 q 163 188 221 121 q 72 348 104 256 q 39 549 39 440 q 77 727 39 640 q 179 882 115 814 q 325 992 243 950 q 493 1033 407 1033 q 673 994 599 1033 q 795 886 747 954 q 865 728 843 818 q 888 539 888 639 q 880 478 888 514 q 852 408 872 442 q 797 351 832 375 q 707 328 761 328 q 618 347 660 328 q 563 311 594 324 q 492 299 531 299 q 326 367 382 299 q 271 549 271 435 m 529 438 q 488 545 501 486 q 472 658 474 604 q 448 642 461 651 q 424 619 435 632 q 405 588 413 606 q 397 549 397 571 q 490 424 397 424 q 529 438 514 424 m 544 672 q 543 616 540 644 q 553 562 546 588 q 569 514 560 536 q 586 478 578 492 q 590 506 589 490 q 592 539 592 522 q 591 575 592 558 q 589 604 590 592 q 581 633 588 621 q 566 653 574 644 q 551 666 558 661 q 544 672 544 671 z "},"[":{"ha":340,"x_min":-11,"x_max":376,"o":"m -11 -46 q 6 2 -11 -17 q 51 33 24 21 l 51 985 q 13 1016 29 997 q -4 1067 -4 1035 q 15 1119 -4 1107 q 67 1135 33 1132 q 75 1136 69 1136 q 89 1139 82 1136 q 101 1142 94 1140 q 114 1144 107 1143 l 113 1144 q 173 1153 136 1150 q 256 1157 210 1157 q 277 1154 264 1157 q 322 1144 290 1151 q 338 1126 332 1135 q 338 1124 338 1125 q 339 1122 339 1124 l 339 1121 l 342 1118 q 365 1085 353 1103 q 376 1044 376 1067 q 366 1017 376 1031 q 340 994 356 1004 q 306 976 324 983 q 276 968 289 969 q 246 967 261 967 q 224 967 232 967 q 226 906 225 943 q 226 818 226 868 q 227 632 226 735 q 228 427 228 529 q 230 235 229 325 q 231 85 231 144 l 231 56 q 247 55 238 56 q 269 54 257 54 q 301 46 283 53 q 333 28 318 39 q 360 3 349 17 q 371 -22 371 -10 q 358 -67 371 -49 q 333 -101 346 -86 q 328 -108 331 -104 l 315 -122 q 273 -134 288 -132 q 250 -136 258 -136 q 167 -133 201 -136 q 110 -124 132 -129 q 102 -122 107 -122 q 94 -119 97 -121 q 74 -115 83 -117 q 58 -112 65 -114 q 6 -99 24 -110 q -11 -46 -11 -87 z "},"\\":{"ha":554,"x_min":-68,"x_max":622,"o":"m -64 957 q -67 966 -67 961 q -68 974 -68 971 q -67 986 -68 982 q -64 992 -65 989 q -60 1000 -62 996 q -37 1026 -54 1013 q 0 1050 -21 1039 q 43 1068 21 1061 q 83 1075 65 1075 l 93 1075 l 99 1072 l 94 1072 q 115 1065 106 1069 q 124 1046 124 1061 l 124 1040 q 194 875 158 954 q 268 715 229 796 q 351 549 307 635 q 447 361 394 463 q 528 202 485 288 q 621 19 572 117 q 622 8 622 15 q 618 -11 622 1 q 610 -28 615 -21 q 588 -56 601 -40 q 560 -83 575 -71 q 528 -104 544 -96 q 496 -112 511 -112 q 486 -111 489 -112 l 476 -110 q 456 -97 465 -106 q 446 -71 446 -89 l 447 -78 q 386 68 421 -10 q 315 227 351 146 q 238 390 278 308 q 162 545 199 471 q 92 683 125 619 q 32 793 58 746 l 35 793 l -64 957 z "},"]":{"ha":340,"x_min":3,"x_max":390,"o":"m 390 1065 q 373 1019 390 1038 q 328 988 356 1000 l 328 35 q 367 5 350 22 q 385 -47 385 -12 q 367 -100 385 -89 q 315 -114 349 -111 q 299 -117 308 -115 q 279 -121 290 -118 l 282 -119 l 250 -125 q 200 -134 228 -131 q 125 -137 172 -137 q 99 -135 114 -137 q 57 -124 85 -133 l 38 -101 l 36 -100 q 14 -67 25 -85 q 3 -24 3 -49 q 13 3 3 -10 q 40 27 24 17 q 73 44 56 38 q 104 53 90 51 q 132 54 119 54 q 154 54 146 54 l 154 201 q 153 388 154 285 q 152 594 153 492 q 151 786 151 696 q 150 936 150 876 l 150 965 q 131 965 140 965 q 110 967 122 965 q 78 975 96 968 q 46 993 61 982 q 20 1017 31 1004 q 10 1043 10 1031 q 20 1085 10 1067 q 43 1119 31 1103 q 51 1131 46 1122 q 60 1142 57 1139 q 107 1153 93 1151 q 131 1156 121 1156 q 205 1152 175 1156 q 258 1143 235 1149 q 293 1138 274 1140 q 319 1133 313 1135 q 372 1118 354 1131 q 390 1065 390 1106 z "},"^":{"ha":461,"x_min":13,"x_max":449,"o":"m 368 588 q 297 599 332 589 q 235 629 263 610 q 221 617 228 622 q 207 606 214 611 q 166 586 188 594 q 114 578 144 578 q 72 588 90 578 q 40 615 54 599 q 19 651 26 632 q 13 686 13 669 q 22 719 13 701 q 56 768 31 738 q 92 751 86 753 q 101 749 99 749 q 116 758 108 749 q 135 779 124 767 q 140 788 138 783 q 146 804 142 792 q 180 860 151 839 q 239 882 208 882 q 292 867 267 882 q 328 817 318 853 q 331 805 331 810 q 333 794 332 800 q 339 779 336 788 q 349 764 342 771 l 349 765 q 356 763 349 764 q 369 761 363 761 q 429 735 410 761 q 449 679 449 710 q 444 649 449 665 q 428 619 439 633 q 403 597 418 606 q 368 588 389 588 z "},"_":{"ha":465,"x_min":0,"x_max":465,"o":"m 0 -125 l 0 -7 l 465 -7 l 465 -125 l 0 -125 z "},"C":{"ha":857,"x_min":28,"x_max":817,"o":"m 775 242 q 805 206 793 226 q 817 153 817 185 q 797 94 817 119 q 744 49 778 68 q 669 18 711 31 q 582 -1 628 6 q 492 -11 536 -8 q 410 -14 447 -14 q 267 29 336 -14 q 144 140 197 72 q 60 290 92 207 q 28 456 28 374 q 67 661 28 565 q 178 827 106 757 q 356 938 251 897 q 593 978 461 978 q 641 976 614 978 q 694 969 668 975 q 742 951 719 963 q 775 917 764 939 q 790 888 783 899 q 799 869 796 878 q 804 850 803 860 q 806 825 806 840 q 803 786 806 806 q 793 742 800 767 q 748 724 769 731 q 706 717 726 717 q 572 803 625 717 l 443 767 q 363 733 403 756 q 290 671 322 710 q 237 577 257 632 q 217 447 217 522 q 233 365 217 411 q 278 279 249 319 q 352 211 308 239 q 451 183 396 183 q 559 200 500 183 q 694 242 618 217 l 775 242 z "},"c":{"ha":857,"x_min":28,"x_max":817,"o":"m 775 242 q 805 206 793 226 q 817 153 817 185 q 797 94 817 119 q 744 49 778 68 q 669 18 711 31 q 582 -1 628 6 q 492 -11 536 -8 q 410 -14 447 -14 q 267 29 336 -14 q 144 140 197 72 q 60 290 92 207 q 28 456 28 374 q 67 661 28 565 q 178 827 106 757 q 356 938 251 897 q 593 978 461 978 q 641 976 614 978 q 694 969 668 975 q 742 951 719 963 q 775 917 764 939 q 790 888 783 899 q 799 869 796 878 q 804 850 803 860 q 806 825 806 840 q 803 786 806 806 q 793 742 800 767 q 748 724 769 731 q 706 717 726 717 q 572 803 625 717 l 443 767 q 363 733 403 756 q 290 671 322 710 q 237 577 257 632 q 217 447 217 522 q 233 365 217 411 q 278 279 249 319 q 352 211 308 239 q 451 183 396 183 q 559 200 500 183 q 694 242 618 217 l 775 242 z "},"D":{"ha":1064,"x_min":69,"x_max":1022,"o":"m 72 869 q 69 885 69 878 q 69 900 69 893 q 105 976 69 949 q 211 1019 140 1004 q 250 1022 236 1022 q 289 1022 265 1022 q 576 976 442 1022 q 809 849 710 931 q 965 653 908 767 q 1022 403 1022 539 q 974 240 1022 315 q 850 110 926 165 q 678 23 774 54 q 489 -8 583 -8 l 472 -8 q 397 -78 457 -44 l 375 -78 q 299 -51 322 -78 q 275 33 275 -24 l 275 44 q 89 281 89 164 q 122 392 89 338 q 178 336 146 360 q 256 292 211 313 q 253 335 254 303 q 253 404 253 368 q 253 471 253 440 q 253 514 253 503 q 263 653 253 596 q 292 747 272 711 q 342 798 313 782 q 411 814 371 814 l 431 814 q 443 679 442 743 q 444 544 444 615 l 444 217 q 507 202 474 204 q 561 200 540 200 q 650 221 603 200 q 738 273 697 242 q 804 341 778 304 q 831 411 831 378 q 778 598 831 513 q 638 746 725 683 q 437 843 550 808 q 203 878 324 878 l 169 878 l 108 819 l 72 869 z "},"d":{"ha":1064,"x_min":69,"x_max":1022,"o":"m 72 869 q 69 885 69 878 q 69 900 69 893 q 105 976 69 949 q 211 1019 140 1004 q 250 1022 236 1022 q 289 1022 265 1022 q 576 976 442 1022 q 809 849 710 931 q 965 653 908 767 q 1022 403 1022 539 q 974 240 1022 315 q 850 110 926 165 q 678 23 774 54 q 489 -8 583 -8 l 472 -8 q 397 -78 457 -44 l 375 -78 q 299 -51 322 -78 q 275 33 275 -24 l 275 44 q 89 281 89 164 q 122 392 89 338 q 178 336 146 360 q 256 292 211 313 q 253 335 254 303 q 253 404 253 368 q 253 471 253 440 q 253 514 253 503 q 263 653 253 596 q 292 747 272 711 q 342 798 313 782 q 411 814 371 814 l 431 814 q 443 679 442 743 q 444 544 444 615 l 444 217 q 507 202 474 204 q 561 200 540 200 q 650 221 603 200 q 738 273 697 242 q 804 341 778 304 q 831 411 831 378 q 778 598 831 513 q 638 746 725 683 q 437 843 550 808 q 203 878 324 878 l 169 878 l 108 819 l 72 869 z "},"E":{"ha":847,"x_min":42,"x_max":806,"o":"m 763 206 q 764 190 764 200 q 753 164 764 171 q 688 110 728 142 q 596 48 647 78 q 482 -3 544 18 q 351 -25 419 -25 q 244 -3 292 -25 q 163 56 196 19 q 111 140 129 93 q 93 238 93 188 q 106 335 93 282 q 131 444 119 389 q 110 482 122 465 q 97 528 97 499 q 99 549 97 539 q 104 572 101 558 q 137 585 119 579 q 174 594 154 592 l 218 747 q 162 772 193 758 q 104 800 131 785 q 60 835 78 815 q 42 879 42 854 q 59 905 42 899 q 108 914 76 911 q 199 924 151 915 q 302 944 246 933 q 426 962 358 954 q 581 969 494 969 q 626 966 600 969 q 697 950 651 963 q 726 923 708 939 q 763 888 744 907 q 793 850 781 869 q 806 813 806 831 q 791 792 806 801 q 754 774 776 782 q 708 760 732 765 q 664 753 683 754 q 590 749 619 750 q 538 747 561 747 q 492 746 514 746 q 443 744 471 746 q 422 744 432 744 q 403 742 413 744 q 390 717 397 735 q 382 667 382 699 q 386 625 382 647 q 394 607 388 617 q 415 597 400 597 l 621 597 l 660 592 q 678 553 672 576 q 688 511 685 531 q 689 489 689 504 q 685 460 689 474 q 667 444 681 446 q 617 442 649 443 q 544 439 585 440 q 454 437 503 438 q 354 436 406 436 q 346 435 350 436 q 339 425 342 433 q 313 340 328 388 q 297 247 297 292 q 299 226 297 233 q 307 207 300 215 q 329 199 314 199 q 396 213 354 199 q 486 244 438 226 q 586 275 535 261 q 682 289 638 289 q 708 281 694 289 q 733 261 721 274 q 752 234 744 249 q 763 206 760 219 z "},"e":{"ha":847,"x_min":42,"x_max":806,"o":"m 763 206 q 764 190 764 200 q 753 164 764 171 q 688 110 728 142 q 596 48 647 78 q 482 -3 544 18 q 351 -25 419 -25 q 244 -3 292 -25 q 163 56 196 19 q 111 140 129 93 q 93 238 93 188 q 106 335 93 282 q 131 444 119 389 q 110 482 122 465 q 97 528 97 499 q 99 549 97 539 q 104 572 101 558 q 137 585 119 579 q 174 594 154 592 l 218 747 q 162 772 193 758 q 104 800 131 785 q 60 835 78 815 q 42 879 42 854 q 59 905 42 899 q 108 914 76 911 q 199 924 151 915 q 302 944 246 933 q 426 962 358 954 q 581 969 494 969 q 626 966 600 969 q 697 950 651 963 q 726 923 708 939 q 763 888 744 907 q 793 850 781 869 q 806 813 806 831 q 791 792 806 801 q 754 774 776 782 q 708 760 732 765 q 664 753 683 754 q 590 749 619 750 q 538 747 561 747 q 492 746 514 746 q 443 744 471 746 q 422 744 432 744 q 403 742 413 744 q 390 717 397 735 q 382 667 382 699 q 386 625 382 647 q 394 607 388 617 q 415 597 400 597 l 621 597 l 660 592 q 678 553 672 576 q 688 511 685 531 q 689 489 689 504 q 685 460 689 474 q 667 444 681 446 q 617 442 649 443 q 544 439 585 440 q 454 437 503 438 q 354 436 406 436 q 346 435 350 436 q 339 425 342 433 q 313 340 328 388 q 297 247 297 292 q 299 226 297 233 q 307 207 300 215 q 329 199 314 199 q 396 213 354 199 q 486 244 438 226 q 586 275 535 261 q 682 289 638 289 q 708 281 694 289 q 733 261 721 274 q 752 234 744 249 q 763 206 760 219 z "},"F":{"ha":919,"x_min":72,"x_max":936,"o":"m 322 11 q 256 -3 289 3 q 200 -8 224 -8 q 157 -1 175 -8 q 128 28 139 7 q 108 84 113 49 q 103 172 103 119 q 108 282 103 219 q 126 419 114 344 q 156 580 138 494 q 200 756 174 665 q 122 785 146 764 q 86 831 97 807 l 83 839 q 76 864 79 850 q 72 892 72 878 l 75 911 q 215 925 147 917 q 351 942 283 933 q 490 960 419 951 q 639 972 561 968 q 766 972 721 972 q 835 968 811 971 q 869 960 858 965 q 892 946 879 954 q 900 939 894 944 q 928 902 919 924 q 936 861 936 881 q 924 829 936 842 q 890 810 911 817 q 843 800 869 803 q 789 797 817 797 q 719 800 753 797 q 667 803 686 803 q 626 801 647 803 q 578 794 606 799 q 516 783 551 790 q 433 767 481 776 q 399 680 413 726 q 378 583 386 633 q 572 584 503 583 q 678 586 642 585 q 728 588 714 588 q 756 592 742 589 q 776 559 771 576 q 781 522 781 542 q 775 475 781 501 q 750 425 769 449 q 675 420 710 421 q 608 419 640 419 l 536 419 q 489 419 511 419 q 444 415 467 418 q 397 407 421 413 q 342 392 372 401 q 327 300 331 350 q 324 197 324 250 q 324 121 324 158 q 325 50 325 83 q 325 29 325 39 q 322 11 325 19 z "},"f":{"ha":919,"x_min":72,"x_max":936,"o":"m 322 11 q 256 -3 289 3 q 200 -8 224 -8 q 157 -1 175 -8 q 128 28 139 7 q 108 84 113 49 q 103 172 103 119 q 108 282 103 219 q 126 419 114 344 q 156 580 138 494 q 200 756 174 665 q 122 785 146 764 q 86 831 97 807 l 83 839 q 76 864 79 850 q 72 892 72 878 l 75 911 q 215 925 147 917 q 351 942 283 933 q 490 960 419 951 q 639 972 561 968 q 766 972 721 972 q 835 968 811 971 q 869 960 858 965 q 892 946 879 954 q 900 939 894 944 q 928 902 919 924 q 936 861 936 881 q 924 829 936 842 q 890 810 911 817 q 843 800 869 803 q 789 797 817 797 q 719 800 753 797 q 667 803 686 803 q 626 801 647 803 q 578 794 606 799 q 516 783 551 790 q 433 767 481 776 q 399 680 413 726 q 378 583 386 633 q 572 584 503 583 q 678 586 642 585 q 728 588 714 588 q 756 592 742 589 q 776 559 771 576 q 781 522 781 542 q 775 475 781 501 q 750 425 769 449 q 675 420 710 421 q 608 419 640 419 l 536 419 q 489 419 511 419 q 444 415 467 418 q 397 407 421 413 q 342 392 372 401 q 327 300 331 350 q 324 197 324 250 q 324 121 324 158 q 325 50 325 83 q 325 29 325 39 q 322 11 325 19 z "},"G":{"ha":936,"x_min":25,"x_max":919,"o":"m 769 711 q 714 688 744 694 q 650 681 683 681 q 669 723 663 704 q 675 753 675 742 q 668 768 675 761 q 642 775 661 775 q 610 772 629 775 q 567 761 592 768 q 432 711 494 744 q 323 628 369 678 q 249 512 276 578 q 222 364 222 446 q 274 224 222 272 q 439 175 326 175 q 510 181 464 175 q 600 206 556 186 q 678 265 644 226 q 711 372 711 304 q 697 394 711 386 q 663 406 683 401 q 621 410 643 410 q 581 411 599 411 q 481 381 522 411 q 408 294 440 351 q 353 328 363 308 q 344 381 344 347 q 364 456 344 425 q 415 507 383 486 q 486 539 446 528 q 568 556 526 550 q 649 563 610 561 q 719 564 689 564 q 803 549 767 564 q 866 508 840 533 q 906 451 892 483 q 919 383 919 418 q 885 216 919 289 q 787 93 851 143 q 628 17 722 43 q 414 -8 533 -8 q 235 15 308 -8 q 115 87 161 39 q 47 205 68 135 q 25 369 25 275 q 53 540 25 460 q 128 689 82 621 q 234 810 174 757 q 358 902 294 864 q 485 960 422 940 q 600 981 547 981 q 808 842 808 981 q 800 782 808 814 q 775 717 792 750 l 769 711 z "},"g":{"ha":936,"x_min":25,"x_max":919,"o":"m 769 711 q 714 688 744 694 q 650 681 683 681 q 669 723 663 704 q 675 753 675 742 q 668 768 675 761 q 642 775 661 775 q 610 772 629 775 q 567 761 592 768 q 432 711 494 744 q 323 628 369 678 q 249 512 276 578 q 222 364 222 446 q 274 224 222 272 q 439 175 326 175 q 510 181 464 175 q 600 206 556 186 q 678 265 644 226 q 711 372 711 304 q 697 394 711 386 q 663 406 683 401 q 621 410 643 410 q 581 411 599 411 q 481 381 522 411 q 408 294 440 351 q 353 328 363 308 q 344 381 344 347 q 364 456 344 425 q 415 507 383 486 q 486 539 446 528 q 568 556 526 550 q 649 563 610 561 q 719 564 689 564 q 803 549 767 564 q 866 508 840 533 q 906 451 892 483 q 919 383 919 418 q 885 216 919 289 q 787 93 851 143 q 628 17 722 43 q 414 -8 533 -8 q 235 15 308 -8 q 115 87 161 39 q 47 205 68 135 q 25 369 25 275 q 53 540 25 460 q 128 689 82 621 q 234 810 174 757 q 358 902 294 864 q 485 960 422 940 q 600 981 547 981 q 808 842 808 981 q 800 782 808 814 q 775 717 792 750 l 769 711 z "},"H":{"ha":850,"x_min":3,"x_max":814,"o":"m 550 919 q 614 997 563 968 l 653 997 q 701 993 669 997 q 756 978 732 989 q 756 943 756 965 q 758 897 756 922 q 760 865 758 882 q 761 828 761 847 l 781 472 q 785 397 781 432 q 797 325 790 361 l 799 318 q 810 243 806 281 q 814 164 814 206 q 813 127 814 149 q 810 84 813 106 q 801 43 807 63 q 783 11 794 24 q 750 1 764 4 q 719 -3 736 -3 q 685 2 704 -3 q 650 17 667 7 q 621 40 633 26 q 606 72 608 54 l 594 289 l 586 289 q 535 285 558 286 q 492 283 513 283 q 428 285 463 283 q 344 292 393 288 q 347 233 346 267 q 349 167 349 200 q 350 108 350 135 q 350 72 350 82 q 347 40 350 51 q 335 22 344 28 q 309 12 326 15 q 264 6 292 8 q 212 10 236 6 q 156 39 188 15 l 133 119 q 126 162 129 131 q 120 228 122 193 q 117 296 118 264 q 117 342 117 328 q 61 381 92 353 q 19 442 31 410 q 14 465 17 449 q 9 502 11 482 q 5 543 7 522 q 3 581 3 564 q 4 587 3 585 q 6 592 6 589 l 6 617 q 76 579 43 593 q 133 558 108 565 l 153 928 l 197 950 q 253 958 222 958 q 277 956 263 958 q 308 951 292 954 q 338 942 324 947 q 358 931 351 936 q 357 906 358 914 q 353 881 356 897 q 344 776 349 844 q 339 622 339 708 l 339 494 q 378 488 361 490 q 415 483 396 485 q 457 481 433 482 q 517 481 481 481 q 548 481 536 481 q 581 486 560 482 l 550 919 z "},"h":{"ha":850,"x_min":3,"x_max":814,"o":"m 550 919 q 614 997 563 968 l 653 997 q 701 993 669 997 q 756 978 732 989 q 756 943 756 965 q 758 897 756 922 q 760 865 758 882 q 761 828 761 847 l 781 472 q 785 397 781 432 q 797 325 790 361 l 799 318 q 810 243 806 281 q 814 164 814 206 q 813 127 814 149 q 810 84 813 106 q 801 43 807 63 q 783 11 794 24 q 750 1 764 4 q 719 -3 736 -3 q 685 2 704 -3 q 650 17 667 7 q 621 40 633 26 q 606 72 608 54 l 594 289 l 586 289 q 535 285 558 286 q 492 283 513 283 q 428 285 463 283 q 344 292 393 288 q 347 233 346 267 q 349 167 349 200 q 350 108 350 135 q 350 72 350 82 q 347 40 350 51 q 335 22 344 28 q 309 12 326 15 q 264 6 292 8 q 212 10 236 6 q 156 39 188 15 l 133 119 q 126 162 129 131 q 120 228 122 193 q 117 296 118 264 q 117 342 117 328 q 61 381 92 353 q 19 442 31 410 q 14 465 17 449 q 9 502 11 482 q 5 543 7 522 q 3 581 3 564 q 4 587 3 585 q 6 592 6 589 l 6 617 q 76 579 43 593 q 133 558 108 565 l 153 928 l 197 950 q 253 958 222 958 q 277 956 263 958 q 308 951 292 954 q 338 942 324 947 q 358 931 351 936 q 357 906 358 914 q 353 881 356 897 q 344 776 349 844 q 339 622 339 708 l 339 494 q 378 488 361 490 q 415 483 396 485 q 457 481 433 482 q 517 481 481 481 q 548 481 536 481 q 581 486 560 482 l 550 919 z "},"I":{"ha":443,"x_min":117,"x_max":336,"o":"m 175 1000 q 284 955 250 997 q 321 833 318 913 q 326 654 324 749 q 331 463 329 560 q 335 272 333 367 q 336 94 336 178 q 333 60 336 78 q 319 29 329 43 q 293 6 310 15 q 250 -3 276 -3 q 211 2 233 -3 q 172 14 189 7 q 149 38 158 18 q 132 81 139 57 q 122 128 125 106 q 117 161 118 150 q 117 224 117 194 q 119 288 118 254 q 123 363 121 321 q 128 467 125 406 q 129 533 129 488 q 131 649 129 581 q 140 801 133 717 q 158 981 146 885 q 164 996 161 992 q 175 1000 167 1000 z "},"i":{"ha":443,"x_min":117,"x_max":336,"o":"m 175 1000 q 284 955 250 997 q 321 833 318 913 q 326 654 324 749 q 331 463 329 560 q 335 272 333 367 q 336 94 336 178 q 333 60 336 78 q 319 29 329 43 q 293 6 310 15 q 250 -3 276 -3 q 211 2 233 -3 q 172 14 189 7 q 149 38 158 18 q 132 81 139 57 q 122 128 125 106 q 117 161 118 150 q 117 224 117 194 q 119 288 118 254 q 123 363 121 321 q 128 467 125 406 q 129 533 129 488 q 131 649 129 581 q 140 801 133 717 q 158 981 146 885 q 164 996 161 992 q 175 1000 167 1000 z "},"K":{"ha":850,"x_min":47,"x_max":836,"o":"m 100 961 q 126 976 113 972 q 147 981 139 981 q 227 901 196 981 q 258 672 258 821 q 258 639 258 653 q 256 603 258 626 q 376 657 324 628 q 474 727 428 686 q 565 824 519 768 q 664 958 610 879 q 689 972 674 972 q 722 958 700 972 q 766 926 744 944 q 803 889 788 907 q 819 861 819 871 l 819 856 q 738 722 781 779 q 646 619 694 665 q 544 534 597 574 q 433 453 492 494 q 470 414 440 440 q 547 353 500 388 q 656 278 594 318 q 792 197 718 238 q 825 157 814 185 q 836 101 836 129 q 828 58 836 76 q 803 19 819 38 q 756 -3 788 0 q 605 65 672 25 q 479 149 538 104 q 367 243 421 194 q 256 339 313 292 l 269 31 q 216 3 244 11 q 158 -6 188 -6 q 117 -3 138 -6 q 78 6 97 -1 q 67 65 69 35 q 64 128 64 94 q 56 375 64 254 q 47 617 47 496 l 47 917 l 100 961 z "},"k":{"ha":850,"x_min":47,"x_max":836,"o":"m 100 961 q 126 976 113 972 q 147 981 139 981 q 227 901 196 981 q 258 672 258 821 q 258 639 258 653 q 256 603 258 626 q 376 657 324 628 q 474 727 428 686 q 565 824 519 768 q 664 958 610 879 q 689 972 674 972 q 722 958 700 972 q 766 926 744 944 q 803 889 788 907 q 819 861 819 871 l 819 856 q 738 722 781 779 q 646 619 694 665 q 544 534 597 574 q 433 453 492 494 q 470 414 440 440 q 547 353 500 388 q 656 278 594 318 q 792 197 718 238 q 825 157 814 185 q 836 101 836 129 q 828 58 836 76 q 803 19 819 38 q 756 -3 788 0 q 605 65 672 25 q 479 149 538 104 q 367 243 421 194 q 256 339 313 292 l 269 31 q 216 3 244 11 q 158 -6 188 -6 q 117 -3 138 -6 q 78 6 97 -1 q 67 65 69 35 q 64 128 64 94 q 56 375 64 254 q 47 617 47 496 l 47 917 l 100 961 z "},"L":{"ha":694,"x_min":58,"x_max":681,"o":"m 336 1011 q 397 950 397 1011 q 382 813 396 875 q 349 676 368 750 q 307 506 329 603 q 267 264 285 408 l 267 253 q 276 219 267 233 q 297 206 285 206 q 337 211 311 206 q 394 226 363 217 q 459 247 425 236 q 525 271 493 258 q 593 298 557 282 q 650 314 629 314 q 666 306 660 314 q 676 288 672 299 q 680 267 679 278 q 681 250 681 256 q 640 153 681 206 q 540 57 599 101 q 415 -17 481 13 q 297 -47 349 -47 q 181 -17 228 -47 q 108 61 135 14 q 69 165 81 108 q 58 275 58 222 q 78 452 58 353 q 124 648 97 551 q 182 826 151 744 q 236 950 213 907 q 274 986 249 974 q 336 1011 299 999 z "},"l":{"ha":694,"x_min":58,"x_max":681,"o":"m 336 1011 q 397 950 397 1011 q 382 813 396 875 q 349 676 368 750 q 307 506 329 603 q 267 264 285 408 l 267 253 q 276 219 267 233 q 297 206 285 206 q 337 211 311 206 q 394 226 363 217 q 459 247 425 236 q 525 271 493 258 q 593 298 557 282 q 650 314 629 314 q 666 306 660 314 q 676 288 672 299 q 680 267 679 278 q 681 250 681 256 q 640 153 681 206 q 540 57 599 101 q 415 -17 481 13 q 297 -47 349 -47 q 181 -17 228 -47 q 108 61 135 14 q 69 165 81 108 q 58 275 58 222 q 78 452 58 353 q 124 648 97 551 q 182 826 151 744 q 236 950 213 907 q 274 986 249 974 q 336 1011 299 999 z "},"M":{"ha":1303,"x_min":50,"x_max":1257,"o":"m 306 767 q 310 774 307 768 q 342 827 319 790 q 401 901 365 864 q 483 966 436 938 q 583 994 529 994 q 628 976 611 994 q 656 926 646 957 q 671 857 667 896 q 676 778 675 818 q 682 654 679 711 q 689 569 685 597 q 717 630 699 593 q 763 708 735 667 q 826 790 790 749 q 903 863 861 831 q 994 916 946 896 q 1097 936 1043 936 q 1153 922 1128 936 q 1199 887 1179 908 q 1230 840 1218 865 q 1243 792 1242 814 q 1247 728 1244 772 q 1252 624 1250 683 q 1256 494 1254 564 q 1257 354 1257 425 q 1255 208 1257 279 q 1247 81 1253 136 q 1230 -8 1240 26 q 1203 -42 1219 -42 l 1194 -42 q 1113 -8 1143 -42 q 1066 71 1082 26 q 1045 158 1050 115 q 1039 218 1040 200 l 1039 222 q 1037 274 1038 240 q 1035 352 1036 308 q 1034 444 1035 396 q 1033 539 1033 493 q 1035 651 1033 601 q 1042 717 1038 701 q 976 663 1008 703 q 916 568 944 624 q 863 448 888 513 q 816 320 838 383 q 776 199 794 257 q 744 103 758 142 q 715 74 738 83 q 672 64 693 64 l 671 64 q 608 110 635 64 q 560 226 581 156 q 525 381 539 297 q 502 542 511 465 q 490 676 493 618 q 486 753 486 735 q 439 713 461 738 q 397 658 417 688 q 360 597 378 628 q 329 536 343 565 q 303 475 314 506 q 284 406 292 444 q 273 318 276 368 q 269 197 269 268 l 269 178 q 267 99 269 136 q 256 35 265 63 q 226 -10 246 7 q 172 -28 207 -26 l 164 -28 q 117 -11 136 -28 q 83 50 97 6 q 70 119 76 72 q 60 217 64 165 q 53 319 56 269 q 50 400 50 369 q 58 573 50 486 q 81 733 65 660 q 85 748 83 740 q 88 763 86 756 q 103 829 96 799 q 124 881 111 860 q 157 915 136 903 q 211 928 178 928 q 258 908 240 928 q 285 863 275 889 q 299 809 294 836 q 306 767 303 782 z "},"m":{"ha":1303,"x_min":50,"x_max":1257,"o":"m 306 767 q 310 774 307 768 q 342 827 319 790 q 401 901 365 864 q 483 966 436 938 q 583 994 529 994 q 628 976 611 994 q 656 926 646 957 q 671 857 667 896 q 676 778 675 818 q 682 654 679 711 q 689 569 685 597 q 717 630 699 593 q 763 708 735 667 q 826 790 790 749 q 903 863 861 831 q 994 916 946 896 q 1097 936 1043 936 q 1153 922 1128 936 q 1199 887 1179 908 q 1230 840 1218 865 q 1243 792 1242 814 q 1247 728 1244 772 q 1252 624 1250 683 q 1256 494 1254 564 q 1257 354 1257 425 q 1255 208 1257 279 q 1247 81 1253 136 q 1230 -8 1240 26 q 1203 -42 1219 -42 l 1194 -42 q 1113 -8 1143 -42 q 1066 71 1082 26 q 1045 158 1050 115 q 1039 218 1040 200 l 1039 222 q 1037 274 1038 240 q 1035 352 1036 308 q 1034 444 1035 396 q 1033 539 1033 493 q 1035 651 1033 601 q 1042 717 1038 701 q 976 663 1008 703 q 916 568 944 624 q 863 448 888 513 q 816 320 838 383 q 776 199 794 257 q 744 103 758 142 q 715 74 738 83 q 672 64 693 64 l 671 64 q 608 110 635 64 q 560 226 581 156 q 525 381 539 297 q 502 542 511 465 q 490 676 493 618 q 486 753 486 735 q 439 713 461 738 q 397 658 417 688 q 360 597 378 628 q 329 536 343 565 q 303 475 314 506 q 284 406 292 444 q 273 318 276 368 q 269 197 269 268 l 269 178 q 267 99 269 136 q 256 35 265 63 q 226 -10 246 7 q 172 -28 207 -26 l 164 -28 q 117 -11 136 -28 q 83 50 97 6 q 70 119 76 72 q 60 217 64 165 q 53 319 56 269 q 50 400 50 369 q 58 573 50 486 q 81 733 65 660 q 85 748 83 740 q 88 763 86 756 q 103 829 96 799 q 124 881 111 860 q 157 915 136 903 q 211 928 178 928 q 258 908 240 928 q 285 863 275 889 q 299 809 294 836 q 306 767 303 782 z "},"N":{"ha":922,"x_min":47,"x_max":869,"o":"m 542 1036 q 546 1074 542 1053 q 569 1094 550 1094 q 619 1072 589 1094 q 682 1009 649 1050 q 749 909 715 968 q 809 776 782 850 q 853 616 836 703 q 869 433 869 529 q 855 303 869 369 q 813 183 840 238 q 747 95 786 129 q 656 61 707 61 q 575 99 615 61 q 497 195 535 138 q 425 319 458 253 q 364 444 392 386 q 316 540 336 501 q 286 578 296 578 q 276 571 282 578 q 267 547 271 564 q 263 511 264 539 q 259 445 261 483 q 255 362 257 407 q 251 274 253 317 q 245 194 249 231 q 239 136 242 157 l 238 126 q 229 89 235 110 q 215 49 224 68 q 191 18 206 31 q 156 6 176 6 q 101 31 122 6 q 68 90 81 56 q 51 163 56 125 q 47 225 47 200 q 53 324 47 261 q 70 459 58 386 q 99 607 82 532 q 136 743 115 682 q 183 842 157 804 q 239 881 208 881 q 287 854 260 881 q 346 784 314 828 q 413 684 378 740 q 486 569 449 628 q 561 453 524 510 q 636 350 599 396 q 649 335 644 342 q 656 328 653 328 q 670 346 668 328 q 672 400 672 364 q 668 515 672 464 q 656 609 664 565 q 638 694 649 653 q 613 779 626 735 q 583 875 599 824 q 550 992 567 926 l 542 1025 l 542 1036 z "},"n":{"ha":922,"x_min":47,"x_max":869,"o":"m 542 1036 q 546 1074 542 1053 q 569 1094 550 1094 q 619 1072 589 1094 q 682 1009 649 1050 q 749 909 715 968 q 809 776 782 850 q 853 616 836 703 q 869 433 869 529 q 855 303 869 369 q 813 183 840 238 q 747 95 786 129 q 656 61 707 61 q 575 99 615 61 q 497 195 535 138 q 425 319 458 253 q 364 444 392 386 q 316 540 336 501 q 286 578 296 578 q 276 571 282 578 q 267 547 271 564 q 263 511 264 539 q 259 445 261 483 q 255 362 257 407 q 251 274 253 317 q 245 194 249 231 q 239 136 242 157 l 238 126 q 229 89 235 110 q 215 49 224 68 q 191 18 206 31 q 156 6 176 6 q 101 31 122 6 q 68 90 81 56 q 51 163 56 125 q 47 225 47 200 q 53 324 47 261 q 70 459 58 386 q 99 607 82 532 q 136 743 115 682 q 183 842 157 804 q 239 881 208 881 q 287 854 260 881 q 346 784 314 828 q 413 684 378 740 q 486 569 449 628 q 561 453 524 510 q 636 350 599 396 q 649 335 644 342 q 656 328 653 328 q 670 346 668 328 q 672 400 672 364 q 668 515 672 464 q 656 609 664 565 q 638 694 649 653 q 613 779 626 735 q 583 875 599 824 q 550 992 567 926 l 542 1025 l 542 1036 z "},"O":{"ha":1022,"x_min":28,"x_max":994,"o":"m 133 108 q 52 292 76 203 q 28 464 28 381 q 72 670 28 575 q 190 834 117 765 q 360 942 264 903 q 561 981 457 981 q 708 957 653 981 q 778 903 778 929 q 757 878 778 886 q 717 867 736 869 l 722 867 q 817 855 768 867 q 911 814 867 843 q 944 777 929 803 q 971 719 960 751 q 988 653 982 688 q 994 592 994 619 q 932 358 994 464 q 769 177 869 253 q 544 58 669 101 q 294 8 419 14 q 264 -37 286 -17 q 217 -81 242 -57 q 154 22 175 -26 q 133 103 133 69 l 133 108 m 728 697 q 625 665 672 697 q 536 574 578 633 q 456 431 494 515 q 378 244 417 347 l 414 244 q 496 258 450 244 q 589 295 542 271 q 681 353 636 319 q 761 428 726 388 q 817 514 796 468 q 839 608 839 560 q 808 675 839 653 q 728 697 778 697 m 599 846 q 647 858 624 853 q 697 867 671 864 q 609 851 656 863 q 525 828 563 840 q 374 763 438 807 q 269 660 311 718 q 208 535 228 601 q 189 406 189 469 q 191 364 189 385 q 200 322 193 343 q 288 525 244 436 q 378 678 332 614 q 474 783 424 743 q 583 842 525 824 l 599 846 z "},"o":{"ha":1022,"x_min":28,"x_max":994,"o":"m 133 108 q 52 292 76 203 q 28 464 28 381 q 72 670 28 575 q 190 834 117 765 q 360 942 264 903 q 561 981 457 981 q 708 957 653 981 q 778 903 778 929 q 757 878 778 886 q 717 867 736 869 l 722 867 q 817 855 768 867 q 911 814 867 843 q 944 777 929 803 q 971 719 960 751 q 988 653 982 688 q 994 592 994 619 q 932 358 994 464 q 769 177 869 253 q 544 58 669 101 q 294 8 419 14 q 264 -37 286 -17 q 217 -81 242 -57 q 154 22 175 -26 q 133 103 133 69 l 133 108 m 728 697 q 625 665 672 697 q 536 574 578 633 q 456 431 494 515 q 378 244 417 347 l 414 244 q 496 258 450 244 q 589 295 542 271 q 681 353 636 319 q 761 428 726 388 q 817 514 796 468 q 839 608 839 560 q 808 675 839 653 q 728 697 778 697 m 599 846 q 647 858 624 853 q 697 867 671 864 q 609 851 656 863 q 525 828 563 840 q 374 763 438 807 q 269 660 311 718 q 208 535 228 601 q 189 406 189 469 q 191 364 189 385 q 200 322 193 343 q 288 525 244 436 q 378 678 332 614 q 474 783 424 743 q 583 842 525 824 l 599 846 z "},"S":{"ha":1018,"x_min":31,"x_max":983,"o":"m 692 358 q 686 340 692 346 q 625 301 669 322 q 528 281 581 281 q 496 290 521 281 q 436 310 471 299 q 364 331 401 322 q 294 340 326 340 q 242 327 263 340 q 221 281 221 314 q 239 256 221 269 q 286 229 257 242 q 361 210 318 217 q 453 203 404 203 q 575 213 513 203 q 688 244 638 224 q 771 293 739 264 q 803 361 803 322 q 781 408 803 388 q 723 446 758 429 q 642 475 688 463 q 551 495 597 488 q 463 507 506 503 q 392 513 421 511 q 201 525 272 515 q 92 553 129 535 q 42 603 54 572 q 31 682 31 635 q 69 801 31 751 q 168 885 108 851 q 298 938 228 918 q 429 967 368 957 q 533 981 490 978 q 583 983 576 983 q 778 967 688 983 q 939 932 869 951 q 962 921 954 929 q 969 888 969 913 q 949 844 967 860 q 908 819 932 828 q 863 810 892 815 q 817 801 833 804 q 746 795 797 799 q 628 787 694 792 q 491 776 563 782 q 360 759 419 769 q 261 734 300 749 q 222 700 222 719 q 258 676 222 685 q 344 662 294 668 q 448 652 394 656 q 535 644 501 649 q 717 617 635 632 q 859 572 800 603 q 951 484 918 540 q 983 333 983 428 q 955 208 983 261 q 883 117 926 154 q 785 56 839 79 q 679 18 731 32 q 585 -1 628 4 q 519 -6 542 -6 q 350 22 431 -6 q 208 90 269 49 q 111 182 147 132 q 75 278 75 232 q 99 368 75 332 q 160 425 122 404 q 242 454 197 446 q 328 463 286 463 q 412 457 367 463 q 503 440 457 451 q 597 410 550 428 q 686 369 643 393 q 692 358 692 364 z "},"s":{"ha":1018,"x_min":31,"x_max":983,"o":"m 692 358 q 686 340 692 346 q 625 301 669 322 q 528 281 581 281 q 496 290 521 281 q 436 310 471 299 q 364 331 401 322 q 294 340 326 340 q 242 327 263 340 q 221 281 221 314 q 239 256 221 269 q 286 229 257 242 q 361 210 318 217 q 453 203 404 203 q 575 213 513 203 q 688 244 638 224 q 771 293 739 264 q 803 361 803 322 q 781 408 803 388 q 723 446 758 429 q 642 475 688 463 q 551 495 597 488 q 463 507 506 503 q 392 513 421 511 q 201 525 272 515 q 92 553 129 535 q 42 603 54 572 q 31 682 31 635 q 69 801 31 751 q 168 885 108 851 q 298 938 228 918 q 429 967 368 957 q 533 981 490 978 q 583 983 576 983 q 778 967 688 983 q 939 932 869 951 q 962 921 954 929 q 969 888 969 913 q 949 844 967 860 q 908 819 932 828 q 863 810 892 815 q 817 801 833 804 q 746 795 797 799 q 628 787 694 792 q 491 776 563 782 q 360 759 419 769 q 261 734 300 749 q 222 700 222 719 q 258 676 222 685 q 344 662 294 668 q 448 652 394 656 q 535 644 501 649 q 717 617 635 632 q 859 572 800 603 q 951 484 918 540 q 983 333 983 428 q 955 208 983 261 q 883 117 926 154 q 785 56 839 79 q 679 18 731 32 q 585 -1 628 4 q 519 -6 542 -6 q 350 22 431 -6 q 208 90 269 49 q 111 182 147 132 q 75 278 75 232 q 99 368 75 332 q 160 425 122 404 q 242 454 197 446 q 328 463 286 463 q 412 457 367 463 q 503 440 457 451 q 597 410 550 428 q 686 369 643 393 q 692 358 692 364 z "},"T":{"ha":864,"x_min":0,"x_max":850,"o":"m 461 -192 q 428 -214 442 -208 q 383 -219 415 -219 q 344 -210 364 -219 q 308 -187 325 -201 q 278 -158 292 -174 q 257 -128 265 -142 q 231 -65 240 -100 q 217 8 222 -29 q 210 83 211 46 q 208 153 208 121 q 215 315 208 242 q 231 450 221 388 q 256 567 242 513 q 289 678 271 622 q 73 801 146 735 q 0 950 0 868 q 3 983 0 964 q 12 1019 6 1001 q 29 1052 18 1038 q 56 1072 40 1067 q 74 1061 69 1072 q 78 1035 78 1050 q 81 1006 79 1021 q 89 986 82 992 q 233 903 160 928 q 392 867 306 879 q 435 913 410 885 q 492 967 460 940 q 566 1014 525 994 q 658 1033 607 1033 q 719 1026 686 1033 q 782 997 753 1019 q 831 929 811 974 q 850 808 850 885 q 813 713 850 749 q 725 656 776 676 q 619 629 674 636 q 528 622 564 622 l 511 622 q 480 494 493 556 q 458 370 467 432 q 446 245 450 308 q 442 114 442 182 q 450 -45 442 32 q 461 -192 458 -122 m 569 847 q 591 843 581 844 q 614 842 601 842 q 651 847 631 842 q 688 863 671 853 q 716 885 704 872 q 728 911 728 897 q 722 934 728 926 q 700 942 717 942 q 656 937 679 942 q 615 921 633 932 q 583 892 596 910 q 569 847 571 874 z "},"t":{"ha":864,"x_min":0,"x_max":850,"o":"m 461 -192 q 428 -214 442 -208 q 383 -219 415 -219 q 344 -210 364 -219 q 308 -187 325 -201 q 278 -158 292 -174 q 257 -128 265 -142 q 231 -65 240 -100 q 217 8 222 -29 q 210 83 211 46 q 208 153 208 121 q 215 315 208 242 q 231 450 221 388 q 256 567 242 513 q 289 678 271 622 q 73 801 146 735 q 0 950 0 868 q 3 983 0 964 q 12 1019 6 1001 q 29 1052 18 1038 q 56 1072 40 1067 q 74 1061 69 1072 q 78 1035 78 1050 q 81 1006 79 1021 q 89 986 82 992 q 233 903 160 928 q 392 867 306 879 q 435 913 410 885 q 492 967 460 940 q 566 1014 525 994 q 658 1033 607 1033 q 719 1026 686 1033 q 782 997 753 1019 q 831 929 811 974 q 850 808 850 885 q 813 713 850 749 q 725 656 776 676 q 619 629 674 636 q 528 622 564 622 l 511 622 q 480 494 493 556 q 458 370 467 432 q 446 245 450 308 q 442 114 442 182 q 450 -45 442 32 q 461 -192 458 -122 m 569 847 q 591 843 581 844 q 614 842 601 842 q 651 847 631 842 q 688 863 671 853 q 716 885 704 872 q 728 911 728 897 q 722 934 728 926 q 700 942 717 942 q 656 937 679 942 q 615 921 633 932 q 583 892 596 910 q 569 847 571 874 z "},"U":{"ha":972,"x_min":69,"x_max":917,"o":"m 106 125 q 78 249 86 188 q 69 369 69 311 q 137 704 69 539 q 336 1031 204 869 q 356 1041 344 1038 q 375 1044 368 1044 q 414 989 406 1044 q 339 727 374 857 q 282 461 304 597 q 273 396 276 428 q 269 336 269 364 q 287 231 269 269 q 358 192 304 192 q 442 238 406 192 q 509 360 478 283 q 570 536 540 438 q 636 742 600 635 q 722 864 686 864 q 745 849 733 864 q 769 797 757 833 q 827 628 804 704 q 865 490 850 553 q 889 372 881 426 q 903 269 897 318 l 917 133 l 917 106 q 896 19 917 49 q 831 -11 875 -11 q 796 -8 811 -11 q 761 0 781 -4 q 736 49 744 24 q 728 100 728 75 q 724 177 728 136 q 714 258 721 218 l 703 369 q 636 203 675 272 q 549 88 597 133 q 444 22 501 43 q 325 0 388 0 l 322 0 q 190 35 243 3 q 106 125 138 67 z "},"u":{"ha":972,"x_min":69,"x_max":917,"o":"m 106 125 q 78 249 86 188 q 69 369 69 311 q 137 704 69 539 q 336 1031 204 869 q 356 1041 344 1038 q 375 1044 368 1044 q 414 989 406 1044 q 339 727 374 857 q 282 461 304 597 q 273 396 276 428 q 269 336 269 364 q 287 231 269 269 q 358 192 304 192 q 442 238 406 192 q 509 360 478 283 q 570 536 540 438 q 636 742 600 635 q 722 864 686 864 q 745 849 733 864 q 769 797 757 833 q 827 628 804 704 q 865 490 850 553 q 889 372 881 426 q 903 269 897 318 l 917 133 l 917 106 q 896 19 917 49 q 831 -11 875 -11 q 796 -8 811 -11 q 761 0 781 -4 q 736 49 744 24 q 728 100 728 75 q 724 177 728 136 q 714 258 721 218 l 703 369 q 636 203 675 272 q 549 88 597 133 q 444 22 501 43 q 325 0 388 0 l 322 0 q 190 35 243 3 q 106 125 138 67 z "},"W":{"ha":1196,"x_min":28,"x_max":1154,"o":"m 658 -22 q 585 -20 622 -22 q 512 -8 547 -18 q 444 22 476 1 q 390 76 413 42 q 338 67 364 69 q 289 65 313 65 q 98 140 168 65 q 28 343 28 214 q 53 511 28 429 q 119 666 79 593 q 209 800 160 739 q 308 905 258 861 q 400 973 357 949 q 469 997 443 997 q 494 996 482 997 q 518 992 507 994 q 533 976 529 986 q 536 950 536 965 l 533 904 q 424 788 479 850 q 326 657 369 726 q 255 509 282 588 q 228 346 228 431 q 232 296 228 322 q 247 248 236 269 q 279 213 258 226 q 332 199 300 199 l 353 199 q 331 299 340 247 q 321 399 321 350 q 342 520 321 460 q 402 629 363 581 q 499 708 442 678 q 626 739 556 739 q 699 722 668 739 q 751 677 731 706 q 783 611 772 649 q 794 532 794 574 q 742 333 794 421 q 594 169 690 244 q 628 155 611 161 q 658 149 644 149 q 785 200 731 149 q 878 326 840 251 q 935 482 915 400 q 954 625 954 564 q 911 832 954 735 q 768 1024 868 929 l 768 1043 q 772 1072 768 1058 q 786 1093 776 1086 l 811 1093 q 838 1091 824 1093 q 872 1080 851 1089 q 923 1051 893 1071 q 997 997 953 1032 q 1071 913 1040 963 q 1119 807 1101 864 q 1146 686 1138 750 q 1154 558 1154 622 q 1126 338 1154 443 q 1038 153 1099 233 q 884 25 978 72 q 658 -22 790 -22 m 608 518 q 603 551 608 538 q 588 576 597 565 q 531 525 556 558 q 507 433 507 492 q 508 410 507 425 q 510 376 508 394 q 516 341 513 358 q 524 311 519 324 q 557 349 542 324 q 583 406 572 375 q 601 466 594 436 q 608 518 608 496 z "},"w":{"ha":1196,"x_min":28,"x_max":1154,"o":"m 658 -22 q 585 -20 622 -22 q 512 -8 547 -18 q 444 22 476 1 q 390 76 413 42 q 338 67 364 69 q 289 65 313 65 q 98 140 168 65 q 28 343 28 214 q 53 511 28 429 q 119 666 79 593 q 209 800 160 739 q 308 905 258 861 q 400 973 357 949 q 469 997 443 997 q 494 996 482 997 q 518 992 507 994 q 533 976 529 986 q 536 950 536 965 l 533 904 q 424 788 479 850 q 326 657 369 726 q 255 509 282 588 q 228 346 228 431 q 232 296 228 322 q 247 248 236 269 q 279 213 258 226 q 332 199 300 199 l 353 199 q 331 299 340 247 q 321 399 321 350 q 342 520 321 460 q 402 629 363 581 q 499 708 442 678 q 626 739 556 739 q 699 722 668 739 q 751 677 731 706 q 783 611 772 649 q 794 532 794 574 q 742 333 794 421 q 594 169 690 244 q 628 155 611 161 q 658 149 644 149 q 785 200 731 149 q 878 326 840 251 q 935 482 915 400 q 954 625 954 564 q 911 832 954 735 q 768 1024 868 929 l 768 1043 q 772 1072 768 1058 q 786 1093 776 1086 l 811 1093 q 838 1091 824 1093 q 872 1080 851 1089 q 923 1051 893 1071 q 997 997 953 1032 q 1071 913 1040 963 q 1119 807 1101 864 q 1146 686 1138 750 q 1154 558 1154 622 q 1126 338 1154 443 q 1038 153 1099 233 q 884 25 978 72 q 658 -22 790 -22 m 608 518 q 603 551 608 538 q 588 576 597 565 q 531 525 556 558 q 507 433 507 492 q 508 410 507 425 q 510 376 508 394 q 516 341 513 358 q 524 311 519 324 q 557 349 542 324 q 583 406 572 375 q 601 466 594 436 q 608 518 608 496 z "},"X":{"ha":928,"x_min":56,"x_max":881,"o":"m 286 506 q 219 599 247 558 q 167 680 192 640 q 120 761 143 719 q 69 858 97 803 q 58 883 61 869 q 56 911 56 896 q 58 938 56 926 q 69 958 61 950 q 231 1003 138 1003 q 263 963 247 986 q 294 908 279 940 l 406 708 q 469 787 429 742 q 552 874 508 832 q 640 944 596 915 q 719 972 685 972 q 758 963 738 972 q 796 932 778 954 q 828 872 814 910 q 847 775 842 833 q 813 794 839 789 q 775 800 788 800 q 708 773 743 800 q 636 714 674 746 q 573 639 603 682 q 511 539 543 596 q 574 445 538 499 q 649 342 611 392 q 721 259 686 293 q 778 225 756 225 q 809 227 796 225 q 831 237 822 229 q 847 259 840 244 q 861 300 854 274 q 876 229 872 267 q 881 158 881 192 q 873 78 881 115 q 849 12 865 40 q 810 -33 833 -17 q 756 -50 786 -50 q 706 -29 733 -50 q 640 35 679 -8 q 547 146 601 79 q 413 306 492 213 q 347 144 372 211 q 306 31 321 76 q 270 -26 294 -4 q 217 -62 246 -49 q 158 -81 188 -75 q 108 -86 129 -86 q 88 -68 93 -86 q 83 -25 83 -50 q 87 23 83 -1 q 97 67 90 47 q 177 288 125 175 q 286 506 229 401 z "},"x":{"ha":928,"x_min":56,"x_max":881,"o":"m 286 506 q 219 599 247 558 q 167 680 192 640 q 120 761 143 719 q 69 858 97 803 q 58 883 61 869 q 56 911 56 896 q 58 938 56 926 q 69 958 61 950 q 231 1003 138 1003 q 263 963 247 986 q 294 908 279 940 l 406 708 q 469 787 429 742 q 552 874 508 832 q 640 944 596 915 q 719 972 685 972 q 758 963 738 972 q 796 932 778 954 q 828 872 814 910 q 847 775 842 833 q 813 794 839 789 q 775 800 788 800 q 708 773 743 800 q 636 714 674 746 q 573 639 603 682 q 511 539 543 596 q 574 445 538 499 q 649 342 611 392 q 721 259 686 293 q 778 225 756 225 q 809 227 796 225 q 831 237 822 229 q 847 259 840 244 q 861 300 854 274 q 876 229 872 267 q 881 158 881 192 q 873 78 881 115 q 849 12 865 40 q 810 -33 833 -17 q 756 -50 786 -50 q 706 -29 733 -50 q 640 35 679 -8 q 547 146 601 79 q 413 306 492 213 q 347 144 372 211 q 306 31 321 76 q 270 -26 294 -4 q 217 -62 246 -49 q 158 -81 188 -75 q 108 -86 129 -86 q 88 -68 93 -86 q 83 -25 83 -50 q 87 23 83 -1 q 97 67 90 47 q 177 288 125 175 q 286 506 229 401 z "},"Y":{"ha":936,"x_min":26,"x_max":919,"o":"m 388 -347 q 361 -353 375 -350 q 324 -357 347 -357 q 238 -332 271 -357 q 185 -267 204 -307 q 159 -177 167 -228 q 151 -76 151 -126 q 154 2 151 -36 q 163 82 157 40 q 179 172 169 124 q 204 281 189 221 q 142 319 174 293 q 84 381 110 346 q 42 453 58 415 q 26 526 26 492 q 52 686 26 604 q 114 836 78 768 q 188 947 150 904 q 250 990 225 990 q 290 971 271 990 q 310 921 310 951 q 295 851 310 890 q 263 766 281 811 q 231 672 246 721 q 217 574 217 622 q 268 468 217 513 q 306 581 283 518 q 358 710 329 644 q 424 837 388 775 q 501 947 460 899 q 589 1025 543 996 q 685 1054 635 1054 q 794 1027 750 1054 q 867 960 839 1000 q 907 872 894 919 q 919 783 919 825 q 882 601 919 692 q 779 437 844 511 q 626 310 714 363 q 439 239 539 257 q 419 113 428 172 q 403 -8 410 53 q 394 -137 397 -69 q 390 -286 390 -204 l 390 -329 l 388 -347 m 472 453 q 592 528 538 482 q 694 638 646 575 q 754 799 754 714 q 752 828 754 813 q 744 858 750 844 q 726 882 738 872 q 697 892 715 892 q 660 863 682 892 q 613 790 638 835 q 565 693 589 746 q 522 592 542 640 q 488 505 501 543 q 472 453 475 467 z "},"y":{"ha":936,"x_min":26,"x_max":919,"o":"m 388 -347 q 361 -353 375 -350 q 324 -357 347 -357 q 238 -332 271 -357 q 185 -267 204 -307 q 159 -177 167 -228 q 151 -76 151 -126 q 154 2 151 -36 q 163 82 157 40 q 179 172 169 124 q 204 281 189 221 q 142 319 174 293 q 84 381 110 346 q 42 453 58 415 q 26 526 26 492 q 52 686 26 604 q 114 836 78 768 q 188 947 150 904 q 250 990 225 990 q 290 971 271 990 q 310 921 310 951 q 295 851 310 890 q 263 766 281 811 q 231 672 246 721 q 217 574 217 622 q 268 468 217 513 q 306 581 283 518 q 358 710 329 644 q 424 837 388 775 q 501 947 460 899 q 589 1025 543 996 q 685 1054 635 1054 q 794 1027 750 1054 q 867 960 839 1000 q 907 872 894 919 q 919 783 919 825 q 882 601 919 692 q 779 437 844 511 q 626 310 714 363 q 439 239 539 257 q 419 113 428 172 q 403 -8 410 53 q 394 -137 397 -69 q 390 -286 390 -204 l 390 -329 l 388 -347 m 472 453 q 592 528 538 482 q 694 638 646 575 q 754 799 754 714 q 752 828 754 813 q 744 858 750 844 q 726 882 738 872 q 697 892 715 892 q 660 863 682 892 q 613 790 638 835 q 565 693 589 746 q 522 592 542 640 q 488 505 501 543 q 472 453 475 467 z "},"Z":{"ha":897,"x_min":31,"x_max":869,"o":"m 539 36 q 395 20 465 29 q 256 11 325 11 q 128 19 194 11 q 63 56 86 28 q 39 117 39 83 q 69 189 39 154 q 190 329 125 261 q 322 466 256 397 q 449 606 388 535 q 561 756 511 676 q 492 739 528 744 q 428 733 457 733 q 308 742 376 733 q 178 774 240 751 q 74 833 117 796 q 31 928 31 871 q 33 953 31 939 q 39 983 35 968 q 146 972 94 981 q 245 953 197 963 q 340 938 293 944 q 433 931 386 931 q 543 941 488 931 q 661 983 599 951 q 684 991 672 988 q 708 994 696 994 q 772 972 744 994 q 803 908 799 949 l 808 856 q 751 669 796 754 q 644 507 707 583 q 508 360 582 431 q 361 222 433 290 q 529 241 447 229 q 697 253 611 253 q 733 253 717 253 q 772 250 751 253 q 846 217 822 247 q 869 150 869 188 q 844 80 869 113 q 764 47 818 47 l 758 47 q 728 50 743 50 q 697 50 713 50 q 619 45 657 50 q 539 36 581 40 z "},"z":{"ha":897,"x_min":31,"x_max":869,"o":"m 539 36 q 395 20 465 29 q 256 11 325 11 q 128 19 194 11 q 63 56 86 28 q 39 117 39 83 q 69 189 39 154 q 190 329 125 261 q 322 466 256 397 q 449 606 388 535 q 561 756 511 676 q 492 739 528 744 q 428 733 457 733 q 308 742 376 733 q 178 774 240 751 q 74 833 117 796 q 31 928 31 871 q 33 953 31 939 q 39 983 35 968 q 146 972 94 981 q 245 953 197 963 q 340 938 293 944 q 433 931 386 931 q 543 941 488 931 q 661 983 599 951 q 684 991 672 988 q 708 994 696 994 q 772 972 744 994 q 803 908 799 949 l 808 856 q 751 669 796 754 q 644 507 707 583 q 508 360 582 431 q 361 222 433 290 q 529 241 447 229 q 697 253 611 253 q 733 253 717 253 q 772 250 751 253 q 846 217 822 247 q 869 150 869 188 q 844 80 869 113 q 764 47 818 47 l 758 47 q 728 50 743 50 q 697 50 713 50 q 619 45 657 50 q 539 36 581 40 z "},"~":{"ha":717,"x_min":26,"x_max":692,"o":"m 683 490 q 637 428 657 453 q 606 392 617 403 q 504 357 571 357 q 328 408 425 357 l 329 408 q 256 442 285 431 q 214 454 228 454 q 164 426 185 454 q 119 343 143 399 q 51 401 76 372 q 26 461 26 429 q 107 581 64 536 q 221 626 150 626 q 383 564 276 626 l 382 564 q 497 511 475 511 q 522 516 508 511 q 549 528 536 521 q 570 544 561 535 q 579 563 579 554 l 575 571 q 566 590 572 578 q 549 626 560 603 q 601 606 575 618 q 647 579 628 593 q 679 549 667 565 q 692 517 692 533 l 690 510 l 683 490 z "},"…":{"ha":919,"x_min":31,"x_max":882,"o":"m 156 181 q 201 171 179 181 q 239 144 222 161 q 265 106 256 128 q 275 58 275 83 q 265 13 275 35 q 240 -25 256 -8 q 202 -51 224 -42 q 158 -61 181 -61 q 110 -53 133 -61 q 69 -30 88 -44 q 41 6 51 -15 q 31 50 31 26 q 65 144 31 107 q 156 181 99 181 m 458 181 q 503 171 482 181 q 542 144 525 161 q 568 106 558 128 q 578 58 578 83 q 568 13 578 35 q 542 -25 558 -8 q 505 -51 526 -42 q 461 -61 483 -61 q 413 -53 436 -61 q 372 -30 390 -44 q 344 6 354 -15 q 333 50 333 26 q 367 144 333 107 q 458 181 401 181 m 763 181 q 808 171 786 181 q 846 144 829 161 q 872 106 863 128 q 882 58 882 83 q 872 13 882 35 q 847 -25 863 -8 q 809 -51 831 -42 q 765 -61 788 -61 q 717 -53 740 -61 q 676 -30 694 -44 q 648 6 658 -15 q 638 50 638 26 q 672 144 638 107 q 763 181 706 181 z "},"ˆ":{"ha":488,"x_min":26,"x_max":463,"o":"m 264 1038 q 256 1044 260 1040 q 247 1050 251 1047 q 201 1008 228 1026 q 159 986 178 993 q 110 979 140 979 q 75 988 90 979 q 49 1012 60 997 q 33 1044 39 1026 q 26 1076 26 1061 q 32 1101 26 1088 q 53 1136 38 1114 q 83 1123 75 1125 q 97 1121 90 1121 q 127 1132 115 1121 q 153 1163 139 1143 q 167 1185 163 1174 q 179 1219 171 1196 q 208 1265 185 1247 q 254 1282 231 1282 q 296 1270 276 1282 q 324 1233 315 1258 q 328 1220 326 1226 q 332 1206 331 1214 l 331 1208 q 338 1181 333 1194 q 354 1151 343 1167 q 373 1141 357 1146 q 403 1136 389 1136 q 448 1115 433 1136 q 463 1068 463 1094 q 459 1042 463 1056 q 448 1016 456 1028 q 429 997 440 1004 q 403 989 418 989 q 331 1002 369 989 q 271 1032 293 1015 q 264 1038 267 1036 z "},"‘":{"ha":467,"x_min":68,"x_max":407,"o":"m 382 951 q 320 941 350 951 q 266 912 290 931 q 227 866 242 893 q 213 807 213 839 q 222 775 213 786 q 243 760 231 764 q 265 771 258 760 q 318 793 288 793 q 349 786 333 793 q 378 769 365 779 q 399 744 390 758 q 407 715 407 729 q 402 656 407 686 q 381 601 397 626 q 333 561 364 576 q 249 546 301 546 q 160 576 194 546 q 104 645 125 606 q 76 725 83 685 q 68 785 68 765 q 83 875 68 832 q 126 951 99 918 q 194 1004 154 985 q 282 1024 233 1024 q 350 1008 319 1024 q 396 951 381 992 l 382 951 z "},"“":{"ha":865,"x_min":68,"x_max":810,"o":"m 785 951 q 723 941 753 951 q 669 912 693 931 q 630 866 644 893 q 615 807 615 839 q 624 775 615 786 q 646 760 633 764 q 668 771 661 760 q 721 793 690 793 q 752 786 736 793 q 781 769 768 779 q 801 744 793 758 q 810 715 810 729 q 805 656 810 686 q 783 601 800 626 q 735 561 767 576 q 651 546 704 546 q 563 576 597 546 q 507 645 528 606 q 478 725 486 685 q 471 785 471 765 q 486 875 471 832 q 529 951 501 918 q 597 1004 557 985 q 685 1024 636 1024 q 753 1008 722 1024 q 799 951 783 992 l 785 951 m 382 951 q 320 941 350 951 q 266 912 290 931 q 227 866 242 893 q 213 807 213 839 q 222 775 213 786 q 243 760 231 764 q 265 771 258 760 q 318 793 288 793 q 349 786 333 793 q 378 769 365 779 q 399 744 390 758 q 407 715 407 729 q 402 656 407 686 q 381 601 397 626 q 333 561 364 576 q 249 546 301 546 q 160 576 194 546 q 104 645 125 606 q 76 725 83 685 q 68 785 68 765 q 83 875 68 832 q 126 951 99 918 q 194 1004 154 985 q 282 1024 233 1024 q 350 1008 319 1024 q 396 951 381 992 l 382 951 z "},"”":{"ha":865,"x_min":68,"x_max":810,"o":"m 93 618 q 154 628 124 618 q 209 658 185 639 q 248 703 233 676 q 263 763 263 731 q 253 794 263 783 q 232 810 244 806 q 210 799 217 810 q 157 776 188 776 q 126 783 142 776 q 97 801 110 790 q 76 825 85 811 q 68 854 68 839 q 73 913 68 883 q 94 968 78 943 q 142 1008 111 993 q 226 1024 174 1024 q 315 994 281 1024 q 371 924 350 964 q 399 844 392 885 q 407 785 407 804 q 392 694 407 738 q 349 618 376 651 q 281 565 321 585 q 193 546 242 546 q 125 562 156 546 q 79 618 94 578 l 93 618 m 496 618 q 557 628 526 618 q 612 658 588 639 q 651 703 636 676 q 665 763 665 731 q 656 794 665 783 q 635 810 647 806 q 613 799 619 810 q 560 776 590 776 q 528 783 544 776 q 500 801 513 790 q 479 825 488 811 q 471 854 471 839 q 476 913 471 883 q 497 968 481 943 q 545 1008 514 993 q 629 1024 576 1024 q 718 994 683 1024 q 774 924 753 964 q 802 844 794 885 q 810 785 810 804 q 794 694 810 738 q 751 618 779 651 q 684 565 724 585 q 596 546 644 546 q 528 562 558 546 q 482 618 497 578 l 496 618 z "},"•":{"ha":321,"x_min":28,"x_max":293,"o":"m 161 642 q 212 631 188 642 q 254 603 236 621 q 283 562 272 586 q 293 510 293 538 q 283 460 293 485 q 255 418 272 436 q 214 389 238 400 q 165 378 190 378 q 113 388 138 378 q 69 414 88 397 q 39 453 50 431 q 28 501 28 476 q 65 601 28 560 q 161 642 103 642 z "},"–":{"ha":735,"x_min":7,"x_max":729,"o":"m 114 472 q 115 462 114 467 q 117 457 115 457 q 210 441 164 446 q 300 436 256 436 q 340 437 318 436 q 397 440 363 438 q 481 444 431 442 q 608 453 532 447 q 636 455 622 454 q 665 457 650 456 q 690 455 678 457 q 714 443 703 453 q 725 417 721 432 q 729 386 729 401 q 718 328 729 358 q 679 286 707 297 q 624 292 653 290 q 575 294 594 294 q 426 285 503 290 q 278 279 350 279 q 183 284 231 279 q 86 303 135 289 q 25 340 43 315 q 7 392 7 365 q 36 446 7 422 q 114 472 65 469 z "},"—":{"ha":1093,"x_min":24,"x_max":1061,"o":"m 150 479 q 146 467 146 472 q 165 449 146 456 q 213 439 185 442 q 274 435 242 436 q 333 435 307 435 q 429 435 385 435 q 516 438 474 436 q 602 441 558 439 q 694 446 646 443 q 826 453 757 450 q 982 457 896 457 q 1010 456 997 457 q 1039 447 1024 454 q 1056 419 1050 436 q 1061 386 1061 403 q 1046 327 1061 357 q 999 286 1031 297 q 916 293 953 292 q 847 294 879 294 q 740 292 793 294 q 632 286 686 289 q 522 281 576 283 q 408 279 467 279 q 269 283 338 279 q 129 301 200 288 l 131 301 q 48 338 72 313 q 24 392 24 364 q 58 447 24 421 q 150 479 92 472 z "},"˜":{"ha":574,"x_min":15,"x_max":560,"o":"m 71 990 q 31 1029 47 1010 q 15 1076 15 1049 q 44 1166 25 1132 q 87 1219 63 1200 q 138 1244 111 1238 q 190 1250 165 1250 q 245 1234 217 1250 q 301 1199 274 1218 q 353 1165 328 1181 q 401 1149 379 1149 q 438 1156 421 1149 q 454 1182 454 1163 q 449 1215 454 1196 q 433 1250 443 1235 q 524 1213 489 1242 q 560 1143 560 1183 q 547 1078 560 1108 q 511 1027 533 1049 q 459 993 489 1006 q 394 981 429 981 q 343 996 371 981 q 287 1029 315 1011 q 232 1063 258 1047 q 183 1078 206 1078 q 147 1059 160 1078 q 121 1004 135 1040 l 71 990 z "},"™":{"ha":1107,"x_min":11,"x_max":1056,"o":"m 589 906 q 610 962 597 933 q 651 1010 624 990 q 681 1024 660 1015 q 711 1032 701 1032 q 740 1022 729 1032 q 758 994 751 1011 q 767 955 764 976 q 771 911 769 933 q 771 883 771 897 q 772 857 771 869 q 806 905 786 879 q 850 952 825 931 q 903 988 875 974 q 964 1001 932 1001 q 996 994 981 1001 q 1022 974 1011 986 q 1040 947 1033 961 q 1049 919 1047 932 q 1050 888 1049 910 q 1053 837 1051 867 q 1055 773 1054 807 q 1056 704 1056 739 q 1053 626 1056 664 q 1047 560 1051 589 q 1033 513 1042 531 q 1011 496 1025 496 q 966 513 983 496 q 940 553 949 531 q 927 601 931 576 q 922 638 924 625 q 922 665 922 647 q 920 706 921 683 q 919 750 919 728 q 919 794 919 774 q 919 824 919 814 q 918 842 918 835 q 919 851 918 849 q 890 808 904 835 q 864 748 876 781 q 840 682 851 715 q 819 619 829 649 l 801 569 q 783 553 797 558 q 754 547 768 547 q 709 586 728 547 q 678 678 690 625 q 660 785 667 731 q 653 872 654 840 q 623 832 636 856 q 599 788 610 808 q 578 726 585 758 q 571 626 571 693 l 571 617 q 561 537 571 569 q 506 503 551 504 q 474 513 486 503 q 453 550 461 522 q 446 584 449 561 q 441 633 443 607 q 438 685 439 660 q 436 725 436 710 q 440 812 436 769 q 450 886 443 854 q 460 927 456 907 q 471 963 464 947 q 491 988 478 979 q 528 997 504 997 q 556 989 544 997 q 573 969 567 981 q 582 943 579 957 q 588 918 585 929 l 589 906 m 261 425 q 240 411 249 414 q 213 408 232 408 q 168 426 189 408 q 138 460 147 444 q 118 528 122 488 q 114 604 114 569 q 124 746 114 683 q 149 854 133 808 q 46 919 81 885 q 11 996 11 953 q 13 1015 11 1004 q 20 1037 15 1026 q 33 1056 25 1047 q 51 1069 40 1065 q 72 1058 69 1069 q 75 1033 75 1046 q 92 1013 75 1022 q 131 994 108 1003 q 177 978 154 985 q 213 968 200 972 q 222 981 218 976 q 273 1026 242 1001 q 349 1050 304 1050 q 383 1047 364 1050 q 417 1031 401 1043 q 444 993 433 1018 q 456 926 456 968 q 437 872 456 893 q 391 840 418 851 q 335 825 364 829 q 286 821 306 821 q 263 703 271 758 q 256 585 256 647 q 257 541 256 564 q 261 497 258 518 q 264 465 263 481 q 265 435 265 450 l 261 425 m 368 978 q 340 973 354 978 q 319 956 325 968 l 325 956 q 353 962 339 956 q 368 976 368 968 l 368 978 z "}," ":{"ha":722,"x_min":0,"x_max":0,"o":""},"¡":{"ha":413,"x_min":103,"x_max":353,"o":"m 128 174 q 153 283 143 228 q 167 393 163 338 q 172 487 169 435 q 174 615 174 539 q 174 639 174 629 q 174 658 174 650 q 173 680 174 668 q 171 711 172 692 q 199 748 179 738 q 239 765 218 758 q 255 770 242 767 q 271 775 268 774 q 284 766 281 768 q 290 763 288 764 q 312 747 301 756 q 329 719 322 739 l 335 674 l 335 561 q 335 514 335 536 q 336 474 335 493 q 338 440 336 457 q 339 408 339 424 l 339 356 q 338 317 339 338 q 336 274 336 297 q 336 226 336 251 q 339 172 336 203 q 333 128 339 153 q 311 57 328 104 q 285 26 300 38 q 233 10 269 15 q 156 35 193 18 q 103 85 119 53 l 128 174 m 239 814 q 163 847 194 814 q 131 925 131 879 q 140 965 131 946 q 163 1001 149 985 q 197 1026 178 1017 q 238 1035 217 1035 q 281 1027 260 1035 q 317 1006 301 1019 q 343 972 333 992 q 353 931 353 953 q 322 847 353 881 q 239 814 290 814 z "},"¢":{"ha":928,"x_min":124,"x_max":735,"o":"m 703 338 q 726 311 717 326 q 735 274 735 296 q 718 230 735 249 q 674 199 701 211 q 610 179 646 186 q 538 168 575 172 q 538 135 538 153 q 540 90 539 118 q 515 40 532 54 q 479 18 499 26 q 465 12 476 17 q 451 6 454 7 q 440 17 443 15 q 435 22 438 19 q 415 40 424 29 q 400 79 407 51 l 396 139 l 396 164 q 190 237 257 169 q 124 431 124 304 q 142 553 124 492 q 195 668 160 614 q 281 765 231 722 q 397 833 332 808 q 397 866 397 849 q 396 911 396 883 q 419 960 403 946 q 456 983 436 975 q 469 990 458 985 q 483 996 481 994 q 494 984 492 986 q 500 979 497 982 q 519 960 511 971 q 535 922 528 949 l 540 863 q 551 863 546 863 q 563 864 556 864 q 599 863 578 864 q 640 858 619 863 q 677 845 660 854 q 703 821 694 836 q 715 800 710 808 q 722 785 719 792 q 726 772 725 779 q 728 754 728 765 q 725 728 728 742 q 717 694 722 714 q 682 683 699 688 q 649 678 665 678 q 546 739 589 678 l 540 738 l 540 597 q 542 553 540 575 q 543 511 543 532 q 539 419 540 468 q 538 303 538 369 q 586 319 561 310 q 640 338 611 328 l 703 338 m 392 490 q 394 578 393 531 q 397 689 396 626 q 349 644 372 672 q 309 583 326 617 q 281 508 292 549 q 271 425 271 468 q 297 335 271 372 q 396 288 324 299 l 396 289 q 396 349 396 321 q 394 404 396 378 q 393 448 394 426 q 392 490 392 469 z "},"£":{"ha":774,"x_min":29,"x_max":740,"o":"m 647 -79 q 607 -73 635 -79 q 557 -53 579 -67 q 497 -11 528 -36 q 435 40 465 14 q 394 72 411 60 q 357 100 378 85 q 277 4 326 38 q 165 -29 228 -29 q 115 -19 140 -29 q 72 10 90 -8 q 41 56 53 29 q 29 113 29 82 q 45 183 29 149 q 85 242 61 217 q 139 284 110 268 q 196 300 168 300 q 244 298 226 300 q 281 290 263 296 q 294 349 289 318 q 307 413 300 381 l 299 413 q 258 415 279 413 q 201 428 238 418 q 141 466 160 442 q 122 518 122 490 q 142 572 122 547 q 196 597 161 596 q 263 578 225 589 q 321 569 300 567 l 321 574 q 326 694 328 632 q 321 818 324 757 q 324 895 321 860 q 339 951 328 931 q 370 995 354 979 q 404 1019 386 1011 q 442 1030 422 1028 q 482 1032 461 1032 q 514 1027 493 1032 q 557 1015 535 1022 q 599 1001 579 1008 q 628 989 619 993 q 657 964 642 981 q 684 928 672 947 q 703 888 696 908 q 711 853 711 868 q 667 790 711 824 q 640 813 657 800 q 606 837 624 825 q 572 856 589 849 q 546 864 556 864 q 517 858 528 864 q 501 836 507 853 q 493 790 496 819 q 489 713 490 760 q 483 648 486 681 q 476 583 481 615 q 536 590 504 588 q 613 593 568 592 l 631 596 q 655 592 642 596 q 679 579 668 589 q 696 519 696 556 q 683 462 696 492 q 647 422 671 432 q 590 427 615 425 q 550 429 565 429 q 504 427 522 429 q 461 422 486 425 q 442 332 450 376 q 418 239 433 288 q 583 144 500 197 q 728 10 667 90 q 740 -26 740 -8 q 712 -69 740 -58 q 647 -79 683 -79 m 171 104 q 205 116 186 104 q 238 163 224 128 q 222 167 229 167 q 207 168 214 168 q 181 156 194 168 q 168 121 168 143 q 171 104 168 104 z "},"¤":{"ha":681,"x_min":56,"x_max":621,"o":"m 110 332 q 86 450 86 383 q 92 510 86 476 q 114 579 97 544 q 77 613 93 593 q 61 665 61 633 q 82 715 61 697 q 128 732 103 732 q 150 725 142 732 q 167 707 158 718 q 184 689 174 697 q 206 676 194 681 q 251 696 225 688 q 306 707 278 704 q 347 719 325 717 q 385 721 369 721 q 485 686 438 721 q 506 700 499 692 q 518 717 513 708 q 531 731 524 725 q 554 736 538 736 q 601 718 581 736 q 621 671 621 700 q 614 642 621 658 q 590 609 603 618 q 563 589 578 600 q 587 521 578 557 q 596 450 596 485 q 568 339 596 390 q 582 323 575 331 q 596 308 589 315 q 617 261 617 285 q 610 237 617 249 q 592 216 603 225 q 568 201 581 207 q 543 196 556 196 q 507 215 522 196 q 476 246 492 233 q 412 216 444 225 q 343 207 379 207 q 264 214 299 207 q 201 236 229 221 q 167 208 185 224 q 126 193 149 193 q 72 208 89 193 q 56 242 56 222 q 62 270 56 251 q 75 300 68 289 q 110 332 86 318 m 243 504 l 250 568 q 218 530 231 553 q 206 464 206 507 q 240 366 206 404 q 336 328 275 328 q 377 336 356 328 q 419 360 399 344 q 442 378 425 372 q 481 468 481 417 q 473 517 481 493 q 454 558 465 540 q 432 585 442 567 q 385 606 408 606 q 370 603 375 606 q 364 600 365 601 l 243 504 z "},"§":{"ha":736,"x_min":44,"x_max":681,"o":"m 239 139 q 247 132 243 136 q 251 121 251 128 q 240 94 251 110 q 217 71 229 78 q 226 69 215 71 q 254 65 238 67 q 292 63 271 64 q 332 61 313 61 q 437 76 393 63 q 481 118 481 89 q 464 160 481 144 q 420 188 447 176 q 358 208 393 200 q 289 225 324 215 q 201 253 244 236 q 123 292 158 269 q 66 347 88 315 q 44 421 44 379 q 56 481 44 450 q 85 542 67 511 q 129 599 104 572 q 182 646 154 625 q 94 793 94 706 q 122 876 94 840 q 194 935 150 911 q 292 972 238 960 q 401 985 347 985 q 524 972 475 985 q 603 939 574 960 q 644 889 632 918 q 657 826 657 860 q 649 793 657 807 q 630 769 642 779 q 604 755 618 760 q 578 750 590 750 q 549 763 563 750 q 521 797 535 775 q 493 819 513 810 q 449 837 474 829 q 400 849 425 844 q 358 853 375 853 q 331 849 347 853 q 298 840 314 846 q 270 824 282 833 q 258 804 258 815 q 267 786 258 793 q 293 767 276 778 q 350 740 310 756 q 436 707 394 724 q 517 674 478 690 l 515 674 q 644 595 607 639 q 681 493 681 551 q 651 391 681 443 q 567 281 621 339 q 649 151 649 232 q 624 55 649 97 q 556 -17 599 13 q 455 -62 513 -47 q 333 -78 397 -78 q 265 -72 311 -78 q 171 -52 218 -65 q 88 -18 124 -39 q 53 32 53 3 q 67 81 53 58 q 113 118 82 103 q 161 138 142 133 q 213 147 181 142 l 239 139 m 519 476 q 501 514 519 496 q 440 547 483 532 l 340 585 q 298 556 321 574 q 256 519 275 539 q 225 477 238 499 q 213 438 213 456 q 227 408 213 424 q 268 379 242 393 q 333 353 294 365 q 418 335 371 342 l 431 347 q 491 414 463 379 q 519 476 519 449 z "},"¨":{"ha":658,"x_min":40,"x_max":586,"o":"m 472 1174 q 515 1165 494 1174 q 552 1140 536 1156 q 577 1103 568 1124 q 586 1058 586 1082 q 577 1016 586 1036 q 553 980 568 996 q 517 954 538 964 q 476 944 497 944 q 431 952 453 944 q 392 974 408 960 q 365 1008 375 989 q 354 1050 354 1026 q 387 1138 354 1103 q 472 1174 419 1174 m 158 1174 q 201 1165 181 1174 q 238 1140 222 1156 q 263 1103 254 1124 q 272 1058 272 1082 q 263 1016 272 1036 q 239 980 254 996 q 203 954 224 964 q 161 944 183 944 q 116 952 138 944 q 78 974 94 960 q 51 1008 61 989 q 40 1050 40 1026 q 73 1138 40 1103 q 158 1174 106 1174 z "},"©":{"ha":933,"x_min":26,"x_max":906,"o":"m 26 524 q 65 701 26 618 q 167 844 103 783 q 318 941 232 906 q 499 976 404 976 q 658 940 583 976 q 787 845 732 904 q 874 709 842 786 q 906 550 906 632 q 872 378 906 460 q 778 233 838 296 q 639 134 719 171 q 467 97 558 97 q 303 131 382 97 q 162 224 224 165 q 63 359 100 282 q 26 524 26 436 m 117 563 q 145 428 117 492 q 222 317 174 365 q 333 242 269 269 q 467 214 396 214 q 601 243 539 214 q 707 322 663 272 q 777 435 751 371 q 803 569 803 499 q 774 703 803 647 q 686 808 744 760 q 660 826 676 815 q 626 848 643 838 q 597 866 610 858 q 582 874 585 874 l 569 874 q 602 853 586 863 q 631 832 618 843 q 651 805 643 821 q 658 764 658 789 q 545 830 614 813 q 408 847 476 847 q 358 838 379 847 q 311 821 338 828 q 307 824 307 821 q 310 832 307 826 q 315 844 314 838 l 306 844 q 228 813 263 844 q 168 738 193 782 q 130 644 143 693 q 117 563 117 596 m 621 415 q 637 397 631 408 q 643 371 643 386 q 620 331 643 346 q 564 307 597 315 q 493 297 531 299 q 425 294 456 294 q 360 313 396 294 q 294 364 325 332 q 242 437 263 396 q 221 522 221 478 q 242 625 221 578 q 301 708 263 672 q 397 763 340 743 q 524 783 453 783 q 549 783 535 783 q 578 779 564 782 q 603 770 592 776 q 621 753 615 764 q 634 728 631 735 q 638 707 638 722 q 635 688 638 697 q 631 665 633 678 q 606 656 618 660 q 583 653 594 653 q 513 696 542 653 l 443 678 q 401 661 422 672 q 362 631 379 650 q 333 583 344 611 q 322 518 322 556 q 334 468 322 493 q 365 424 346 443 q 405 392 383 404 q 447 379 426 379 q 506 391 474 379 q 578 415 538 403 l 621 415 z "},"®":{"ha":933,"x_min":26,"x_max":906,"o":"m 26 524 q 65 701 26 618 q 167 844 103 783 q 318 941 232 906 q 499 976 404 976 q 658 940 583 976 q 787 845 732 904 q 874 709 842 786 q 906 550 906 632 q 872 378 906 460 q 778 233 838 296 q 639 134 719 171 q 467 97 558 97 q 303 131 382 97 q 162 224 224 165 q 63 359 100 282 q 26 524 26 436 m 117 563 q 145 428 117 492 q 222 317 174 365 q 333 242 269 269 q 467 214 396 214 q 601 243 539 214 q 707 322 663 272 q 777 435 751 371 q 803 569 803 499 q 774 703 803 647 q 686 808 744 760 q 660 826 676 815 q 626 848 643 838 q 597 866 610 858 q 582 874 585 874 l 569 874 q 598 858 583 867 q 624 838 613 850 q 644 808 636 825 q 651 765 651 790 q 603 806 631 790 q 543 831 575 822 q 476 844 511 840 q 408 847 442 847 q 358 838 379 847 q 311 821 338 828 q 307 824 307 821 q 310 832 307 826 q 315 844 314 838 l 306 844 q 228 813 263 844 q 168 738 193 782 q 130 644 143 693 q 117 563 117 596 m 322 294 q 317 491 318 393 q 317 689 317 589 q 314 688 315 688 q 311 686 313 686 q 292 676 296 679 q 287 670 289 672 q 280 667 285 668 q 260 667 275 667 q 217 701 217 667 q 221 714 217 710 l 264 742 q 315 768 294 757 q 357 786 336 779 q 401 797 378 793 q 460 800 425 800 q 512 794 481 800 q 572 776 543 789 q 622 744 601 764 q 643 697 643 725 q 640 661 643 686 q 621 615 638 636 q 573 567 600 588 q 519 524 546 547 q 578 465 554 492 q 625 410 603 439 q 636 394 628 407 q 649 375 644 382 q 658 351 653 365 q 664 326 664 338 q 658 316 664 318 q 644 314 651 314 q 610 323 629 314 q 579 346 590 332 l 479 456 q 445 474 467 468 q 408 481 424 479 l 407 481 q 401 476 403 481 q 400 469 400 472 l 400 371 q 399 342 400 357 q 392 313 397 326 q 375 292 386 300 q 346 283 364 283 q 322 294 329 283 m 407 556 q 450 574 426 561 q 494 603 474 586 q 527 642 514 621 q 540 689 540 664 q 526 719 540 711 q 492 726 511 726 q 475 726 483 726 q 457 722 467 725 q 442 719 451 721 q 425 715 433 717 q 410 710 417 713 q 403 708 404 708 l 400 707 l 400 588 q 401 572 400 585 q 403 556 401 558 l 407 556 z "},"¯":{"ha":467,"x_min":43,"x_max":410,"o":"m 382 1131 q 392 1132 385 1132 q 406 1126 401 1132 q 410 1093 410 1115 q 407 1055 410 1074 q 397 1031 404 1036 q 376 1032 386 1032 q 358 1032 368 1032 q 267 1027 311 1032 q 171 1022 222 1022 q 126 1024 149 1022 q 78 1029 103 1025 q 51 1047 58 1032 q 43 1079 43 1061 q 49 1110 43 1096 q 65 1129 56 1125 q 86 1119 67 1121 q 167 1115 129 1115 q 271 1121 221 1115 q 382 1131 321 1126 z "},"´":{"ha":417,"x_min":26,"x_max":383,"o":"m 65 1085 q 90 1093 78 1085 q 121 1119 101 1101 q 198 1181 165 1160 q 253 1213 231 1203 q 288 1226 275 1224 q 304 1228 300 1228 q 364 1199 344 1228 q 383 1142 383 1171 q 368 1094 383 1114 q 325 1074 353 1074 q 278 1060 304 1074 q 222 1030 251 1047 q 164 996 193 1013 q 107 974 135 979 q 69 984 83 974 q 46 1010 54 994 q 33 1046 38 1026 q 26 1085 29 1065 l 65 1085 z "},"·":{"ha":251,"x_min":15,"x_max":236,"o":"m 126 619 q 203 588 171 619 q 236 510 236 556 q 204 433 236 467 q 129 400 172 400 q 49 430 83 400 q 15 503 15 460 q 47 585 15 551 q 126 619 78 619 z "},"⋅":{"ha":251,"x_min":15,"x_max":236,"o":"m 126 619 q 203 588 171 619 q 236 510 236 556 q 204 433 236 467 q 129 400 172 400 q 49 430 83 400 q 15 503 15 460 q 47 585 15 551 q 126 619 78 619 z "},"¸":{"ha":238,"x_min":-37,"x_max":239,"o":"m 89 74 q 122 79 100 79 q 177 66 150 79 q 208 25 204 53 q 195 -7 203 6 q 179 -31 188 -19 q 221 -95 203 -60 q 239 -171 239 -131 q 238 -186 239 -179 q 235 -204 238 -193 l 236 -203 q 192 -271 225 -250 q 119 -292 160 -292 q 48 -285 88 -292 q -15 -254 8 -278 q -33 -228 -28 -242 q -37 -200 -37 -214 q -14 -150 -37 -175 q 42 -110 10 -125 q 63 -153 46 -147 q 94 -160 79 -160 l 99 -160 q 81 -128 96 -144 q 51 -97 67 -111 l 36 -82 q 15 -35 15 -61 q 36 14 15 -6 q 58 37 50 28 q 76 61 67 46 l 89 74 z "},"¿":{"ha":703,"x_min":24,"x_max":672,"o":"m 453 201 q 529 221 496 221 q 588 208 561 221 q 633 174 614 194 q 662 129 651 153 q 672 85 672 106 q 641 1 672 38 q 562 -62 610 -36 q 456 -101 514 -87 q 344 -114 399 -114 q 226 -94 283 -114 q 124 -37 168 -74 q 51 49 79 0 q 24 157 24 99 q 42 242 24 203 q 90 319 61 282 q 153 390 119 356 q 217 461 188 425 q 268 535 247 497 q 293 617 289 574 q 253 651 293 651 l 214 651 l 203 725 l 232 763 l 253 769 q 280 776 268 775 q 299 778 292 778 q 364 767 329 778 q 427 736 399 757 q 474 685 456 715 q 493 617 493 656 q 473 519 493 567 q 424 429 453 472 q 359 347 394 386 q 294 273 324 308 q 245 207 265 238 q 225 151 225 176 q 231 124 225 139 q 249 96 236 108 q 283 74 263 83 q 333 65 304 65 q 369 66 340 65 q 428 70 397 67 q 483 79 458 74 q 507 93 507 85 q 494 117 507 106 q 453 143 482 128 l 453 201 m 335 864 q 291 873 311 864 q 255 898 271 882 q 230 934 239 914 q 221 978 221 954 q 230 1019 221 999 q 255 1055 239 1039 q 291 1080 271 1071 q 333 1089 311 1089 q 377 1081 356 1089 q 415 1059 399 1074 q 442 1025 432 1044 q 451 983 451 1006 q 419 899 451 933 q 335 864 388 864 z "},"!":{"ha":413,"x_min":103,"x_max":353,"o":"m 328 871 q 290 651 297 763 q 285 558 288 610 q 282 429 282 506 q 282 404 282 414 q 282 385 282 394 q 283 364 282 376 q 285 333 283 351 q 257 297 276 307 q 217 279 238 286 q 176 280 183 279 q 165 282 168 281 q 144 297 154 289 q 126 325 133 306 l 121 371 l 121 483 q 120 530 121 508 q 117 571 119 551 l 117 689 q 118 727 117 707 q 119 771 119 747 q 119 817 119 793 q 117 872 119 842 q 122 916 117 892 q 144 988 128 940 q 171 1018 156 1007 q 222 1035 186 1029 q 299 1009 263 1026 q 353 960 336 992 l 328 871 m 217 231 q 293 198 261 231 q 325 119 325 165 q 316 79 325 99 q 292 44 307 60 q 258 19 278 28 q 218 10 239 10 q 175 17 196 10 q 138 39 154 25 q 113 72 122 53 q 103 114 103 92 q 134 197 103 164 q 217 231 165 231 z "},"\"":{"ha":561,"x_min":36,"x_max":511,"o":"m 247 1040 q 232 935 239 979 q 216 845 225 890 q 194 745 207 800 q 158 610 181 690 q 133 601 146 601 q 108 610 121 601 q 89 638 96 618 l 36 1040 q 58 1076 44 1063 q 85 1095 71 1089 q 116 1103 100 1101 q 147 1104 132 1104 q 173 1101 157 1104 q 204 1091 189 1099 q 232 1071 219 1083 q 247 1040 244 1058 m 511 1040 q 496 935 503 979 q 480 845 489 890 q 458 745 471 800 q 422 610 444 690 q 397 601 410 601 q 372 610 385 601 q 353 638 360 618 l 300 1040 q 322 1076 308 1063 q 349 1095 335 1089 q 380 1103 364 1101 q 411 1104 396 1104 q 437 1101 421 1104 q 468 1091 453 1099 q 496 1071 483 1083 q 511 1040 508 1058 z "},"B":{"ha":1014,"x_min":69,"x_max":944,"o":"m 178 28 q 160 169 165 101 q 156 311 156 236 q 156 358 156 335 q 158 411 156 383 q 165 487 158 443 q 181 577 171 531 q 204 669 192 624 q 231 753 217 715 q 169 734 199 740 q 119 728 140 728 q 69 767 97 728 q 84 801 74 788 q 106 831 94 815 q 209 911 149 882 q 334 955 269 940 q 463 972 399 969 q 575 975 526 975 q 685 955 633 975 q 775 900 736 935 q 836 819 814 865 q 858 719 858 772 q 841 653 858 688 q 778 581 824 618 q 898 508 851 564 q 944 369 944 453 q 916 199 944 271 q 837 81 888 128 q 717 12 786 35 q 567 -11 647 -11 q 506 -8 536 -8 q 444 -6 475 -7 q 383 -2 413 -6 q 325 11 353 1 q 285 1 308 4 q 242 -3 263 -3 q 202 3 218 -3 q 178 25 186 8 l 178 28 m 542 436 q 435 431 485 436 q 367 419 386 426 l 353 200 q 394 235 369 218 q 450 267 419 253 q 515 289 481 281 q 583 297 549 297 l 625 294 l 625 281 q 606 252 625 265 q 561 222 586 239 q 515 198 538 210 q 486 175 493 186 q 583 182 535 175 q 671 208 632 189 q 734 263 710 228 q 758 356 758 299 q 740 395 758 379 q 690 420 721 411 q 619 433 658 429 q 542 436 581 436 m 539 808 q 417 792 483 808 q 410 764 414 776 q 403 736 407 751 q 385 667 394 703 q 372 589 376 631 q 466 604 415 594 q 560 629 517 614 q 634 666 604 644 q 664 719 664 688 q 661 756 664 740 q 648 783 658 772 q 618 801 638 794 q 567 808 599 807 l 539 808 z "},"b":{"ha":1014,"x_min":69,"x_max":944,"o":"m 178 28 q 160 169 165 101 q 156 311 156 236 q 156 358 156 335 q 158 411 156 383 q 165 487 158 443 q 181 577 171 531 q 204 669 192 624 q 231 753 217 715 q 169 734 199 740 q 119 728 140 728 q 69 767 97 728 q 84 801 74 788 q 106 831 94 815 q 209 911 149 882 q 334 955 269 940 q 463 972 399 969 q 575 975 526 975 q 685 955 633 975 q 775 900 736 935 q 836 819 814 865 q 858 719 858 772 q 841 653 858 688 q 778 581 824 618 q 898 508 851 564 q 944 369 944 453 q 916 199 944 271 q 837 81 888 128 q 717 12 786 35 q 567 -11 647 -11 q 506 -8 536 -8 q 444 -6 475 -7 q 383 -2 413 -6 q 325 11 353 1 q 285 1 308 4 q 242 -3 263 -3 q 202 3 218 -3 q 178 25 186 8 l 178 28 m 542 436 q 435 431 485 436 q 367 419 386 426 l 353 200 q 394 235 369 218 q 450 267 419 253 q 515 289 481 281 q 583 297 549 297 l 625 294 l 625 281 q 606 252 625 265 q 561 222 586 239 q 515 198 538 210 q 486 175 493 186 q 583 182 535 175 q 671 208 632 189 q 734 263 710 228 q 758 356 758 299 q 740 395 758 379 q 690 420 721 411 q 619 433 658 429 q 542 436 581 436 m 539 808 q 417 792 483 808 q 410 764 414 776 q 403 736 407 751 q 385 667 394 703 q 372 589 376 631 q 466 604 415 594 q 560 629 517 614 q 634 666 604 644 q 664 719 664 688 q 661 756 664 740 q 648 783 658 772 q 618 801 638 794 q 567 808 599 807 l 539 808 z "},"R":{"ha":882,"x_min":36,"x_max":817,"o":"m 664 -17 q 630 20 661 -12 q 556 99 599 53 q 467 196 513 144 q 388 289 421 247 q 319 294 349 290 q 261 314 289 299 q 256 251 258 286 q 251 182 253 217 q 246 115 249 147 q 242 58 243 83 q 218 8 239 25 q 169 -8 197 -8 q 122 1 146 -8 q 80 28 99 11 q 49 70 61 46 q 36 125 36 94 q 65 467 36 303 q 149 803 94 632 q 118 797 132 800 q 94 794 104 794 q 52 825 65 810 q 39 856 39 840 q 78 904 39 881 q 171 947 118 928 q 277 977 224 965 q 358 989 331 989 q 571 968 483 989 q 713 902 658 947 q 792 786 767 857 q 817 614 817 715 q 797 519 817 564 q 745 438 778 475 q 670 373 713 401 q 583 325 628 344 q 659 267 618 306 q 735 189 700 229 q 794 115 771 149 q 817 69 817 81 q 802 31 817 49 q 767 0 788 13 q 726 -20 747 -12 q 692 -28 706 -28 q 664 -17 675 -28 m 339 828 q 319 742 328 782 q 304 660 311 701 q 291 576 297 619 q 279 479 285 532 q 337 474 304 475 q 406 474 369 474 q 468 479 432 474 q 538 501 504 485 q 594 546 571 517 q 617 622 617 575 q 592 738 617 697 q 526 799 567 779 q 437 824 486 819 q 339 831 388 828 l 339 828 z "},"r":{"ha":882,"x_min":36,"x_max":817,"o":"m 664 -17 q 630 20 661 -12 q 556 99 599 53 q 467 196 513 144 q 388 289 421 247 q 319 294 349 290 q 261 314 289 299 q 256 251 258 286 q 251 182 253 217 q 246 115 249 147 q 242 58 243 83 q 218 8 239 25 q 169 -8 197 -8 q 122 1 146 -8 q 80 28 99 11 q 49 70 61 46 q 36 125 36 94 q 65 467 36 303 q 149 803 94 632 q 118 797 132 800 q 94 794 104 794 q 52 825 65 810 q 39 856 39 840 q 78 904 39 881 q 171 947 118 928 q 277 977 224 965 q 358 989 331 989 q 571 968 483 989 q 713 902 658 947 q 792 786 767 857 q 817 614 817 715 q 797 519 817 564 q 745 438 778 475 q 670 373 713 401 q 583 325 628 344 q 659 267 618 306 q 735 189 700 229 q 794 115 771 149 q 817 69 817 81 q 802 31 817 49 q 767 0 788 13 q 726 -20 747 -12 q 692 -28 706 -28 q 664 -17 675 -28 m 339 828 q 319 742 328 782 q 304 660 311 701 q 291 576 297 619 q 279 479 285 532 q 337 474 304 475 q 406 474 369 474 q 468 479 432 474 q 538 501 504 485 q 594 546 571 517 q 617 622 617 575 q 592 738 617 697 q 526 799 567 779 q 437 824 486 819 q 339 831 388 828 l 339 828 z "},"’":{"ha":449,"x_min":68,"x_max":407,"o":"m 93 618 q 154 628 124 618 q 209 658 185 639 q 248 703 233 676 q 263 763 263 731 q 253 794 263 783 q 232 810 244 806 q 210 799 217 810 q 157 776 188 776 q 126 783 142 776 q 97 801 110 790 q 76 825 85 811 q 68 854 68 839 q 73 913 68 883 q 94 968 78 943 q 142 1008 111 993 q 226 1024 174 1024 q 315 994 281 1024 q 371 924 350 964 q 399 844 392 885 q 407 785 407 804 q 392 694 407 738 q 349 618 376 651 q 281 565 321 585 q 193 546 242 546 q 125 562 156 546 q 79 618 94 578 l 93 618 z "},"&":{"ha":969,"x_min":29,"x_max":935,"o":"m 743 -101 q 715 -120 726 -115 q 678 -125 703 -125 q 647 -119 663 -125 q 619 -103 632 -112 q 594 -83 606 -93 q 578 -64 583 -72 q 560 -27 567 -47 q 551 14 554 -7 q 376 -17 469 -17 q 227 5 292 -17 q 119 66 163 26 q 52 161 75 106 q 29 285 29 217 q 50 404 29 349 q 106 504 71 460 q 63 657 63 571 q 95 779 63 722 q 180 878 128 836 q 295 944 232 919 q 419 968 358 968 q 524 952 482 968 q 592 911 567 936 q 627 856 617 886 q 638 800 638 826 q 630 767 638 785 q 603 736 622 750 q 581 725 594 731 q 549 713 568 719 q 500 699 529 707 q 431 683 471 692 l 496 811 q 483 804 492 807 q 464 800 474 801 q 446 799 454 799 q 438 799 439 799 q 368 788 401 799 q 310 758 335 776 q 269 712 285 739 q 254 654 254 685 q 255 634 254 643 q 257 614 256 625 q 301 626 279 621 q 347 631 324 631 q 449 606 411 631 q 503 554 486 582 q 517 567 510 561 q 535 576 524 572 q 568 571 556 576 q 587 557 581 565 q 594 538 593 549 q 596 515 596 526 q 629 495 613 501 q 667 485 646 489 q 720 533 688 508 q 803 558 753 558 q 845 554 822 558 q 888 535 868 550 q 922 490 908 519 q 935 411 935 461 q 918 352 935 375 q 877 315 901 329 q 824 293 853 300 q 771 285 796 286 q 758 177 760 232 q 756 71 756 122 q 756 -1 756 33 q 757 -67 757 -35 l 743 -101 m 335 392 q 240 404 283 392 q 219 288 219 354 q 233 238 219 261 q 269 197 247 214 q 321 169 292 179 q 381 158 350 158 q 446 167 413 158 q 506 194 479 175 q 551 242 533 213 q 568 315 568 272 l 576 315 l 581 326 q 514 372 538 347 q 479 425 490 397 q 420 399 457 406 q 335 392 383 392 z "},"œ":{"ha":1504,"x_min":28,"x_max":1483,"o":"m 133 108 q 52 292 76 203 q 28 464 28 381 q 72 670 28 575 q 190 834 117 765 q 360 942 264 903 q 561 981 457 981 q 708 957 653 981 q 775 913 763 933 q 781 913 778 913 q 786 914 783 914 q 876 924 829 915 q 980 944 924 933 q 1104 962 1036 954 q 1258 969 1172 969 q 1303 966 1278 969 q 1375 950 1329 963 q 1404 923 1386 939 q 1440 888 1422 907 q 1471 850 1458 869 q 1483 813 1483 831 q 1469 792 1483 801 q 1432 774 1454 782 q 1385 760 1410 765 q 1342 753 1361 754 q 1268 749 1297 750 q 1215 747 1239 747 q 1169 746 1192 746 q 1121 744 1149 746 q 1100 744 1110 744 q 1081 742 1090 744 q 1067 717 1075 735 q 1060 667 1060 699 q 1064 625 1060 647 q 1072 607 1065 617 q 1093 597 1078 597 l 1299 597 l 1338 592 q 1356 553 1350 576 q 1365 511 1363 531 q 1367 489 1367 504 q 1363 460 1367 474 q 1344 444 1358 446 q 1294 442 1326 443 q 1222 439 1263 440 q 1132 437 1181 438 q 1032 436 1083 436 q 1024 435 1028 436 q 1017 425 1019 433 q 990 340 1006 388 q 975 247 975 292 q 976 226 975 233 q 985 207 978 215 q 1007 199 992 199 q 1074 213 1032 199 q 1164 244 1115 226 q 1264 275 1213 261 q 1360 289 1315 289 q 1385 281 1372 289 q 1410 261 1399 274 q 1430 234 1422 249 q 1440 206 1438 219 q 1442 190 1442 200 q 1431 164 1442 171 q 1365 110 1406 142 q 1274 48 1325 78 q 1160 -3 1222 18 q 1029 -25 1097 -25 q 935 -8 978 -25 q 860 37 892 8 q 806 103 828 65 q 776 182 785 140 q 549 58 675 103 q 294 8 422 14 q 264 -37 286 -17 q 217 -81 242 -57 q 154 22 175 -26 q 133 103 133 69 l 133 108 m 728 697 q 625 665 672 697 q 536 574 578 633 q 456 431 494 515 q 378 244 417 347 l 414 244 q 496 258 450 244 q 589 295 542 271 q 681 353 636 319 q 761 428 726 388 q 817 514 796 468 q 839 608 839 560 q 808 675 839 653 q 728 697 778 697 m 599 846 q 626 853 613 850 q 653 860 639 857 q 586 846 619 854 q 525 828 553 838 q 374 763 438 807 q 269 660 311 718 q 208 535 228 601 q 189 406 189 469 q 191 364 189 385 q 200 322 193 343 q 288 525 244 436 q 378 678 332 614 q 474 783 424 743 q 583 842 525 824 l 599 846 z "},"=":{"ha":743,"x_min":15,"x_max":699,"o":"m 446 439 q 631 451 533 449 q 653 449 642 451 q 675 438 664 446 q 685 412 682 426 q 688 382 688 397 q 677 324 688 354 q 643 282 667 293 q 592 289 615 288 q 544 290 568 290 q 478 287 513 290 q 411 282 444 283 q 341 277 376 281 q 267 274 306 274 q 178 279 222 274 q 86 300 133 285 q 32 337 49 311 q 15 388 15 363 q 42 441 15 415 q 111 476 69 467 l 111 453 q 205 433 163 438 q 288 428 247 428 q 366 431 326 428 q 446 439 406 435 m 460 664 q 539 672 499 668 q 624 675 579 675 q 656 673 640 675 q 686 663 671 671 q 696 637 693 651 q 699 607 699 622 q 688 549 699 579 q 654 507 678 518 q 603 514 626 513 q 557 515 579 515 q 492 513 525 515 q 425 507 458 510 q 355 501 390 504 q 282 499 319 499 q 193 504 238 499 q 101 525 149 510 q 48 561 64 536 q 32 613 32 586 q 58 665 32 640 q 126 701 83 690 l 126 678 q 216 658 172 664 q 303 653 260 653 q 380 656 340 653 q 460 664 419 660 z "},"‹":{"ha":360,"x_min":11,"x_max":333,"o":"m 243 554 q 289 510 272 538 q 303 451 306 483 q 277 354 297 397 q 225 268 257 311 q 299 175 269 221 q 333 64 329 129 q 326 24 333 40 q 309 -1 319 8 q 285 -15 299 -11 q 260 -18 272 -18 q 231 -10 243 -18 q 210 10 219 -1 q 196 36 201 22 q 186 61 190 50 l 183 67 q 151 126 169 100 q 115 171 133 151 q 78 203 96 190 q 47 226 60 217 q 29 242 43 231 q 11 256 15 253 q 51 322 35 304 q 83 353 68 340 q 121 388 101 367 q 163 454 140 410 q 170 470 169 464 q 174 483 171 476 l 174 482 q 185 520 178 501 q 210 551 192 539 l 243 554 z "},"›":{"ha":371,"x_min":38,"x_max":358,"o":"m 160 551 q 185 520 178 539 q 197 482 192 501 l 197 483 q 203 465 200 474 q 206 454 206 457 q 247 389 228 410 q 286 353 267 368 q 318 322 301 340 q 358 256 335 304 q 340 242 354 253 q 321 226 326 231 q 290 203 308 217 q 253 171 272 190 q 217 126 235 151 q 185 67 199 100 l 185 65 q 184 63 185 64 q 183 61 183 63 q 174 36 179 50 q 160 10 168 22 q 139 -10 151 -1 q 110 -18 126 -18 q 85 -15 97 -18 q 62 -1 72 -11 q 44 24 51 8 q 38 64 38 40 q 71 175 42 129 q 144 268 100 221 q 92 354 113 311 q 67 451 72 397 q 81 510 64 483 q 126 554 97 538 l 160 551 z "},"«":{"ha":571,"x_min":21,"x_max":556,"o":"m 229 554 q 275 510 258 538 q 289 451 292 483 q 254 349 283 397 q 193 258 225 301 q 238 211 215 235 q 278 163 260 188 q 308 114 297 139 q 319 64 319 89 q 313 24 319 40 q 295 -1 306 8 q 272 -15 285 -11 q 246 -18 258 -18 q 217 -10 229 -18 q 197 10 206 -1 q 182 36 188 22 q 172 61 176 50 l 169 67 q 124 142 149 111 q 79 196 100 174 q 42 233 58 218 q 21 258 26 247 q 56 301 40 281 q 85 342 71 321 q 115 391 100 364 q 150 454 131 418 l 160 483 l 160 482 q 171 520 164 501 q 196 551 178 539 l 229 554 m 457 557 q 512 516 496 550 q 525 450 528 482 q 499 352 518 388 q 457 289 479 317 q 451 280 454 283 q 444 271 447 276 q 517 176 490 222 q 556 63 543 131 q 534 8 551 33 q 485 -18 517 -18 q 460 -8 472 -18 q 438 15 449 1 q 418 44 426 29 q 406 68 410 58 q 371 133 390 107 q 331 180 351 160 q 292 219 311 200 q 261 265 274 239 q 307 311 283 282 q 352 376 331 340 q 391 453 374 413 q 418 533 408 494 l 457 557 z "},"»":{"ha":579,"x_min":28,"x_max":549,"o":"m 388 551 q 413 520 406 539 q 424 482 419 501 l 424 483 q 428 468 426 474 q 433 454 431 463 q 452 403 443 428 q 474 354 461 378 q 503 307 486 331 q 549 258 521 283 q 510 227 526 242 q 478 192 493 213 q 449 142 464 171 q 413 67 433 113 l 413 65 q 412 63 413 64 q 411 61 411 63 q 401 36 407 50 q 388 10 396 22 q 367 -10 379 -1 q 338 -18 354 -18 q 313 -15 325 -18 q 290 -1 300 -11 q 272 24 279 8 q 265 64 265 40 q 299 175 269 129 q 372 268 328 221 q 320 354 340 311 q 294 451 300 397 q 308 510 292 483 q 354 554 325 538 l 388 551 m 165 533 q 190 453 175 494 q 222 374 204 411 q 261 306 240 336 q 304 260 282 276 q 270 226 285 242 q 244 195 256 210 q 224 165 233 181 q 203 132 214 150 q 184 93 194 118 q 161 43 174 68 q 133 0 149 18 q 99 -18 118 -18 q 49 8 67 -18 q 28 63 32 33 q 68 176 42 129 q 139 271 94 222 q 133 280 136 276 q 126 289 129 283 q 85 353 104 317 q 58 450 65 389 q 60 484 57 467 q 72 516 64 501 q 94 542 81 531 q 128 557 108 553 l 165 533 z "},"¶":{"ha":774,"x_min":63,"x_max":710,"o":"m 419 10 q 410 -43 418 -25 q 367 -61 403 -61 q 338 -56 354 -61 q 308 -42 322 -51 q 283 -18 293 -32 q 274 15 274 -4 l 274 18 q 281 119 276 71 q 288 215 285 167 q 291 265 289 242 q 294 310 293 288 q 297 356 296 332 q 299 413 297 381 l 288 413 q 202 439 243 413 q 130 506 161 465 q 81 597 99 547 q 63 694 63 647 q 76 802 63 749 q 117 899 90 856 q 185 975 144 943 q 281 1018 226 1007 q 347 1010 318 1014 q 403 1003 375 1007 q 463 997 431 1000 q 543 994 496 994 q 586 1003 554 997 q 647 1008 618 1008 q 692 998 674 1008 q 710 961 710 988 q 684 903 710 933 q 604 857 658 872 q 629 606 622 728 q 636 349 636 483 q 635 254 636 297 q 634 169 635 211 q 631 85 633 128 q 626 -8 629 43 q 611 -59 624 -40 q 568 -78 599 -78 q 541 -72 556 -78 q 513 -56 526 -67 q 491 -31 500 -46 q 482 0 482 -17 q 487 79 485 43 q 490 151 489 115 q 492 223 492 186 q 493 304 493 260 q 487 556 493 435 q 467 808 481 676 q 465 828 467 819 q 463 846 464 838 q 437 850 447 847 q 415 856 426 853 l 415 854 q 404 857 413 854 q 435 690 426 771 q 444 517 444 610 q 441 367 444 438 q 432 226 438 297 q 419 10 424 122 m 207 733 q 212 676 207 706 q 227 620 217 646 q 254 578 238 594 q 294 561 271 561 l 300 561 q 288 707 297 642 q 256 847 278 772 q 222 797 236 828 q 207 733 207 767 z "},"¬":{"ha":5294,"x_min":61,"x_max":5244,"o":"m 474 239 q 526 315 506 278 q 561 389 547 353 q 586 549 586 465 q 585 578 586 563 q 581 609 585 594 q 572 633 578 624 q 554 643 565 643 q 525 622 538 643 q 502 567 513 600 q 485 494 492 535 q 474 416 478 454 q 467 347 469 378 q 465 300 465 315 l 465 264 q 474 239 467 243 m 754 1092 q 793 1085 772 1092 q 828 1064 814 1078 q 920 964 878 1022 q 994 839 963 906 q 1042 702 1025 772 q 1058 565 1058 632 q 1035 371 1058 458 q 975 215 1013 283 q 889 94 938 146 q 788 10 840 43 q 683 -40 735 -24 q 588 -57 631 -57 q 506 -39 542 -57 q 444 1 471 -21 q 422 25 432 14 q 404 47 411 36 q 394 67 399 58 q 390 79 390 75 q 333 61 363 68 q 274 54 303 54 q 175 78 215 54 q 110 140 135 101 q 73 227 85 178 q 61 326 61 276 q 83 506 61 415 q 144 678 104 596 q 243 832 185 761 q 374 951 301 903 q 407 973 389 963 q 439 983 425 983 q 460 967 460 983 q 451 949 460 956 q 439 938 443 942 q 331 802 379 876 q 247 646 282 728 q 193 477 213 564 q 174 304 174 390 q 178 239 174 272 q 197 178 183 206 q 233 132 210 150 q 290 114 256 114 q 332 120 311 114 q 365 142 353 126 q 360 176 364 143 q 351 251 356 210 q 344 329 347 293 q 342 372 340 365 q 348 453 342 417 q 369 522 354 490 q 435 624 400 585 q 478 656 457 643 q 518 679 499 669 q 585 699 560 699 q 640 680 618 699 q 675 634 661 661 q 694 575 689 607 q 700 518 700 543 q 646 324 700 419 q 486 139 592 229 q 531 79 501 99 q 610 60 560 60 q 717 100 660 60 q 771 145 744 117 q 821 211 797 174 q 865 296 846 249 q 901 397 885 343 q 932 654 932 507 q 920 773 932 713 q 885 890 908 833 q 828 996 863 946 q 751 1083 794 1046 l 754 1092 m 1203 283 q 1213 282 1208 282 q 1222 282 1218 282 l 1242 282 l 1261 282 q 1272 282 1267 282 q 1282 283 1278 282 q 1281 308 1282 293 q 1278 340 1281 324 q 1273 374 1276 357 q 1263 401 1269 390 q 1247 385 1256 399 q 1231 353 1239 372 q 1215 315 1222 335 q 1203 283 1207 296 m 1253 571 q 1263 579 1256 579 l 1267 579 l 1276 579 q 1290 575 1283 579 q 1303 565 1297 571 q 1313 549 1308 557 q 1318 535 1317 542 q 1326 510 1321 526 q 1337 476 1331 494 q 1348 438 1343 457 q 1356 404 1353 419 q 1367 322 1361 358 q 1376 252 1372 286 q 1381 184 1379 218 q 1383 108 1383 150 l 1383 57 q 1382 43 1382 50 q 1381 31 1382 38 q 1365 26 1374 26 q 1328 45 1344 26 q 1301 92 1313 64 l 1296 174 l 1249 174 q 1198 174 1214 174 q 1174 175 1182 175 q 1170 174 1171 175 q 1168 174 1169 174 l 1165 174 q 1139 132 1151 168 q 1128 97 1133 114 q 1115 60 1122 79 l 1100 21 q 1087 12 1096 14 q 1067 10 1078 10 q 1053 10 1060 10 q 1039 13 1047 10 q 1017 43 1024 28 q 1010 82 1010 58 q 1021 136 1010 106 q 1051 201 1032 167 q 1042 233 1051 218 q 1008 250 1032 247 l 1010 278 l 1032 278 l 1079 278 q 1099 322 1086 296 q 1126 374 1111 347 q 1155 428 1140 401 q 1182 474 1169 454 l 1249 554 l 1253 571 m 1542 551 q 1560 544 1556 551 q 1564 522 1564 536 q 1562 487 1564 503 q 1557 456 1560 471 q 1549 426 1554 442 q 1540 394 1544 410 q 1519 317 1529 361 q 1500 199 1508 272 l 1500 192 q 1514 169 1500 169 q 1552 180 1529 169 q 1608 201 1575 190 q 1641 216 1624 208 q 1669 224 1658 224 q 1682 211 1682 224 q 1686 190 1686 199 q 1669 141 1686 167 q 1625 92 1651 115 q 1569 55 1599 69 q 1514 40 1539 40 q 1460 56 1481 40 q 1428 95 1439 71 q 1413 148 1417 119 q 1410 204 1410 176 q 1419 290 1410 243 q 1443 382 1429 338 q 1472 464 1457 426 q 1499 522 1488 501 q 1514 538 1506 532 q 1542 551 1522 543 m 1899 447 q 1909 445 1904 446 q 1922 444 1914 444 q 1962 455 1939 444 q 1985 478 1985 465 q 1965 500 1985 500 q 1922 488 1944 500 q 1899 447 1900 474 m 1844 -101 q 1826 -111 1833 -108 q 1804 -114 1819 -114 q 1764 -99 1783 -114 q 1735 -69 1744 -85 q 1721 -39 1726 -56 q 1714 -3 1715 -22 q 1711 36 1711 18 q 1711 71 1711 54 q 1724 234 1711 161 q 1757 361 1738 307 q 1613 497 1613 419 q 1619 533 1613 515 q 1640 560 1624 553 q 1651 548 1649 560 q 1653 525 1653 536 q 1658 518 1653 518 q 1730 476 1694 488 q 1808 458 1765 465 q 1831 480 1818 467 q 1860 507 1843 493 q 1897 530 1876 521 q 1944 539 1918 539 q 1975 535 1958 539 q 2006 521 1992 532 q 2031 488 2021 510 q 2040 428 2040 465 q 2022 381 2040 399 q 1978 353 2004 363 q 1923 340 1951 343 q 1876 336 1894 336 l 1869 336 q 1845 194 1850 267 q 1840 50 1840 121 q 1844 -101 1840 -31 m 2411 385 q 2317 376 2367 381 q 2228 363 2268 371 q 2160 342 2188 354 q 2133 313 2133 331 q 2144 285 2133 300 q 2171 255 2156 269 q 2204 226 2186 240 q 2238 200 2222 211 q 2318 149 2272 172 q 2413 114 2364 126 l 2425 385 l 2411 385 m 2008 879 q 1993 878 2001 879 q 1972 876 1985 876 q 1929 881 1950 876 q 1907 900 1907 886 q 1943 974 1907 947 q 2031 1013 1979 1000 q 2136 1029 2082 1026 q 2226 1032 2190 1032 q 2435 1007 2322 1032 q 2544 978 2490 993 q 2650 944 2599 964 q 2737 910 2689 932 q 2836 858 2785 888 q 2941 792 2888 828 q 3043 715 2994 756 q 3135 631 3093 676 q 3210 538 3178 586 q 3260 438 3242 489 q 3278 333 3278 386 q 3266 242 3278 283 q 3231 164 3254 201 q 3110 49 3189 96 q 3031 8 3074 25 q 2942 -21 2989 -10 q 2847 -37 2894 -32 q 2751 -43 2800 -43 q 2650 -37 2703 -43 q 2550 -22 2597 -31 q 2542 -45 2546 -33 q 2532 -81 2539 -57 q 2509 -86 2519 -85 q 2483 -87 2499 -87 l 2451 -85 q 2429 -37 2436 -65 q 2414 25 2422 -8 q 2256 126 2317 81 q 2168 206 2196 172 q 2144 232 2157 217 q 2121 263 2132 247 q 2097 326 2097 294 q 2144 389 2097 358 q 2199 422 2169 408 q 2261 449 2229 436 q 2337 469 2294 460 q 2431 489 2379 479 l 2433 546 q 2437 578 2433 550 q 2446 638 2440 606 q 2460 696 2451 667 q 2482 736 2469 725 q 2531 670 2521 706 q 2543 589 2540 635 q 2551 500 2544 546 l 2569 500 q 2631 498 2593 500 q 2713 489 2669 496 q 2802 470 2757 482 q 2883 440 2847 458 q 2941 396 2918 422 q 2964 335 2964 369 q 2956 306 2964 322 q 2934 274 2947 289 q 2904 249 2921 260 q 2869 239 2888 239 q 2836 243 2856 239 q 2806 256 2817 247 q 2824 273 2815 264 q 2842 290 2832 282 q 2858 306 2851 297 q 2867 321 2865 314 q 2825 344 2856 332 q 2753 367 2794 357 q 2667 384 2713 378 q 2581 390 2621 390 q 2558 389 2565 390 q 2543 385 2551 388 l 2544 85 q 2579 67 2561 74 q 2615 57 2597 60 q 2649 53 2635 54 q 2676 53 2663 53 q 2742 54 2706 53 q 2817 61 2778 56 q 2895 75 2856 67 q 2971 99 2935 83 q 3041 133 3008 113 q 3098 181 3074 153 q 3136 246 3122 210 q 3150 329 3150 282 q 3097 501 3150 421 q 2964 649 3044 582 q 2787 767 2883 715 q 2603 853 2690 818 q 2480 894 2540 876 q 2357 925 2419 913 q 2232 942 2296 938 q 2097 947 2168 947 q 2041 945 2069 947 q 1985 936 2013 943 q 1951 918 1951 929 q 1959 913 1951 915 q 1976 908 1967 910 q 1994 903 1986 906 q 2006 900 2003 901 q 2013 889 2013 896 q 2008 879 2013 882 m 3282 715 q 3288 714 3283 714 q 3294 715 3293 714 q 3315 740 3301 725 q 3344 770 3328 754 q 3376 801 3360 786 q 3404 828 3392 817 l 3404 829 q 3403 833 3404 832 q 3403 836 3403 835 q 3353 819 3374 829 q 3317 790 3333 808 q 3282 715 3286 758 m 3365 665 q 3369 658 3365 663 q 3376 654 3374 654 l 3407 654 q 3472 663 3435 654 q 3541 690 3508 672 q 3597 732 3574 707 q 3619 789 3619 757 q 3617 811 3619 800 q 3585 822 3613 822 q 3524 809 3554 822 q 3466 774 3494 796 q 3412 723 3438 751 q 3365 665 3386 694 m 3360 493 q 3407 472 3401 490 q 3421 410 3421 449 q 3428 238 3422 325 q 3435 67 3435 150 q 3426 33 3435 50 q 3390 18 3418 18 q 3372 21 3383 18 q 3351 26 3360 24 q 3340 38 3344 28 q 3332 60 3335 47 q 3327 84 3329 72 q 3325 100 3325 96 l 3325 142 q 3325 165 3325 156 q 3326 186 3325 175 q 3327 212 3326 197 q 3329 247 3328 226 q 3334 319 3331 263 q 3351 482 3338 376 q 3360 493 3351 493 m 3604 879 l 3610 879 q 3631 874 3618 879 q 3657 860 3644 869 q 3678 837 3669 851 q 3688 804 3688 822 q 3658 721 3688 765 q 3625 681 3643 700 q 3583 647 3607 663 q 3540 619 3563 632 q 3493 594 3518 606 q 3411 572 3444 572 q 3365 575 3389 572 q 3322 585 3342 578 q 3304 561 3311 571 q 3282 549 3297 551 q 3260 569 3269 551 q 3246 611 3250 588 q 3251 633 3246 619 q 3225 673 3235 654 q 3215 715 3215 692 q 3239 788 3215 750 q 3301 858 3263 825 q 3388 911 3339 890 q 3486 933 3436 932 q 3565 918 3532 933 q 3604 879 3597 903 m 3558 371 q 3556 366 3556 368 q 3558 364 3556 364 q 3596 351 3578 357 q 3629 340 3614 346 q 3663 339 3644 340 q 3701 335 3681 338 q 3740 333 3719 333 q 3779 329 3760 332 q 3819 323 3800 328 q 3856 311 3838 318 q 3911 271 3888 299 q 3930 238 3924 256 q 3936 194 3936 221 q 3910 104 3936 139 q 3847 58 3882 75 q 3778 39 3815 43 q 3726 35 3742 35 q 3641 48 3682 35 q 3569 81 3600 61 q 3519 124 3538 100 q 3501 169 3501 149 q 3513 211 3501 194 q 3544 237 3525 228 q 3585 250 3563 246 q 3629 254 3608 254 q 3718 245 3669 254 q 3808 213 3767 236 q 3811 206 3811 211 q 3808 199 3811 200 q 3779 179 3800 189 q 3757 172 3769 174 q 3731 171 3744 171 q 3697 176 3715 171 q 3660 187 3679 181 q 3620 199 3640 193 q 3579 204 3600 204 q 3565 203 3571 204 q 3551 199 3558 201 q 3536 169 3536 190 q 3547 148 3536 156 q 3574 137 3557 140 q 3610 133 3590 133 q 3649 132 3629 132 q 3694 136 3657 132 q 3732 142 3714 139 q 3769 150 3750 146 q 3805 161 3789 156 q 3836 174 3821 167 q 3868 207 3868 189 q 3844 239 3868 225 q 3788 262 3821 253 q 3719 275 3754 271 q 3661 281 3683 279 q 3565 284 3600 281 q 3511 297 3529 288 q 3488 321 3493 306 q 3482 358 3482 336 q 3501 414 3482 390 q 3551 453 3521 438 q 3615 477 3581 468 q 3681 491 3650 486 q 3734 497 3713 496 q 3760 499 3756 499 q 3854 491 3810 499 q 3933 476 3899 483 q 3946 469 3942 474 q 3950 454 3950 465 q 3938 435 3947 443 q 3918 422 3929 428 q 3897 417 3911 419 q 3874 415 3883 415 q 3822 410 3856 413 q 3753 404 3789 407 q 3686 399 3718 401 q 3638 393 3654 396 q 3585 383 3601 386 q 3558 371 3568 379 m 4219 539 q 4222 558 4219 549 q 4233 568 4225 568 q 4275 544 4249 568 q 4326 476 4301 521 q 4367 372 4350 432 q 4385 238 4385 311 q 4378 172 4385 206 q 4357 111 4371 139 q 4324 66 4343 83 q 4278 49 4304 49 q 4238 68 4258 49 q 4199 117 4218 88 q 4163 180 4181 146 q 4132 243 4146 214 q 4108 292 4118 272 q 4093 311 4097 311 q 4082 296 4089 311 q 4080 261 4081 289 q 4078 200 4079 233 q 4074 135 4076 167 q 4068 88 4072 103 q 4065 69 4068 81 q 4058 48 4063 58 q 4047 30 4054 38 q 4028 22 4039 22 q 4000 35 4011 22 q 3983 65 3989 47 q 3976 101 3978 82 q 3974 131 3974 119 q 3978 215 3972 160 q 3997 324 3985 269 q 4028 420 4010 379 q 4068 461 4046 461 q 4087 455 4076 461 q 4108 432 4097 449 q 4132 401 4119 419 q 4158 364 4144 383 q 4184 322 4171 344 q 4213 276 4197 300 q 4240 233 4226 253 q 4269 196 4254 214 q 4278 185 4279 185 q 4288 208 4288 185 l 4288 221 q 4283 301 4288 268 q 4269 367 4278 335 q 4250 433 4261 399 q 4226 518 4239 468 l 4219 533 l 4219 539 m 4739 114 q 4731 93 4739 99 q 4694 65 4717 82 q 4643 33 4671 49 q 4583 8 4615 18 q 4515 -3 4550 -3 q 4431 35 4460 -3 q 4404 114 4404 67 q 4416 169 4404 138 q 4439 235 4428 201 q 4432 252 4436 246 q 4428 271 4428 258 q 4430 285 4428 279 q 4435 297 4432 290 q 4453 305 4443 301 q 4471 310 4463 308 l 4503 385 q 4477 397 4490 390 q 4452 410 4464 403 q 4433 427 4440 418 q 4425 449 4425 436 q 4461 469 4425 467 q 4561 485 4506 472 q 4703 497 4617 497 q 4726 496 4714 497 q 4760 488 4738 494 q 4772 474 4764 481 q 4786 458 4779 467 q 4803 419 4803 439 q 4795 410 4803 415 q 4776 399 4788 404 q 4751 391 4764 394 q 4729 388 4739 388 q 4691 385 4706 386 q 4665 385 4676 385 l 4617 385 q 4597 383 4600 385 q 4585 365 4593 378 q 4578 326 4578 351 q 4581 316 4578 321 q 4592 311 4585 311 l 4696 311 l 4717 308 q 4724 290 4722 301 q 4725 267 4725 278 q 4722 247 4725 258 q 4708 235 4719 236 q 4646 233 4689 235 q 4549 232 4603 232 q 4540 224 4544 232 q 4527 177 4536 200 q 4507 131 4518 154 q 4552 138 4514 131 q 4657 153 4590 146 q 4681 155 4668 154 q 4706 156 4693 156 q 4728 142 4717 156 q 4739 114 4739 129 m 4983 122 q 5119 188 5057 133 q 5165 249 5151 215 q 5179 326 5179 282 q 5179 338 5179 332 q 5176 350 5179 343 q 5163 365 5176 365 q 5140 355 5153 365 q 5113 330 5126 344 q 5086 300 5099 315 q 5065 275 5074 285 q 5048 245 5060 267 q 5024 199 5036 224 q 4999 153 5011 175 q 4983 122 4988 131 m 4808 -387 q 4772 -376 4789 -385 q 4743 -351 4754 -367 q 4714 -275 4714 -318 q 4719 -233 4714 -265 q 4735 -153 4724 -201 q 4767 -44 4747 -106 q 4815 88 4786 18 q 4797 138 4804 111 q 4789 190 4789 165 q 4795 245 4789 218 q 4813 300 4801 272 q 4836 353 4824 329 q 4863 400 4849 378 q 4891 442 4878 424 q 4919 476 4904 461 q 4956 506 4949 506 q 4976 494 4972 503 q 4981 468 4981 486 q 4976 447 4981 457 q 4965 426 4972 438 q 4947 397 4958 415 q 4919 356 4936 379 q 4886 290 4901 331 q 4871 252 4876 271 q 4865 215 4865 233 q 4871 197 4865 201 l 4874 197 l 4875 199 q 4878 203 4876 200 q 4905 239 4890 221 q 4939 279 4919 257 q 4976 323 4958 303 q 5013 363 4993 343 q 5052 399 5033 382 q 5090 431 5071 417 q 5153 460 5125 460 q 5197 440 5179 460 q 5226 393 5215 421 q 5240 336 5236 365 q 5244 286 5244 307 q 5208 174 5244 224 q 5131 85 5178 119 q 5081 50 5106 64 q 5031 25 5057 36 q 4983 9 5006 14 q 4944 4 4961 4 q 4930 3 4938 4 q 4914 1 4922 3 q 4880 -103 4893 -58 q 4856 -190 4867 -149 q 4836 -276 4846 -232 q 4813 -376 4826 -319 l 4808 -387 z "},"‚":{"ha":354,"x_min":47,"x_max":314,"o":"m 125 163 q 210 142 175 163 q 269 92 246 121 q 303 30 292 63 q 314 -26 314 -3 q 298 -93 314 -62 q 258 -148 282 -124 q 204 -190 233 -172 q 149 -220 175 -208 q 104 -237 124 -232 q 81 -243 85 -243 q 60 -234 68 -243 q 53 -212 53 -225 q 64 -175 53 -190 q 88 -147 75 -160 q 111 -124 100 -135 q 122 -101 122 -114 q 110 -64 122 -75 q 85 -40 99 -53 q 59 -3 71 -26 q 47 74 47 21 q 49 97 47 82 q 60 126 51 111 q 83 151 68 140 q 125 163 99 163 z "},"„":{"ha":803,"x_min":33,"x_max":775,"o":"m 58 -246 q 119 -235 89 -246 q 174 -206 150 -225 q 213 -160 199 -187 q 228 -101 228 -133 q 219 -69 228 -81 q 197 -54 210 -58 q 175 -65 182 -54 q 122 -87 153 -87 q 91 -81 107 -87 q 63 -63 75 -74 q 42 -39 50 -53 q 33 -10 33 -25 q 38 49 33 19 q 60 104 43 79 q 108 144 76 129 q 192 160 139 160 q 281 130 246 160 q 336 60 315 100 q 365 -19 357 21 q 372 -79 372 -60 q 357 -169 372 -126 q 314 -246 342 -212 q 247 -299 286 -279 q 158 -318 207 -318 q 90 -302 121 -318 q 44 -246 60 -286 l 58 -246 m 461 -246 q 522 -235 492 -246 q 577 -206 553 -225 q 616 -160 601 -187 q 631 -101 631 -133 q 622 -69 631 -81 q 600 -54 613 -58 q 578 -65 585 -54 q 525 -87 556 -87 q 494 -81 510 -87 q 465 -63 478 -74 q 444 -39 453 -53 q 436 -10 436 -25 q 441 49 436 19 q 463 104 446 79 q 510 144 479 129 q 594 160 542 160 q 683 130 649 160 q 739 60 718 100 q 767 -19 760 21 q 775 -79 775 -60 q 760 -169 775 -126 q 717 -246 744 -212 q 649 -299 689 -279 q 561 -318 610 -318 q 493 -302 524 -318 q 447 -246 463 -286 l 461 -246 z "},"ƒ":{"ha":697,"x_min":21,"x_max":671,"o":"m 199 406 q 164 422 178 413 q 150 460 150 432 q 157 490 150 474 q 175 520 164 506 q 201 544 186 535 q 233 554 217 554 q 247 553 240 554 q 269 546 254 553 q 299 536 278 540 q 310 603 303 569 q 325 671 317 636 q 331 685 328 674 q 339 711 335 697 q 356 767 347 739 q 381 819 365 794 q 419 866 396 844 q 475 903 442 888 q 495 910 485 907 q 518 914 506 914 q 597 896 558 914 q 669 826 636 878 q 671 814 671 819 q 671 807 671 810 q 653 753 671 768 q 615 739 635 739 q 563 749 589 739 q 545 753 554 751 q 531 757 536 756 q 488 654 504 708 q 460 542 471 600 q 498 549 479 546 q 536 551 517 551 q 553 543 544 551 q 569 522 563 535 q 581 493 576 508 q 585 464 585 478 q 571 429 585 444 q 535 403 557 414 q 485 387 513 393 q 433 378 458 381 q 412 259 424 319 q 379 141 400 199 q 325 31 358 83 q 239 -64 292 -22 q 193 -87 219 -79 q 139 -96 167 -96 q 92 -87 114 -96 q 55 -61 71 -78 q 30 -22 39 -44 q 21 25 21 0 q 31 61 21 53 q 61 69 40 69 q 76 66 68 69 q 90 58 83 63 q 96 55 93 56 q 101 53 99 54 l 107 50 q 121 57 110 50 l 118 56 q 184 119 157 83 q 229 197 211 156 q 258 286 247 239 q 276 382 269 333 q 244 391 261 386 q 208 403 226 396 l 199 406 z "},"<":{"ha":431,"x_min":19,"x_max":404,"o":"m 315 735 q 361 691 344 718 q 375 632 378 664 q 339 551 371 586 q 271 483 307 515 q 249 467 256 471 q 232 447 243 463 q 256 427 243 436 q 282 407 268 418 q 363 334 326 371 q 404 247 399 297 q 397 206 404 222 q 380 181 390 190 q 357 168 369 172 q 332 164 344 164 q 303 171 317 164 q 279 188 290 178 q 259 210 268 199 q 244 231 250 222 l 243 233 q 170 314 211 279 q 96 374 129 349 q 56 406 74 390 q 19 444 39 421 q 59 497 43 481 q 94 525 75 513 q 150 567 118 540 q 229 651 182 593 q 238 663 235 656 q 244 676 242 669 q 258 706 251 692 q 281 732 265 721 l 315 735 z "},"‰":{"ha":1478,"x_min":57,"x_max":1407,"o":"m 310 944 q 387 915 346 944 q 457 836 428 885 q 601 876 528 844 q 728 956 674 907 q 764 969 744 969 q 794 960 778 969 q 826 938 811 951 q 851 908 840 924 q 861 878 861 892 q 860 861 861 867 q 851 849 858 856 q 771 746 811 799 q 686 635 731 693 q 592 511 642 576 q 486 369 543 446 q 378 225 433 299 q 267 83 322 151 q 245 67 258 74 q 218 61 232 61 q 187 69 203 61 q 157 90 171 78 q 134 118 143 103 q 125 147 125 133 q 142 188 125 171 q 369 449 267 308 q 569 736 472 590 q 531 728 550 732 q 492 722 511 725 l 492 708 q 474 625 492 663 q 426 560 456 588 q 360 518 397 533 q 285 503 324 503 q 117 560 176 503 q 57 708 57 618 q 60 756 57 733 q 72 799 64 778 q 96 842 81 819 q 135 892 111 864 q 189 921 154 911 q 263 936 224 931 l 310 944 m 972 275 q 978 335 972 301 q 1003 401 985 369 q 1058 458 1022 433 q 1153 493 1094 483 q 1190 504 1171 501 q 1224 507 1208 507 q 1298 485 1264 507 q 1356 431 1332 464 q 1394 356 1381 397 q 1407 275 1407 314 q 1388 191 1407 229 q 1337 126 1368 153 q 1267 83 1306 99 q 1190 68 1228 68 q 1026 126 1081 68 q 972 275 972 183 m 511 285 q 517 345 511 311 q 543 411 524 379 q 599 468 563 443 q 693 503 635 493 q 729 513 710 510 q 763 515 749 515 q 837 494 803 515 q 895 439 871 472 q 933 365 919 406 q 947 285 947 324 q 928 201 947 239 q 877 135 908 163 q 807 92 846 107 q 729 76 768 76 q 565 135 619 76 q 511 285 511 194 m 642 293 q 663 233 642 257 q 724 210 685 210 q 756 217 739 210 q 786 236 772 224 q 809 265 800 249 q 818 299 818 281 q 801 362 818 336 q 763 388 783 388 l 754 388 l 642 293 m 1101 283 q 1124 224 1101 247 q 1185 200 1146 200 q 1217 207 1200 200 q 1247 226 1233 214 q 1270 255 1261 239 q 1279 289 1279 271 q 1261 352 1279 326 q 1224 378 1243 378 l 1215 378 l 1101 283 m 224 794 q 199 759 210 779 q 189 707 189 739 q 216 650 189 669 q 283 631 243 631 q 336 653 313 631 q 360 711 360 676 q 358 726 360 721 q 320 736 339 729 q 282 750 301 743 l 286 774 l 224 794 m 235 925 l 242 908 l 247 921 l 239 925 l 235 925 z "},">":{"ha":444,"x_min":40,"x_max":425,"o":"m 164 732 q 186 706 179 721 q 200 676 193 692 q 206 663 203 669 q 215 651 210 656 q 294 567 263 593 q 349 525 325 540 q 385 496 368 511 q 425 444 403 481 q 388 406 406 421 q 349 374 371 390 q 274 314 315 349 q 201 233 233 279 l 200 231 q 185 210 193 222 q 165 188 176 199 q 141 171 154 178 q 113 164 128 164 q 88 168 100 164 q 65 181 75 172 q 47 206 54 190 q 40 247 40 222 q 82 334 46 297 q 163 407 118 371 l 163 408 q 190 428 182 424 q 213 449 197 432 q 194 465 203 457 q 174 483 185 474 q 106 550 138 515 q 69 632 74 585 q 83 691 67 664 q 129 735 100 718 l 164 732 z "},"{":{"ha":422,"x_min":18,"x_max":414,"o":"m 18 507 q 43 542 28 531 q 72 561 58 554 q 83 568 74 561 q 110 589 100 579 q 124 610 119 599 q 129 637 128 622 q 131 672 131 651 q 130 699 131 683 q 128 730 129 714 q 126 760 126 746 q 124 785 125 775 l 124 783 q 127 890 117 835 q 161 992 138 946 q 220 1067 185 1038 q 299 1097 256 1097 q 373 1076 354 1097 q 392 1026 392 1054 q 382 969 392 996 q 333 932 372 943 q 287 889 299 921 q 275 817 275 857 q 276 776 275 797 q 279 731 278 756 q 283 680 282 707 q 283 633 283 653 q 276 562 283 589 q 246 507 269 535 q 277 449 265 481 q 294 382 289 417 q 302 312 300 347 q 306 243 304 276 q 306 231 306 236 q 307 218 307 225 q 315 128 310 164 q 331 93 319 93 q 353 85 339 93 q 381 65 368 78 q 404 38 394 53 q 414 10 414 24 q 392 -32 414 -15 q 331 -49 369 -49 l 318 -49 q 286 -46 303 -49 q 251 -32 269 -43 q 199 20 218 -7 q 170 76 181 47 q 157 134 160 104 q 154 194 154 164 l 154 253 q 149 332 154 293 q 115 407 143 371 q 100 419 108 415 q 81 431 92 424 q 51 449 65 438 q 24 475 38 460 l 18 507 z "},"}":{"ha":432,"x_min":25,"x_max":421,"o":"m 415 475 q 388 449 401 460 q 358 431 374 438 q 339 419 347 424 q 325 407 331 415 q 291 332 297 371 q 285 253 285 293 l 285 194 q 282 134 285 164 q 269 76 279 104 q 240 20 260 47 q 189 -32 221 -7 q 153 -46 169 -43 q 121 -49 136 -49 l 108 -49 q 47 -32 69 -49 q 25 10 25 -15 q 35 38 25 24 q 58 65 44 53 q 85 85 71 78 q 108 93 100 93 q 125 129 119 93 q 133 219 131 165 q 134 231 133 225 q 135 243 135 236 q 137 312 135 276 q 145 382 139 347 q 163 449 151 417 q 193 507 174 481 q 165 561 174 532 q 156 633 156 590 q 156 680 156 654 q 160 731 157 706 q 163 776 161 754 q 164 817 164 799 q 153 889 164 857 q 106 932 142 921 q 57 969 67 943 q 47 1026 47 996 q 66 1076 47 1054 q 140 1097 85 1097 q 219 1067 183 1097 q 278 992 254 1038 q 311 890 301 946 q 315 783 321 835 l 315 785 q 313 760 314 775 q 312 730 313 746 q 310 699 311 714 q 310 672 310 683 q 310 637 310 651 q 316 610 311 622 q 330 589 321 599 q 356 568 339 579 q 362 564 358 567 q 367 561 365 561 q 397 542 382 554 q 421 507 411 529 l 415 475 z "},"ª":{"ha":1206,"x_min":24,"x_max":1183,"o":"m 779 674 q 760 763 760 719 q 813 896 760 840 q 874 935 840 922 q 944 947 908 947 q 1032 929 989 947 q 1111 875 1075 911 q 1165 797 1147 839 q 1183 710 1183 754 q 1171 640 1183 674 q 1132 578 1158 606 q 1069 538 1104 550 q 999 525 1035 525 q 915 542 957 525 q 951 456 939 501 q 964 360 964 410 q 935 220 964 286 q 858 106 907 154 q 743 28 808 57 q 604 0 678 0 q 463 28 529 0 q 348 106 397 57 q 270 220 299 154 q 242 360 242 286 q 255 456 242 410 q 292 542 268 501 q 208 525 250 525 q 138 538 172 525 q 76 578 104 550 q 24 710 24 633 q 42 797 24 754 q 96 875 60 839 q 176 929 132 911 q 264 947 219 947 q 334 935 300 947 q 396 896 368 922 q 435 834 422 868 q 447 764 447 800 q 429 675 447 717 q 604 719 507 719 q 779 674 701 719 z "},"Q":{"ha":1206,"x_min":42,"x_max":1157,"o":"m 42 474 q 96 678 42 588 q 240 839 150 769 q 448 959 331 908 q 690 1044 565 1010 q 706 1047 699 1046 q 721 1047 714 1047 q 833 968 796 1047 q 1157 607 1157 878 q 1110 397 1157 499 q 974 214 1063 294 q 755 85 885 133 q 461 36 625 36 q 151 142 260 36 q 42 474 42 247 m 431 733 q 344 673 379 708 q 287 598 308 638 q 256 517 265 558 q 246 438 246 475 q 266 350 246 392 q 319 277 286 308 q 396 227 353 246 q 483 208 439 208 q 669 241 583 208 q 819 327 756 274 q 917 447 882 381 q 953 583 953 514 q 706 821 953 771 q 622 765 653 810 q 590 658 590 721 q 613 546 590 603 q 671 434 635 489 q 753 328 707 379 q 846 233 799 276 q 938 156 893 190 q 1015 103 982 122 q 981 72 993 86 q 956 44 968 57 q 931 21 944 32 q 892 0 917 10 q 802 53 853 18 q 699 136 751 89 q 594 240 646 183 q 503 358 543 296 q 438 483 463 419 q 414 607 414 546 q 417 676 414 646 q 431 733 421 706 m 1069 -49 q 988 -31 1035 -43 q 892 0 940 -18 l 1015 103 q 1076 59 1050 81 q 1103 21 1103 38 q 1069 -49 1103 -14 z "},"q":{"ha":1206,"x_min":42,"x_max":1157,"o":"m 42 474 q 96 678 42 588 q 240 839 150 769 q 448 959 331 908 q 690 1044 565 1010 q 706 1047 699 1046 q 721 1047 714 1047 q 833 968 796 1047 q 1157 607 1157 878 q 1110 397 1157 499 q 974 214 1063 294 q 755 85 885 133 q 461 36 625 36 q 151 142 260 36 q 42 474 42 247 m 431 733 q 344 673 379 708 q 287 598 308 638 q 256 517 265 558 q 246 438 246 475 q 266 350 246 392 q 319 277 286 308 q 396 227 353 246 q 483 208 439 208 q 669 241 583 208 q 819 327 756 274 q 917 447 882 381 q 953 583 953 514 q 706 821 953 771 q 622 765 653 810 q 590 658 590 721 q 613 546 590 603 q 671 434 635 489 q 753 328 707 379 q 846 233 799 276 q 938 156 893 190 q 1015 103 982 122 q 981 72 993 86 q 956 44 968 57 q 931 21 944 32 q 892 0 917 10 q 802 53 853 18 q 699 136 751 89 q 594 240 646 183 q 503 358 543 296 q 438 483 463 419 q 414 607 414 546 q 417 676 414 646 q 431 733 421 706 m 1069 -49 q 988 -31 1035 -43 q 892 0 940 -18 l 1015 103 q 1076 59 1050 81 q 1103 21 1103 38 q 1069 -49 1103 -14 z "},"P":{"ha":951,"x_min":28,"x_max":924,"o":"m 385 842 q 375 779 379 810 q 367 717 371 749 q 363 649 364 685 q 361 569 361 613 l 361 485 q 503 509 439 494 q 613 547 567 524 q 683 603 658 569 q 708 689 708 638 q 693 784 708 749 q 652 836 678 819 q 593 856 626 853 q 524 856 560 858 q 452 847 489 853 q 385 842 415 842 m 400 108 q 286 -15 400 -15 q 249 -8 271 -15 q 200 14 228 -1 q 172 181 181 100 q 163 356 163 261 q 164 451 163 399 q 169 560 165 504 q 177 673 172 617 q 189 778 182 729 q 133 767 153 767 q 59 788 90 767 q 28 854 28 808 q 49 914 28 886 l 49 911 q 58 926 51 918 q 76 946 65 933 q 115 956 94 949 q 156 969 136 963 l 153 969 q 189 982 169 975 q 229 993 208 989 q 364 1015 289 1004 q 516 1026 439 1025 q 666 1013 593 1026 q 797 965 739 1000 q 889 871 854 931 q 924 718 924 811 q 877 543 924 615 q 753 420 831 471 q 576 338 676 369 q 365 286 475 307 l 400 108 z "},"p":{"ha":951,"x_min":28,"x_max":924,"o":"m 385 842 q 375 779 379 810 q 367 717 371 749 q 363 649 364 685 q 361 569 361 613 l 361 485 q 503 509 439 494 q 613 547 567 524 q 683 603 658 569 q 708 689 708 638 q 693 784 708 749 q 652 836 678 819 q 593 856 626 853 q 524 856 560 858 q 452 847 489 853 q 385 842 415 842 m 400 108 q 286 -15 400 -15 q 249 -8 271 -15 q 200 14 228 -1 q 172 181 181 100 q 163 356 163 261 q 164 451 163 399 q 169 560 165 504 q 177 673 172 617 q 189 778 182 729 q 133 767 153 767 q 59 788 90 767 q 28 854 28 808 q 49 914 28 886 l 49 911 q 58 926 51 918 q 76 946 65 933 q 115 956 94 949 q 156 969 136 963 l 153 969 q 189 982 169 975 q 229 993 208 989 q 364 1015 289 1004 q 516 1026 439 1025 q 666 1013 593 1026 q 797 965 739 1000 q 889 871 854 931 q 924 718 924 811 q 877 543 924 615 q 753 420 831 471 q 576 338 676 369 q 365 286 475 307 l 400 108 z "},"J":{"ha":788,"x_min":29,"x_max":779,"o":"m 713 1035 q 779 906 779 964 q 761 878 779 888 q 717 864 743 869 q 662 854 690 858 q 611 843 633 850 q 674 534 651 696 q 697 215 697 372 q 692 128 697 171 q 664 51 686 85 q 587 -7 639 13 q 479 -26 535 -26 q 349 -8 426 -26 q 190 58 271 10 q 142 92 169 71 q 89 140 114 113 q 47 197 64 167 q 29 257 29 226 q 65 385 29 315 q 94 347 75 368 q 140 303 114 325 q 197 260 165 281 q 264 222 229 239 q 351 190 307 203 q 440 176 396 176 q 476 180 464 176 q 494 192 488 183 q 492 274 494 225 q 483 395 490 322 q 464 570 476 468 q 429 813 451 672 q 345 799 381 804 q 281 792 310 794 q 229 788 253 789 q 182 788 206 788 q 36 921 36 788 q 36 933 36 928 q 38 947 36 940 l 74 982 q 423 1020 265 1010 q 713 1035 581 1031 z "},"j":{"ha":788,"x_min":29,"x_max":779,"o":"m 713 1035 q 779 906 779 964 q 761 878 779 888 q 717 864 743 869 q 662 854 690 858 q 611 843 633 850 q 674 534 651 696 q 697 215 697 372 q 692 128 697 171 q 664 51 686 85 q 587 -7 639 13 q 479 -26 535 -26 q 349 -8 426 -26 q 190 58 271 10 q 142 92 169 71 q 89 140 114 113 q 47 197 64 167 q 29 257 29 226 q 65 385 29 315 q 94 347 75 368 q 140 303 114 325 q 197 260 165 281 q 264 222 229 239 q 351 190 307 203 q 440 176 396 176 q 476 180 464 176 q 494 192 488 183 q 492 274 494 225 q 483 395 490 322 q 464 570 476 468 q 429 813 451 672 q 345 799 381 804 q 281 792 310 794 q 229 788 253 789 q 182 788 206 788 q 36 921 36 788 q 36 933 36 928 q 38 947 36 940 l 74 982 q 423 1020 265 1010 q 713 1035 581 1031 z "},"Ÿ":{"ha":936,"x_min":26,"x_max":919,"o":"m 388 -347 q 361 -353 375 -350 q 324 -357 347 -357 q 238 -332 271 -357 q 185 -267 204 -307 q 159 -177 167 -228 q 151 -76 151 -126 q 154 2 151 -36 q 163 82 157 40 q 179 172 169 124 q 204 281 189 221 q 142 319 174 293 q 84 381 110 346 q 42 453 58 415 q 26 526 26 492 q 52 686 26 604 q 114 836 78 768 q 188 947 150 904 q 250 990 225 990 q 290 971 271 990 q 310 921 310 951 q 295 851 310 890 q 263 766 281 811 q 231 672 246 721 q 217 574 217 622 q 268 468 217 513 q 306 581 283 518 q 358 710 329 644 q 424 837 388 775 q 501 947 460 899 q 589 1025 543 996 q 685 1054 635 1054 q 794 1027 750 1054 q 867 960 839 1000 q 907 872 894 919 q 919 783 919 825 q 882 601 919 692 q 779 437 844 511 q 626 310 714 363 q 439 239 539 257 q 419 113 428 172 q 403 -8 410 53 q 394 -137 397 -69 q 390 -286 390 -204 l 390 -329 l 388 -347 m 472 453 q 592 528 538 482 q 694 638 646 575 q 754 799 754 714 q 752 828 754 813 q 744 858 750 844 q 726 882 738 872 q 697 892 715 892 q 660 863 682 892 q 613 790 638 835 q 565 693 589 746 q 522 592 542 640 q 488 505 501 543 q 472 453 475 467 m 619 1314 q 663 1305 642 1314 q 699 1280 683 1296 q 724 1243 715 1264 q 733 1199 733 1222 q 724 1156 733 1176 q 700 1120 715 1136 q 665 1094 685 1104 q 624 1085 644 1085 q 578 1092 600 1085 q 539 1115 556 1100 q 512 1148 522 1129 q 501 1190 501 1167 q 534 1278 501 1243 q 619 1314 567 1314 m 306 1314 q 349 1305 328 1314 q 385 1280 369 1296 q 410 1243 401 1264 q 419 1199 419 1222 q 410 1156 419 1176 q 386 1120 401 1136 q 351 1094 371 1104 q 308 1085 331 1085 q 263 1092 285 1085 q 225 1115 242 1100 q 198 1148 208 1129 q 188 1190 188 1167 q 220 1278 188 1243 q 306 1314 253 1314 z "},"¥":{"ha":936,"x_min":-28,"x_max":919,"o":"m 388 -347 q 361 -353 375 -350 q 324 -357 347 -357 q 238 -332 271 -357 q 185 -267 204 -307 q 159 -177 167 -228 q 151 -76 151 -126 q 154 2 151 -36 q 163 82 157 40 q 179 172 169 124 q 204 281 189 221 q 142 319 174 293 q 84 381 110 346 q 42 453 58 415 q 26 526 26 492 q 52 686 26 604 q 114 836 78 768 q 188 947 150 904 q 250 990 225 990 q 290 971 271 990 q 310 921 310 951 q 295 851 310 890 q 263 766 281 811 q 231 672 246 721 q 217 574 217 622 q 268 468 217 513 q 306 581 283 518 q 358 710 329 644 q 424 837 388 775 q 501 947 460 899 q 589 1025 543 996 q 685 1054 635 1054 q 794 1027 750 1054 q 867 960 839 1000 q 907 872 894 919 q 919 783 919 825 q 882 601 919 692 q 779 437 844 511 q 626 310 714 363 q 439 239 539 257 q 419 113 428 172 q 403 -8 410 53 q 394 -137 397 -69 q 390 -286 390 -204 l 390 -329 l 388 -347 m 472 453 q 592 528 538 482 q 694 638 646 575 q 754 799 754 714 q 752 828 754 813 q 744 858 750 844 q 726 882 738 872 q 697 892 715 892 q 660 863 682 892 q 613 790 638 835 q 565 693 589 746 q 522 592 542 640 q 488 505 501 543 q 472 453 475 467 m 101 317 q 102 306 101 311 q 104 301 103 301 q 197 285 151 290 q 288 281 243 281 q 328 281 306 281 q 384 284 350 282 q 469 289 418 286 q 596 297 519 292 q 624 299 610 299 q 653 301 638 300 q 678 299 665 301 q 701 288 690 297 q 713 261 708 276 q 717 231 717 246 q 706 172 717 203 q 667 131 694 142 q 611 137 640 135 q 563 139 582 139 q 414 129 490 135 q 265 124 338 124 q 170 128 218 124 q 74 147 122 133 q 13 185 31 160 q -6 236 -6 210 q 24 290 -6 267 q 101 317 53 314 m 79 96 q 80 85 79 90 q 82 81 81 81 q 175 65 129 69 q 265 60 221 60 q 306 60 283 60 q 362 63 328 61 q 447 68 396 65 q 574 76 497 71 q 601 78 588 78 q 631 81 615 79 q 656 78 643 81 q 679 67 668 76 q 690 40 686 56 q 694 10 694 25 q 683 -49 694 -18 q 644 -90 672 -79 q 589 -84 618 -86 q 540 -82 560 -82 q 392 -92 468 -86 q 243 -97 315 -97 q 148 -92 196 -97 q 51 -74 100 -87 q -10 -36 8 -61 q -28 15 -28 -11 q 1 69 -28 46 q 79 96 31 93 z "},"ß":{"ha":2019,"x_min":31,"x_max":1953,"o":"m 1661 358 q 1656 340 1661 346 q 1594 301 1639 322 q 1497 281 1550 281 q 1465 290 1490 281 q 1406 310 1440 299 q 1333 331 1371 322 q 1264 340 1296 340 q 1211 327 1232 340 q 1190 281 1190 314 q 1208 256 1190 269 q 1256 229 1226 242 q 1331 210 1288 217 q 1422 203 1374 203 q 1544 213 1482 203 q 1658 244 1607 224 q 1740 293 1708 264 q 1772 361 1772 322 q 1750 408 1772 388 q 1692 446 1728 429 q 1612 475 1657 463 q 1521 495 1567 488 q 1433 507 1475 503 q 1361 513 1390 511 q 1170 525 1242 515 q 1061 553 1099 535 q 1012 603 1024 572 q 1000 682 1000 635 q 1039 801 1000 751 q 1138 885 1078 851 q 1267 938 1197 918 q 1399 967 1338 957 q 1503 981 1460 978 q 1553 983 1546 983 q 1748 967 1657 983 q 1908 932 1839 951 q 1931 921 1924 929 q 1939 888 1939 913 q 1919 844 1936 860 q 1878 819 1901 828 q 1832 810 1861 815 q 1786 801 1803 804 q 1715 795 1767 799 q 1598 787 1664 792 q 1460 776 1532 782 q 1329 759 1389 769 q 1231 734 1269 749 q 1192 700 1192 719 q 1228 676 1192 685 q 1314 662 1264 668 q 1417 652 1364 656 q 1504 644 1471 649 q 1687 617 1604 632 q 1828 572 1769 603 q 1920 484 1888 540 q 1953 333 1953 428 q 1924 208 1953 261 q 1852 117 1896 154 q 1754 56 1808 79 q 1649 18 1700 32 q 1554 -1 1597 4 q 1489 -6 1511 -6 q 1319 22 1400 -6 q 1178 90 1239 49 q 1081 182 1117 132 q 1044 278 1044 232 q 1068 368 1044 332 q 1129 425 1092 404 q 1211 454 1167 446 q 1297 463 1256 463 q 1381 457 1336 463 q 1473 440 1426 451 q 1566 410 1519 428 q 1656 369 1613 393 q 1661 358 1661 364 m 692 358 q 686 340 692 346 q 625 301 669 322 q 528 281 581 281 q 496 290 521 281 q 436 310 471 299 q 364 331 401 322 q 294 340 326 340 q 242 327 263 340 q 221 281 221 314 q 239 256 221 269 q 286 229 257 242 q 361 210 318 217 q 453 203 404 203 q 575 213 513 203 q 688 244 638 224 q 771 293 739 264 q 803 361 803 322 q 781 408 803 388 q 723 446 758 429 q 642 475 688 463 q 551 495 597 488 q 463 507 506 503 q 392 513 421 511 q 201 525 272 515 q 92 553 129 535 q 42 603 54 572 q 31 682 31 635 q 69 801 31 751 q 168 885 108 851 q 298 938 228 918 q 429 967 368 957 q 533 981 490 978 q 583 983 576 983 q 778 967 688 983 q 939 932 869 951 q 962 921 954 929 q 969 888 969 913 q 949 844 967 860 q 908 819 932 828 q 863 810 892 815 q 817 801 833 804 q 746 795 797 799 q 628 787 694 792 q 491 776 563 782 q 360 759 419 769 q 261 734 300 749 q 222 700 222 719 q 258 676 222 685 q 344 662 294 668 q 448 652 394 656 q 535 644 501 649 q 717 617 635 632 q 859 572 800 603 q 951 484 918 540 q 983 333 983 428 q 955 208 983 261 q 883 117 926 154 q 785 56 839 79 q 679 18 731 32 q 585 -1 628 4 q 519 -6 542 -6 q 350 22 431 -6 q 208 90 269 49 q 111 182 147 132 q 75 278 75 232 q 99 368 75 332 q 160 425 122 404 q 242 454 197 446 q 328 463 286 463 q 412 457 367 463 q 503 440 457 451 q 597 410 550 428 q 686 369 643 393 q 692 358 692 364 z "},"Œ":{"ha":1504,"x_min":28,"x_max":1483,"o":"m 133 108 q 52 292 76 203 q 28 464 28 381 q 72 670 28 575 q 190 834 117 765 q 360 942 264 903 q 561 981 457 981 q 708 957 653 981 q 775 913 763 933 q 781 913 778 913 q 786 914 783 914 q 876 924 829 915 q 980 944 924 933 q 1104 962 1036 954 q 1258 969 1172 969 q 1303 966 1278 969 q 1375 950 1329 963 q 1404 923 1386 939 q 1440 888 1422 907 q 1471 850 1458 869 q 1483 813 1483 831 q 1469 792 1483 801 q 1432 774 1454 782 q 1385 760 1410 765 q 1342 753 1361 754 q 1268 749 1297 750 q 1215 747 1239 747 q 1169 746 1192 746 q 1121 744 1149 746 q 1100 744 1110 744 q 1081 742 1090 744 q 1067 717 1075 735 q 1060 667 1060 699 q 1064 625 1060 647 q 1072 607 1065 617 q 1093 597 1078 597 l 1299 597 l 1338 592 q 1356 553 1350 576 q 1365 511 1363 531 q 1367 489 1367 504 q 1363 460 1367 474 q 1344 444 1358 446 q 1294 442 1326 443 q 1222 439 1263 440 q 1132 437 1181 438 q 1032 436 1083 436 q 1024 435 1028 436 q 1017 425 1019 433 q 990 340 1006 388 q 975 247 975 292 q 976 226 975 233 q 985 207 978 215 q 1007 199 992 199 q 1074 213 1032 199 q 1164 244 1115 226 q 1264 275 1213 261 q 1360 289 1315 289 q 1385 281 1372 289 q 1410 261 1399 274 q 1430 234 1422 249 q 1440 206 1438 219 q 1442 190 1442 200 q 1431 164 1442 171 q 1365 110 1406 142 q 1274 48 1325 78 q 1160 -3 1222 18 q 1029 -25 1097 -25 q 935 -8 978 -25 q 860 37 892 8 q 806 103 828 65 q 776 182 785 140 q 549 58 675 103 q 294 8 422 14 q 264 -37 286 -17 q 217 -81 242 -57 q 154 22 175 -26 q 133 103 133 69 l 133 108 m 728 697 q 625 665 672 697 q 536 574 578 633 q 456 431 494 515 q 378 244 417 347 l 414 244 q 496 258 450 244 q 589 295 542 271 q 681 353 636 319 q 761 428 726 388 q 817 514 796 468 q 839 608 839 560 q 808 675 839 653 q 728 697 778 697 m 599 846 q 626 853 613 850 q 653 860 639 857 q 586 846 619 854 q 525 828 553 838 q 374 763 438 807 q 269 660 311 718 q 208 535 228 601 q 189 406 189 469 q 191 364 189 385 q 200 322 193 343 q 288 525 244 436 q 378 678 332 614 q 474 783 424 743 q 583 842 525 824 l 599 846 z "},"Æ":{"ha":1344,"x_min":28,"x_max":1314,"o":"m 514 1050 q 527 1063 521 1061 q 544 1064 533 1064 l 561 1064 q 588 1056 575 1064 q 613 1035 601 1047 q 631 1007 624 1022 q 642 978 639 992 q 658 928 647 960 q 680 859 668 896 q 702 785 692 822 q 717 719 713 747 q 722 685 719 701 q 726 651 724 668 q 745 512 736 576 q 760 386 754 447 q 769 263 765 325 q 772 128 772 200 q 772 67 772 92 q 772 26 772 43 q 769 -3 771 10 q 764 -28 767 -15 q 733 -36 751 -36 q 663 2 693 -36 q 608 94 632 40 l 597 256 l 508 256 q 447 256 472 256 q 403 257 421 257 q 375 258 386 257 q 356 258 364 258 q 339 256 342 258 q 311 228 324 250 q 288 176 299 207 q 265 107 276 144 q 239 31 253 69 l 208 -50 q 142 -72 186 -72 q 116 -69 129 -72 q 86 -64 103 -67 q 45 -2 57 -32 q 33 72 33 28 q 53 183 33 122 q 111 311 74 244 q 92 374 111 344 q 28 411 72 404 l 33 464 q 51 461 42 461 q 72 461 61 461 l 164 461 q 206 548 181 496 q 260 655 231 600 q 318 763 289 710 q 372 853 347 815 l 506 1017 l 514 1050 m 414 475 q 453 472 433 472 q 492 472 472 472 q 532 472 511 472 q 572 475 553 472 q 572 526 572 494 q 567 590 571 557 q 555 657 563 624 q 533 714 547 690 q 501 681 518 710 q 467 615 483 653 q 435 539 450 578 q 414 475 421 500 m 1271 206 q 1272 190 1272 200 q 1261 164 1272 171 q 1196 110 1236 142 q 1104 48 1156 78 q 990 -3 1053 18 q 860 -25 928 -25 q 752 -3 800 -25 q 671 56 704 19 q 619 140 638 93 q 601 238 601 188 q 615 335 601 282 q 639 444 628 389 q 618 482 631 465 q 606 528 606 499 q 608 549 606 539 q 613 572 610 558 q 645 585 628 579 q 682 594 663 592 l 726 747 q 670 772 701 758 q 613 800 639 785 q 568 835 586 815 q 550 879 550 854 q 567 905 550 899 q 617 914 585 911 q 707 924 660 915 q 810 944 754 933 q 935 962 867 954 q 1089 969 1003 969 q 1134 966 1108 969 q 1206 950 1160 963 q 1235 923 1217 939 q 1271 888 1253 907 q 1301 850 1289 869 q 1314 813 1314 831 q 1299 792 1314 801 q 1263 774 1285 782 q 1216 760 1240 765 q 1172 753 1192 754 q 1099 749 1128 750 q 1046 747 1069 747 q 1000 746 1022 746 q 951 744 979 746 q 931 744 940 744 q 911 742 921 744 q 898 717 906 735 q 890 667 890 699 q 894 625 890 647 q 902 607 896 617 q 924 597 908 597 l 1129 597 l 1168 592 q 1187 553 1181 576 q 1196 511 1193 531 q 1197 489 1197 504 q 1193 460 1197 474 q 1175 444 1189 446 q 1125 442 1157 443 q 1052 439 1093 440 q 963 437 1011 438 q 863 436 914 436 q 854 435 858 436 q 847 425 850 433 q 821 340 836 388 q 806 247 806 292 q 807 226 806 233 q 815 207 808 215 q 838 199 822 199 q 904 213 863 199 q 994 244 946 226 q 1094 275 1043 261 q 1190 289 1146 289 q 1216 281 1203 289 q 1241 261 1229 274 q 1260 234 1253 249 q 1271 206 1268 219 z "},"|":{"ha":469,"x_min":132,"x_max":322,"o":"m 182 1101 q 276 1047 247 1099 q 308 901 306 996 q 313 687 311 800 q 317 458 315 574 q 321 231 319 343 q 322 18 322 118 q 319 -22 322 -1 q 307 -60 315 -43 q 284 -87 299 -76 q 247 -97 269 -97 q 214 -92 233 -97 q 179 -79 194 -86 q 160 -50 168 -74 q 145 2 151 -26 q 136 58 139 31 q 132 97 133 85 q 137 331 135 224 q 143 549 139 439 q 153 785 147 660 q 169 1076 160 911 q 182 1101 171 1101 z "},"À":{"ha":842,"x_min":28,"x_max":772,"o":"m 514 1050 q 527 1063 521 1061 q 544 1064 533 1064 l 561 1064 q 588 1056 575 1064 q 613 1035 601 1047 q 631 1007 624 1022 q 642 978 639 992 q 658 928 647 960 q 680 859 668 896 q 702 785 692 822 q 717 719 713 747 q 722 685 719 701 q 726 651 724 668 q 745 512 736 576 q 760 386 754 447 q 769 263 765 325 q 772 128 772 200 q 772 67 772 92 q 772 26 772 43 q 769 -3 771 10 q 764 -28 767 -15 q 733 -36 751 -36 q 663 2 693 -36 q 608 94 632 40 l 597 256 l 508 256 q 447 256 472 256 q 403 257 421 257 q 375 258 386 257 q 356 258 364 258 q 339 256 342 258 q 311 228 324 250 q 288 176 299 207 q 265 107 276 144 q 239 31 253 69 l 208 -50 q 142 -72 186 -72 q 116 -69 129 -72 q 86 -64 103 -67 q 45 -2 57 -32 q 33 72 33 28 q 53 183 33 122 q 111 311 74 244 q 92 374 111 344 q 28 411 72 404 l 33 464 q 51 461 42 461 q 72 461 61 461 l 164 461 q 206 548 181 496 q 260 655 231 600 q 318 763 289 710 q 372 853 347 815 l 506 1017 l 514 1050 m 414 475 q 453 472 433 472 q 492 472 472 472 q 532 472 511 472 q 572 475 553 472 q 572 526 572 494 q 567 590 571 557 q 555 657 563 624 q 533 714 547 690 q 501 681 518 710 q 467 615 483 653 q 435 539 450 578 q 414 475 421 500 z "},"Á":{"ha":842,"x_min":28,"x_max":772,"o":"m 514 1050 q 527 1063 521 1061 q 544 1064 533 1064 l 561 1064 q 588 1056 575 1064 q 613 1035 601 1047 q 631 1007 624 1022 q 642 978 639 992 q 658 928 647 960 q 680 859 668 896 q 702 785 692 822 q 717 719 713 747 q 722 685 719 701 q 726 651 724 668 q 745 512 736 576 q 760 386 754 447 q 769 263 765 325 q 772 128 772 200 q 772 67 772 92 q 772 26 772 43 q 769 -3 771 10 q 764 -28 767 -15 q 733 -36 751 -36 q 663 2 693 -36 q 608 94 632 40 l 597 256 l 508 256 q 447 256 472 256 q 403 257 421 257 q 375 258 386 257 q 356 258 364 258 q 339 256 342 258 q 311 228 324 250 q 288 176 299 207 q 265 107 276 144 q 239 31 253 69 l 208 -50 q 142 -72 186 -72 q 116 -69 129 -72 q 86 -64 103 -67 q 45 -2 57 -32 q 33 72 33 28 q 53 183 33 122 q 111 311 74 244 q 92 374 111 344 q 28 411 72 404 l 33 464 q 51 461 42 461 q 72 461 61 461 l 164 461 q 206 548 181 496 q 260 655 231 600 q 318 763 289 710 q 372 853 347 815 l 506 1017 l 514 1050 m 414 475 q 453 472 433 472 q 492 472 472 472 q 532 472 511 472 q 572 475 553 472 q 572 526 572 494 q 567 590 571 557 q 555 657 563 624 q 533 714 547 690 q 501 681 518 710 q 467 615 483 653 q 435 539 450 578 q 414 475 421 500 z "},"Â":{"ha":842,"x_min":28,"x_max":772,"o":"m 514 1050 q 527 1063 521 1061 q 544 1064 533 1064 l 561 1064 q 588 1056 575 1064 q 613 1035 601 1047 q 631 1007 624 1022 q 642 978 639 992 q 658 928 647 960 q 680 859 668 896 q 702 785 692 822 q 717 719 713 747 q 722 685 719 701 q 726 651 724 668 q 745 512 736 576 q 760 386 754 447 q 769 263 765 325 q 772 128 772 200 q 772 67 772 92 q 772 26 772 43 q 769 -3 771 10 q 764 -28 767 -15 q 733 -36 751 -36 q 663 2 693 -36 q 608 94 632 40 l 597 256 l 508 256 q 447 256 472 256 q 403 257 421 257 q 375 258 386 257 q 356 258 364 258 q 339 256 342 258 q 311 228 324 250 q 288 176 299 207 q 265 107 276 144 q 239 31 253 69 l 208 -50 q 142 -72 186 -72 q 116 -69 129 -72 q 86 -64 103 -67 q 45 -2 57 -32 q 33 72 33 28 q 53 183 33 122 q 111 311 74 244 q 92 374 111 344 q 28 411 72 404 l 33 464 q 51 461 42 461 q 72 461 61 461 l 164 461 q 206 548 181 496 q 260 655 231 600 q 318 763 289 710 q 372 853 347 815 l 506 1017 l 514 1050 m 414 475 q 453 472 433 472 q 492 472 472 472 q 532 472 511 472 q 572 475 553 472 q 572 526 572 494 q 567 590 571 557 q 555 657 563 624 q 533 714 547 690 q 501 681 518 710 q 467 615 483 653 q 435 539 450 578 q 414 475 421 500 z "},"Ã":{"ha":842,"x_min":28,"x_max":772,"o":"m 514 1050 q 527 1063 521 1061 q 544 1064 533 1064 l 561 1064 q 588 1056 575 1064 q 613 1035 601 1047 q 631 1007 624 1022 q 642 978 639 992 q 658 928 647 960 q 680 859 668 896 q 702 785 692 822 q 717 719 713 747 q 722 685 719 701 q 726 651 724 668 q 745 512 736 576 q 760 386 754 447 q 769 263 765 325 q 772 128 772 200 q 772 67 772 92 q 772 26 772 43 q 769 -3 771 10 q 764 -28 767 -15 q 733 -36 751 -36 q 663 2 693 -36 q 608 94 632 40 l 597 256 l 508 256 q 447 256 472 256 q 403 257 421 257 q 375 258 386 257 q 356 258 364 258 q 339 256 342 258 q 311 228 324 250 q 288 176 299 207 q 265 107 276 144 q 239 31 253 69 l 208 -50 q 142 -72 186 -72 q 116 -69 129 -72 q 86 -64 103 -67 q 45 -2 57 -32 q 33 72 33 28 q 53 183 33 122 q 111 311 74 244 q 92 374 111 344 q 28 411 72 404 l 33 464 q 51 461 42 461 q 72 461 61 461 l 164 461 q 206 548 181 496 q 260 655 231 600 q 318 763 289 710 q 372 853 347 815 l 506 1017 l 514 1050 m 414 475 q 453 472 433 472 q 492 472 472 472 q 532 472 511 472 q 572 475 553 472 q 572 526 572 494 q 567 590 571 557 q 555 657 563 624 q 533 714 547 690 q 501 681 518 710 q 467 615 483 653 q 435 539 450 578 q 414 475 421 500 z "},"Ä":{"ha":842,"x_min":28,"x_max":772,"o":"m 514 1050 q 527 1063 521 1061 q 544 1064 533 1064 l 561 1064 q 588 1056 575 1064 q 613 1035 601 1047 q 631 1007 624 1022 q 642 978 639 992 q 658 928 647 960 q 680 859 668 896 q 702 785 692 822 q 717 719 713 747 q 722 685 719 701 q 726 651 724 668 q 745 512 736 576 q 760 386 754 447 q 769 263 765 325 q 772 128 772 200 q 772 67 772 92 q 772 26 772 43 q 769 -3 771 10 q 764 -28 767 -15 q 733 -36 751 -36 q 663 2 693 -36 q 608 94 632 40 l 597 256 l 508 256 q 447 256 472 256 q 403 257 421 257 q 375 258 386 257 q 356 258 364 258 q 339 256 342 258 q 311 228 324 250 q 288 176 299 207 q 265 107 276 144 q 239 31 253 69 l 208 -50 q 142 -72 186 -72 q 116 -69 129 -72 q 86 -64 103 -67 q 45 -2 57 -32 q 33 72 33 28 q 53 183 33 122 q 111 311 74 244 q 92 374 111 344 q 28 411 72 404 l 33 464 q 51 461 42 461 q 72 461 61 461 l 164 461 q 206 548 181 496 q 260 655 231 600 q 318 763 289 710 q 372 853 347 815 l 506 1017 l 514 1050 m 414 475 q 453 472 433 472 q 492 472 472 472 q 532 472 511 472 q 572 475 553 472 q 572 526 572 494 q 567 590 571 557 q 555 657 563 624 q 533 714 547 690 q 501 681 518 710 q 467 615 483 653 q 435 539 450 578 q 414 475 421 500 z "},"Å":{"ha":842,"x_min":28,"x_max":772,"o":"m 514 1050 q 527 1063 521 1061 q 544 1064 533 1064 l 561 1064 q 588 1056 575 1064 q 613 1035 601 1047 q 631 1007 624 1022 q 642 978 639 992 q 658 928 647 960 q 680 859 668 896 q 702 785 692 822 q 717 719 713 747 q 722 685 719 701 q 726 651 724 668 q 745 512 736 576 q 760 386 754 447 q 769 263 765 325 q 772 128 772 200 q 772 67 772 92 q 772 26 772 43 q 769 -3 771 10 q 764 -28 767 -15 q 733 -36 751 -36 q 663 2 693 -36 q 608 94 632 40 l 597 256 l 508 256 q 447 256 472 256 q 403 257 421 257 q 375 258 386 257 q 356 258 364 258 q 339 256 342 258 q 311 228 324 250 q 288 176 299 207 q 265 107 276 144 q 239 31 253 69 l 208 -50 q 142 -72 186 -72 q 116 -69 129 -72 q 86 -64 103 -67 q 45 -2 57 -32 q 33 72 33 28 q 53 183 33 122 q 111 311 74 244 q 92 374 111 344 q 28 411 72 404 l 33 464 q 51 461 42 461 q 72 461 61 461 l 164 461 q 206 548 181 496 q 260 655 231 600 q 318 763 289 710 q 372 853 347 815 l 506 1017 l 514 1050 m 414 475 q 453 472 433 472 q 492 472 472 472 q 532 472 511 472 q 572 475 553 472 q 572 526 572 494 q 567 590 571 557 q 555 657 563 624 q 533 714 547 690 q 501 681 518 710 q 467 615 483 653 q 435 539 450 578 q 414 475 421 500 z "},"à":{"ha":842,"x_min":28,"x_max":772,"o":"m 514 1050 q 527 1063 521 1061 q 544 1064 533 1064 l 561 1064 q 588 1056 575 1064 q 613 1035 601 1047 q 631 1007 624 1022 q 642 978 639 992 q 658 928 647 960 q 680 859 668 896 q 702 785 692 822 q 717 719 713 747 q 722 685 719 701 q 726 651 724 668 q 745 512 736 576 q 760 386 754 447 q 769 263 765 325 q 772 128 772 200 q 772 67 772 92 q 772 26 772 43 q 769 -3 771 10 q 764 -28 767 -15 q 733 -36 751 -36 q 663 2 693 -36 q 608 94 632 40 l 597 256 l 508 256 q 447 256 472 256 q 403 257 421 257 q 375 258 386 257 q 356 258 364 258 q 339 256 342 258 q 311 228 324 250 q 288 176 299 207 q 265 107 276 144 q 239 31 253 69 l 208 -50 q 142 -72 186 -72 q 116 -69 129 -72 q 86 -64 103 -67 q 45 -2 57 -32 q 33 72 33 28 q 53 183 33 122 q 111 311 74 244 q 92 374 111 344 q 28 411 72 404 l 33 464 q 51 461 42 461 q 72 461 61 461 l 164 461 q 206 548 181 496 q 260 655 231 600 q 318 763 289 710 q 372 853 347 815 l 506 1017 l 514 1050 m 414 475 q 453 472 433 472 q 492 472 472 472 q 532 472 511 472 q 572 475 553 472 q 572 526 572 494 q 567 590 571 557 q 555 657 563 624 q 533 714 547 690 q 501 681 518 710 q 467 615 483 653 q 435 539 450 578 q 414 475 421 500 z "},"á":{"ha":842,"x_min":28,"x_max":772,"o":"m 514 1050 q 527 1063 521 1061 q 544 1064 533 1064 l 561 1064 q 588 1056 575 1064 q 613 1035 601 1047 q 631 1007 624 1022 q 642 978 639 992 q 658 928 647 960 q 680 859 668 896 q 702 785 692 822 q 717 719 713 747 q 722 685 719 701 q 726 651 724 668 q 745 512 736 576 q 760 386 754 447 q 769 263 765 325 q 772 128 772 200 q 772 67 772 92 q 772 26 772 43 q 769 -3 771 10 q 764 -28 767 -15 q 733 -36 751 -36 q 663 2 693 -36 q 608 94 632 40 l 597 256 l 508 256 q 447 256 472 256 q 403 257 421 257 q 375 258 386 257 q 356 258 364 258 q 339 256 342 258 q 311 228 324 250 q 288 176 299 207 q 265 107 276 144 q 239 31 253 69 l 208 -50 q 142 -72 186 -72 q 116 -69 129 -72 q 86 -64 103 -67 q 45 -2 57 -32 q 33 72 33 28 q 53 183 33 122 q 111 311 74 244 q 92 374 111 344 q 28 411 72 404 l 33 464 q 51 461 42 461 q 72 461 61 461 l 164 461 q 206 548 181 496 q 260 655 231 600 q 318 763 289 710 q 372 853 347 815 l 506 1017 l 514 1050 m 414 475 q 453 472 433 472 q 492 472 472 472 q 532 472 511 472 q 572 475 553 472 q 572 526 572 494 q 567 590 571 557 q 555 657 563 624 q 533 714 547 690 q 501 681 518 710 q 467 615 483 653 q 435 539 450 578 q 414 475 421 500 z "},"â":{"ha":842,"x_min":28,"x_max":772,"o":"m 514 1050 q 527 1063 521 1061 q 544 1064 533 1064 l 561 1064 q 588 1056 575 1064 q 613 1035 601 1047 q 631 1007 624 1022 q 642 978 639 992 q 658 928 647 960 q 680 859 668 896 q 702 785 692 822 q 717 719 713 747 q 722 685 719 701 q 726 651 724 668 q 745 512 736 576 q 760 386 754 447 q 769 263 765 325 q 772 128 772 200 q 772 67 772 92 q 772 26 772 43 q 769 -3 771 10 q 764 -28 767 -15 q 733 -36 751 -36 q 663 2 693 -36 q 608 94 632 40 l 597 256 l 508 256 q 447 256 472 256 q 403 257 421 257 q 375 258 386 257 q 356 258 364 258 q 339 256 342 258 q 311 228 324 250 q 288 176 299 207 q 265 107 276 144 q 239 31 253 69 l 208 -50 q 142 -72 186 -72 q 116 -69 129 -72 q 86 -64 103 -67 q 45 -2 57 -32 q 33 72 33 28 q 53 183 33 122 q 111 311 74 244 q 92 374 111 344 q 28 411 72 404 l 33 464 q 51 461 42 461 q 72 461 61 461 l 164 461 q 206 548 181 496 q 260 655 231 600 q 318 763 289 710 q 372 853 347 815 l 506 1017 l 514 1050 m 414 475 q 453 472 433 472 q 492 472 472 472 q 532 472 511 472 q 572 475 553 472 q 572 526 572 494 q 567 590 571 557 q 555 657 563 624 q 533 714 547 690 q 501 681 518 710 q 467 615 483 653 q 435 539 450 578 q 414 475 421 500 z "},"ã":{"ha":842,"x_min":28,"x_max":772,"o":"m 514 1050 q 527 1063 521 1061 q 544 1064 533 1064 l 561 1064 q 588 1056 575 1064 q 613 1035 601 1047 q 631 1007 624 1022 q 642 978 639 992 q 658 928 647 960 q 680 859 668 896 q 702 785 692 822 q 717 719 713 747 q 722 685 719 701 q 726 651 724 668 q 745 512 736 576 q 760 386 754 447 q 769 263 765 325 q 772 128 772 200 q 772 67 772 92 q 772 26 772 43 q 769 -3 771 10 q 764 -28 767 -15 q 733 -36 751 -36 q 663 2 693 -36 q 608 94 632 40 l 597 256 l 508 256 q 447 256 472 256 q 403 257 421 257 q 375 258 386 257 q 356 258 364 258 q 339 256 342 258 q 311 228 324 250 q 288 176 299 207 q 265 107 276 144 q 239 31 253 69 l 208 -50 q 142 -72 186 -72 q 116 -69 129 -72 q 86 -64 103 -67 q 45 -2 57 -32 q 33 72 33 28 q 53 183 33 122 q 111 311 74 244 q 92 374 111 344 q 28 411 72 404 l 33 464 q 51 461 42 461 q 72 461 61 461 l 164 461 q 206 548 181 496 q 260 655 231 600 q 318 763 289 710 q 372 853 347 815 l 506 1017 l 514 1050 m 414 475 q 453 472 433 472 q 492 472 472 472 q 532 472 511 472 q 572 475 553 472 q 572 526 572 494 q 567 590 571 557 q 555 657 563 624 q 533 714 547 690 q 501 681 518 710 q 467 615 483 653 q 435 539 450 578 q 414 475 421 500 z "},"ä":{"ha":842,"x_min":28,"x_max":772,"o":"m 514 1050 q 527 1063 521 1061 q 544 1064 533 1064 l 561 1064 q 588 1056 575 1064 q 613 1035 601 1047 q 631 1007 624 1022 q 642 978 639 992 q 658 928 647 960 q 680 859 668 896 q 702 785 692 822 q 717 719 713 747 q 722 685 719 701 q 726 651 724 668 q 745 512 736 576 q 760 386 754 447 q 769 263 765 325 q 772 128 772 200 q 772 67 772 92 q 772 26 772 43 q 769 -3 771 10 q 764 -28 767 -15 q 733 -36 751 -36 q 663 2 693 -36 q 608 94 632 40 l 597 256 l 508 256 q 447 256 472 256 q 403 257 421 257 q 375 258 386 257 q 356 258 364 258 q 339 256 342 258 q 311 228 324 250 q 288 176 299 207 q 265 107 276 144 q 239 31 253 69 l 208 -50 q 142 -72 186 -72 q 116 -69 129 -72 q 86 -64 103 -67 q 45 -2 57 -32 q 33 72 33 28 q 53 183 33 122 q 111 311 74 244 q 92 374 111 344 q 28 411 72 404 l 33 464 q 51 461 42 461 q 72 461 61 461 l 164 461 q 206 548 181 496 q 260 655 231 600 q 318 763 289 710 q 372 853 347 815 l 506 1017 l 514 1050 m 414 475 q 453 472 433 472 q 492 472 472 472 q 532 472 511 472 q 572 475 553 472 q 572 526 572 494 q 567 590 571 557 q 555 657 563 624 q 533 714 547 690 q 501 681 518 710 q 467 615 483 653 q 435 539 450 578 q 414 475 421 500 z "},"å":{"ha":842,"x_min":28,"x_max":772,"o":"m 514 1050 q 527 1063 521 1061 q 544 1064 533 1064 l 561 1064 q 588 1056 575 1064 q 613 1035 601 1047 q 631 1007 624 1022 q 642 978 639 992 q 658 928 647 960 q 680 859 668 896 q 702 785 692 822 q 717 719 713 747 q 722 685 719 701 q 726 651 724 668 q 745 512 736 576 q 760 386 754 447 q 769 263 765 325 q 772 128 772 200 q 772 67 772 92 q 772 26 772 43 q 769 -3 771 10 q 764 -28 767 -15 q 733 -36 751 -36 q 663 2 693 -36 q 608 94 632 40 l 597 256 l 508 256 q 447 256 472 256 q 403 257 421 257 q 375 258 386 257 q 356 258 364 258 q 339 256 342 258 q 311 228 324 250 q 288 176 299 207 q 265 107 276 144 q 239 31 253 69 l 208 -50 q 142 -72 186 -72 q 116 -69 129 -72 q 86 -64 103 -67 q 45 -2 57 -32 q 33 72 33 28 q 53 183 33 122 q 111 311 74 244 q 92 374 111 344 q 28 411 72 404 l 33 464 q 51 461 42 461 q 72 461 61 461 l 164 461 q 206 548 181 496 q 260 655 231 600 q 318 763 289 710 q 372 853 347 815 l 506 1017 l 514 1050 m 414 475 q 453 472 433 472 q 492 472 472 472 q 532 472 511 472 q 572 475 553 472 q 572 526 572 494 q 567 590 571 557 q 555 657 563 624 q 533 714 547 690 q 501 681 518 710 q 467 615 483 653 q 435 539 450 578 q 414 475 421 500 z "},"æ":{"ha":1344,"x_min":28,"x_max":1314,"o":"m 514 1050 q 527 1063 521 1061 q 544 1064 533 1064 l 561 1064 q 588 1056 575 1064 q 613 1035 601 1047 q 631 1007 624 1022 q 642 978 639 992 q 658 928 647 960 q 680 859 668 896 q 702 785 692 822 q 717 719 713 747 q 722 685 719 701 q 726 651 724 668 q 745 512 736 576 q 760 386 754 447 q 769 263 765 325 q 772 128 772 200 q 772 67 772 92 q 772 26 772 43 q 769 -3 771 10 q 764 -28 767 -15 q 733 -36 751 -36 q 663 2 693 -36 q 608 94 632 40 l 597 256 l 508 256 q 447 256 472 256 q 403 257 421 257 q 375 258 386 257 q 356 258 364 258 q 339 256 342 258 q 311 228 324 250 q 288 176 299 207 q 265 107 276 144 q 239 31 253 69 l 208 -50 q 142 -72 186 -72 q 116 -69 129 -72 q 86 -64 103 -67 q 45 -2 57 -32 q 33 72 33 28 q 53 183 33 122 q 111 311 74 244 q 92 374 111 344 q 28 411 72 404 l 33 464 q 51 461 42 461 q 72 461 61 461 l 164 461 q 206 548 181 496 q 260 655 231 600 q 318 763 289 710 q 372 853 347 815 l 506 1017 l 514 1050 m 414 475 q 453 472 433 472 q 492 472 472 472 q 532 472 511 472 q 572 475 553 472 q 572 526 572 494 q 567 590 571 557 q 555 657 563 624 q 533 714 547 690 q 501 681 518 710 q 467 615 483 653 q 435 539 450 578 q 414 475 421 500 m 1271 206 q 1272 190 1272 200 q 1261 164 1272 171 q 1196 110 1236 142 q 1104 48 1156 78 q 990 -3 1053 18 q 860 -25 928 -25 q 752 -3 800 -25 q 671 56 704 19 q 619 140 638 93 q 601 238 601 188 q 615 335 601 282 q 639 444 628 389 q 618 482 631 465 q 606 528 606 499 q 608 549 606 539 q 613 572 610 558 q 645 585 628 579 q 682 594 663 592 l 726 747 q 670 772 701 758 q 613 800 639 785 q 568 835 586 815 q 550 879 550 854 q 567 905 550 899 q 617 914 585 911 q 707 924 660 915 q 810 944 754 933 q 935 962 867 954 q 1089 969 1003 969 q 1134 966 1108 969 q 1206 950 1160 963 q 1235 923 1217 939 q 1271 888 1253 907 q 1301 850 1289 869 q 1314 813 1314 831 q 1299 792 1314 801 q 1263 774 1285 782 q 1216 760 1240 765 q 1172 753 1192 754 q 1099 749 1128 750 q 1046 747 1069 747 q 1000 746 1022 746 q 951 744 979 746 q 931 744 940 744 q 911 742 921 744 q 898 717 906 735 q 890 667 890 699 q 894 625 890 647 q 902 607 896 617 q 924 597 908 597 l 1129 597 l 1168 592 q 1187 553 1181 576 q 1196 511 1193 531 q 1197 489 1197 504 q 1193 460 1197 474 q 1175 444 1189 446 q 1125 442 1157 443 q 1052 439 1093 440 q 963 437 1011 438 q 863 436 914 436 q 854 435 858 436 q 847 425 850 433 q 821 340 836 388 q 806 247 806 292 q 807 226 806 233 q 815 207 808 215 q 838 199 822 199 q 904 213 863 199 q 994 244 946 226 q 1094 275 1043 261 q 1190 289 1146 289 q 1216 281 1203 289 q 1241 261 1229 274 q 1260 234 1253 249 q 1271 206 1268 219 z "},"Ç":{"ha":914,"x_min":28,"x_max":817,"o":"m 775 242 q 805 206 793 226 q 817 153 817 185 q 797 94 817 119 q 744 49 778 68 q 669 18 711 31 q 582 -1 628 6 q 492 -11 536 -8 q 410 -14 447 -14 q 267 29 336 -14 q 144 140 197 72 q 60 290 92 207 q 28 456 28 374 q 67 661 28 565 q 178 827 106 757 q 356 938 251 897 q 593 978 461 978 q 641 976 614 978 q 694 969 668 975 q 742 951 719 963 q 775 917 764 939 q 790 888 783 899 q 799 869 796 878 q 804 850 803 860 q 806 825 806 840 q 803 786 806 806 q 793 742 800 767 q 748 724 769 731 q 706 717 726 717 q 572 803 625 717 l 443 767 q 363 733 403 756 q 290 671 322 710 q 237 577 257 632 q 217 447 217 522 q 233 365 217 411 q 278 279 249 319 q 352 211 308 239 q 451 183 396 183 q 559 200 500 183 q 694 242 618 217 l 775 242 m 425 74 q 458 79 436 79 q 513 66 486 79 q 544 25 540 53 q 531 -7 539 6 q 515 -31 524 -19 q 557 -95 539 -60 q 575 -171 575 -131 q 574 -186 575 -179 q 571 -204 574 -193 l 572 -203 q 528 -271 561 -250 q 456 -292 496 -292 q 384 -285 424 -292 q 321 -254 344 -278 q 303 -228 308 -242 q 299 -200 299 -214 q 322 -150 299 -175 q 378 -110 346 -125 q 399 -153 382 -147 q 431 -160 415 -160 l 435 -160 q 417 -128 432 -144 q 388 -97 403 -111 l 372 -82 q 351 -35 351 -61 q 372 14 351 -6 q 394 37 386 28 q 413 61 403 46 l 425 74 z "},"ç":{"ha":914,"x_min":28,"x_max":817,"o":"m 775 242 q 805 206 793 226 q 817 153 817 185 q 797 94 817 119 q 744 49 778 68 q 669 18 711 31 q 582 -1 628 6 q 492 -11 536 -8 q 410 -14 447 -14 q 267 29 336 -14 q 144 140 197 72 q 60 290 92 207 q 28 456 28 374 q 67 661 28 565 q 178 827 106 757 q 356 938 251 897 q 593 978 461 978 q 641 976 614 978 q 694 969 668 975 q 742 951 719 963 q 775 917 764 939 q 790 888 783 899 q 799 869 796 878 q 804 850 803 860 q 806 825 806 840 q 803 786 806 806 q 793 742 800 767 q 748 724 769 731 q 706 717 726 717 q 572 803 625 717 l 443 767 q 363 733 403 756 q 290 671 322 710 q 237 577 257 632 q 217 447 217 522 q 233 365 217 411 q 278 279 249 319 q 352 211 308 239 q 451 183 396 183 q 559 200 500 183 q 694 242 618 217 l 775 242 m 425 74 q 458 79 436 79 q 513 66 486 79 q 544 25 540 53 q 531 -7 539 6 q 515 -31 524 -19 q 557 -95 539 -60 q 575 -171 575 -131 q 574 -186 575 -179 q 571 -204 574 -193 l 572 -203 q 528 -271 561 -250 q 456 -292 496 -292 q 384 -285 424 -292 q 321 -254 344 -278 q 303 -228 308 -242 q 299 -200 299 -214 q 322 -150 299 -175 q 378 -110 346 -125 q 399 -153 382 -147 q 431 -160 415 -160 l 435 -160 q 417 -128 432 -144 q 388 -97 403 -111 l 372 -82 q 351 -35 351 -61 q 372 14 351 -6 q 394 37 386 28 q 413 61 403 46 l 425 74 z "},"È":{"ha":847,"x_min":42,"x_max":806,"o":"m 763 206 q 764 190 764 200 q 753 164 764 171 q 688 110 728 142 q 596 48 647 78 q 482 -3 544 18 q 351 -25 419 -25 q 244 -3 292 -25 q 163 56 196 19 q 111 140 129 93 q 93 238 93 188 q 106 335 93 282 q 131 444 119 389 q 110 482 122 465 q 97 528 97 499 q 99 549 97 539 q 104 572 101 558 q 137 585 119 579 q 174 594 154 592 l 218 747 q 162 772 193 758 q 104 800 131 785 q 60 835 78 815 q 42 879 42 854 q 59 905 42 899 q 108 914 76 911 q 199 924 151 915 q 302 944 246 933 q 426 962 358 954 q 581 969 494 969 q 626 966 600 969 q 697 950 651 963 q 726 923 708 939 q 763 888 744 907 q 793 850 781 869 q 806 813 806 831 q 791 792 806 801 q 754 774 776 782 q 708 760 732 765 q 664 753 683 754 q 590 749 619 750 q 538 747 561 747 q 492 746 514 746 q 443 744 471 746 q 422 744 432 744 q 403 742 413 744 q 390 717 397 735 q 382 667 382 699 q 386 625 382 647 q 394 607 388 617 q 415 597 400 597 l 621 597 l 660 592 q 678 553 672 576 q 688 511 685 531 q 689 489 689 504 q 685 460 689 474 q 667 444 681 446 q 617 442 649 443 q 544 439 585 440 q 454 437 503 438 q 354 436 406 436 q 346 435 350 436 q 339 425 342 433 q 313 340 328 388 q 297 247 297 292 q 299 226 297 233 q 307 207 300 215 q 329 199 314 199 q 396 213 354 199 q 486 244 438 226 q 586 275 535 261 q 682 289 638 289 q 708 281 694 289 q 733 261 721 274 q 752 234 744 249 q 763 206 760 219 z "},"É":{"ha":847,"x_min":42,"x_max":806,"o":"m 763 206 q 764 190 764 200 q 753 164 764 171 q 688 110 728 142 q 596 48 647 78 q 482 -3 544 18 q 351 -25 419 -25 q 244 -3 292 -25 q 163 56 196 19 q 111 140 129 93 q 93 238 93 188 q 106 335 93 282 q 131 444 119 389 q 110 482 122 465 q 97 528 97 499 q 99 549 97 539 q 104 572 101 558 q 137 585 119 579 q 174 594 154 592 l 218 747 q 162 772 193 758 q 104 800 131 785 q 60 835 78 815 q 42 879 42 854 q 59 905 42 899 q 108 914 76 911 q 199 924 151 915 q 302 944 246 933 q 426 962 358 954 q 581 969 494 969 q 626 966 600 969 q 697 950 651 963 q 726 923 708 939 q 763 888 744 907 q 793 850 781 869 q 806 813 806 831 q 791 792 806 801 q 754 774 776 782 q 708 760 732 765 q 664 753 683 754 q 590 749 619 750 q 538 747 561 747 q 492 746 514 746 q 443 744 471 746 q 422 744 432 744 q 403 742 413 744 q 390 717 397 735 q 382 667 382 699 q 386 625 382 647 q 394 607 388 617 q 415 597 400 597 l 621 597 l 660 592 q 678 553 672 576 q 688 511 685 531 q 689 489 689 504 q 685 460 689 474 q 667 444 681 446 q 617 442 649 443 q 544 439 585 440 q 454 437 503 438 q 354 436 406 436 q 346 435 350 436 q 339 425 342 433 q 313 340 328 388 q 297 247 297 292 q 299 226 297 233 q 307 207 300 215 q 329 199 314 199 q 396 213 354 199 q 486 244 438 226 q 586 275 535 261 q 682 289 638 289 q 708 281 694 289 q 733 261 721 274 q 752 234 744 249 q 763 206 760 219 z "},"Ê":{"ha":847,"x_min":42,"x_max":806,"o":"m 763 206 q 764 190 764 200 q 753 164 764 171 q 688 110 728 142 q 596 48 647 78 q 482 -3 544 18 q 351 -25 419 -25 q 244 -3 292 -25 q 163 56 196 19 q 111 140 129 93 q 93 238 93 188 q 106 335 93 282 q 131 444 119 389 q 110 482 122 465 q 97 528 97 499 q 99 549 97 539 q 104 572 101 558 q 137 585 119 579 q 174 594 154 592 l 218 747 q 162 772 193 758 q 104 800 131 785 q 60 835 78 815 q 42 879 42 854 q 59 905 42 899 q 108 914 76 911 q 199 924 151 915 q 302 944 246 933 q 426 962 358 954 q 581 969 494 969 q 626 966 600 969 q 697 950 651 963 q 726 923 708 939 q 763 888 744 907 q 793 850 781 869 q 806 813 806 831 q 791 792 806 801 q 754 774 776 782 q 708 760 732 765 q 664 753 683 754 q 590 749 619 750 q 538 747 561 747 q 492 746 514 746 q 443 744 471 746 q 422 744 432 744 q 403 742 413 744 q 390 717 397 735 q 382 667 382 699 q 386 625 382 647 q 394 607 388 617 q 415 597 400 597 l 621 597 l 660 592 q 678 553 672 576 q 688 511 685 531 q 689 489 689 504 q 685 460 689 474 q 667 444 681 446 q 617 442 649 443 q 544 439 585 440 q 454 437 503 438 q 354 436 406 436 q 346 435 350 436 q 339 425 342 433 q 313 340 328 388 q 297 247 297 292 q 299 226 297 233 q 307 207 300 215 q 329 199 314 199 q 396 213 354 199 q 486 244 438 226 q 586 275 535 261 q 682 289 638 289 q 708 281 694 289 q 733 261 721 274 q 752 234 744 249 q 763 206 760 219 z "},"Ë":{"ha":847,"x_min":42,"x_max":806,"o":"m 763 206 q 764 190 764 200 q 753 164 764 171 q 688 110 728 142 q 596 48 647 78 q 482 -3 544 18 q 351 -25 419 -25 q 244 -3 292 -25 q 163 56 196 19 q 111 140 129 93 q 93 238 93 188 q 106 335 93 282 q 131 444 119 389 q 110 482 122 465 q 97 528 97 499 q 99 549 97 539 q 104 572 101 558 q 137 585 119 579 q 174 594 154 592 l 218 747 q 162 772 193 758 q 104 800 131 785 q 60 835 78 815 q 42 879 42 854 q 59 905 42 899 q 108 914 76 911 q 199 924 151 915 q 302 944 246 933 q 426 962 358 954 q 581 969 494 969 q 626 966 600 969 q 697 950 651 963 q 726 923 708 939 q 763 888 744 907 q 793 850 781 869 q 806 813 806 831 q 791 792 806 801 q 754 774 776 782 q 708 760 732 765 q 664 753 683 754 q 590 749 619 750 q 538 747 561 747 q 492 746 514 746 q 443 744 471 746 q 422 744 432 744 q 403 742 413 744 q 390 717 397 735 q 382 667 382 699 q 386 625 382 647 q 394 607 388 617 q 415 597 400 597 l 621 597 l 660 592 q 678 553 672 576 q 688 511 685 531 q 689 489 689 504 q 685 460 689 474 q 667 444 681 446 q 617 442 649 443 q 544 439 585 440 q 454 437 503 438 q 354 436 406 436 q 346 435 350 436 q 339 425 342 433 q 313 340 328 388 q 297 247 297 292 q 299 226 297 233 q 307 207 300 215 q 329 199 314 199 q 396 213 354 199 q 486 244 438 226 q 586 275 535 261 q 682 289 638 289 q 708 281 694 289 q 733 261 721 274 q 752 234 744 249 q 763 206 760 219 z "},"è":{"ha":847,"x_min":42,"x_max":806,"o":"m 763 206 q 764 190 764 200 q 753 164 764 171 q 688 110 728 142 q 596 48 647 78 q 482 -3 544 18 q 351 -25 419 -25 q 244 -3 292 -25 q 163 56 196 19 q 111 140 129 93 q 93 238 93 188 q 106 335 93 282 q 131 444 119 389 q 110 482 122 465 q 97 528 97 499 q 99 549 97 539 q 104 572 101 558 q 137 585 119 579 q 174 594 154 592 l 218 747 q 162 772 193 758 q 104 800 131 785 q 60 835 78 815 q 42 879 42 854 q 59 905 42 899 q 108 914 76 911 q 199 924 151 915 q 302 944 246 933 q 426 962 358 954 q 581 969 494 969 q 626 966 600 969 q 697 950 651 963 q 726 923 708 939 q 763 888 744 907 q 793 850 781 869 q 806 813 806 831 q 791 792 806 801 q 754 774 776 782 q 708 760 732 765 q 664 753 683 754 q 590 749 619 750 q 538 747 561 747 q 492 746 514 746 q 443 744 471 746 q 422 744 432 744 q 403 742 413 744 q 390 717 397 735 q 382 667 382 699 q 386 625 382 647 q 394 607 388 617 q 415 597 400 597 l 621 597 l 660 592 q 678 553 672 576 q 688 511 685 531 q 689 489 689 504 q 685 460 689 474 q 667 444 681 446 q 617 442 649 443 q 544 439 585 440 q 454 437 503 438 q 354 436 406 436 q 346 435 350 436 q 339 425 342 433 q 313 340 328 388 q 297 247 297 292 q 299 226 297 233 q 307 207 300 215 q 329 199 314 199 q 396 213 354 199 q 486 244 438 226 q 586 275 535 261 q 682 289 638 289 q 708 281 694 289 q 733 261 721 274 q 752 234 744 249 q 763 206 760 219 z "},"é":{"ha":847,"x_min":42,"x_max":806,"o":"m 763 206 q 764 190 764 200 q 753 164 764 171 q 688 110 728 142 q 596 48 647 78 q 482 -3 544 18 q 351 -25 419 -25 q 244 -3 292 -25 q 163 56 196 19 q 111 140 129 93 q 93 238 93 188 q 106 335 93 282 q 131 444 119 389 q 110 482 122 465 q 97 528 97 499 q 99 549 97 539 q 104 572 101 558 q 137 585 119 579 q 174 594 154 592 l 218 747 q 162 772 193 758 q 104 800 131 785 q 60 835 78 815 q 42 879 42 854 q 59 905 42 899 q 108 914 76 911 q 199 924 151 915 q 302 944 246 933 q 426 962 358 954 q 581 969 494 969 q 626 966 600 969 q 697 950 651 963 q 726 923 708 939 q 763 888 744 907 q 793 850 781 869 q 806 813 806 831 q 791 792 806 801 q 754 774 776 782 q 708 760 732 765 q 664 753 683 754 q 590 749 619 750 q 538 747 561 747 q 492 746 514 746 q 443 744 471 746 q 422 744 432 744 q 403 742 413 744 q 390 717 397 735 q 382 667 382 699 q 386 625 382 647 q 394 607 388 617 q 415 597 400 597 l 621 597 l 660 592 q 678 553 672 576 q 688 511 685 531 q 689 489 689 504 q 685 460 689 474 q 667 444 681 446 q 617 442 649 443 q 544 439 585 440 q 454 437 503 438 q 354 436 406 436 q 346 435 350 436 q 339 425 342 433 q 313 340 328 388 q 297 247 297 292 q 299 226 297 233 q 307 207 300 215 q 329 199 314 199 q 396 213 354 199 q 486 244 438 226 q 586 275 535 261 q 682 289 638 289 q 708 281 694 289 q 733 261 721 274 q 752 234 744 249 q 763 206 760 219 z "},"ê":{"ha":847,"x_min":42,"x_max":806,"o":"m 763 206 q 764 190 764 200 q 753 164 764 171 q 688 110 728 142 q 596 48 647 78 q 482 -3 544 18 q 351 -25 419 -25 q 244 -3 292 -25 q 163 56 196 19 q 111 140 129 93 q 93 238 93 188 q 106 335 93 282 q 131 444 119 389 q 110 482 122 465 q 97 528 97 499 q 99 549 97 539 q 104 572 101 558 q 137 585 119 579 q 174 594 154 592 l 218 747 q 162 772 193 758 q 104 800 131 785 q 60 835 78 815 q 42 879 42 854 q 59 905 42 899 q 108 914 76 911 q 199 924 151 915 q 302 944 246 933 q 426 962 358 954 q 581 969 494 969 q 626 966 600 969 q 697 950 651 963 q 726 923 708 939 q 763 888 744 907 q 793 850 781 869 q 806 813 806 831 q 791 792 806 801 q 754 774 776 782 q 708 760 732 765 q 664 753 683 754 q 590 749 619 750 q 538 747 561 747 q 492 746 514 746 q 443 744 471 746 q 422 744 432 744 q 403 742 413 744 q 390 717 397 735 q 382 667 382 699 q 386 625 382 647 q 394 607 388 617 q 415 597 400 597 l 621 597 l 660 592 q 678 553 672 576 q 688 511 685 531 q 689 489 689 504 q 685 460 689 474 q 667 444 681 446 q 617 442 649 443 q 544 439 585 440 q 454 437 503 438 q 354 436 406 436 q 346 435 350 436 q 339 425 342 433 q 313 340 328 388 q 297 247 297 292 q 299 226 297 233 q 307 207 300 215 q 329 199 314 199 q 396 213 354 199 q 486 244 438 226 q 586 275 535 261 q 682 289 638 289 q 708 281 694 289 q 733 261 721 274 q 752 234 744 249 q 763 206 760 219 z "},"ë":{"ha":847,"x_min":42,"x_max":806,"o":"m 763 206 q 764 190 764 200 q 753 164 764 171 q 688 110 728 142 q 596 48 647 78 q 482 -3 544 18 q 351 -25 419 -25 q 244 -3 292 -25 q 163 56 196 19 q 111 140 129 93 q 93 238 93 188 q 106 335 93 282 q 131 444 119 389 q 110 482 122 465 q 97 528 97 499 q 99 549 97 539 q 104 572 101 558 q 137 585 119 579 q 174 594 154 592 l 218 747 q 162 772 193 758 q 104 800 131 785 q 60 835 78 815 q 42 879 42 854 q 59 905 42 899 q 108 914 76 911 q 199 924 151 915 q 302 944 246 933 q 426 962 358 954 q 581 969 494 969 q 626 966 600 969 q 697 950 651 963 q 726 923 708 939 q 763 888 744 907 q 793 850 781 869 q 806 813 806 831 q 791 792 806 801 q 754 774 776 782 q 708 760 732 765 q 664 753 683 754 q 590 749 619 750 q 538 747 561 747 q 492 746 514 746 q 443 744 471 746 q 422 744 432 744 q 403 742 413 744 q 390 717 397 735 q 382 667 382 699 q 386 625 382 647 q 394 607 388 617 q 415 597 400 597 l 621 597 l 660 592 q 678 553 672 576 q 688 511 685 531 q 689 489 689 504 q 685 460 689 474 q 667 444 681 446 q 617 442 649 443 q 544 439 585 440 q 454 437 503 438 q 354 436 406 436 q 346 435 350 436 q 339 425 342 433 q 313 340 328 388 q 297 247 297 292 q 299 226 297 233 q 307 207 300 215 q 329 199 314 199 q 396 213 354 199 q 486 244 438 226 q 586 275 535 261 q 682 289 638 289 q 708 281 694 289 q 733 261 721 274 q 752 234 744 249 q 763 206 760 219 z "},"Ì":{"ha":469,"x_min":117,"x_max":336,"o":"m 175 1000 q 284 955 250 997 q 321 833 318 913 q 326 654 324 749 q 331 463 329 560 q 335 272 333 367 q 336 94 336 178 q 333 60 336 78 q 319 29 329 43 q 293 6 310 15 q 250 -3 276 -3 q 211 2 233 -3 q 172 14 189 7 q 149 38 158 18 q 132 81 139 57 q 122 128 125 106 q 117 161 118 150 q 117 224 117 194 q 119 288 118 254 q 123 363 121 321 q 128 467 125 406 q 129 533 129 488 q 131 649 129 581 q 140 801 133 717 q 158 981 146 885 q 164 996 161 992 q 175 1000 167 1000 z "},"Í":{"ha":469,"x_min":117,"x_max":336,"o":"m 175 1000 q 284 955 250 997 q 321 833 318 913 q 326 654 324 749 q 331 463 329 560 q 335 272 333 367 q 336 94 336 178 q 333 60 336 78 q 319 29 329 43 q 293 6 310 15 q 250 -3 276 -3 q 211 2 233 -3 q 172 14 189 7 q 149 38 158 18 q 132 81 139 57 q 122 128 125 106 q 117 161 118 150 q 117 224 117 194 q 119 288 118 254 q 123 363 121 321 q 128 467 125 406 q 129 533 129 488 q 131 649 129 581 q 140 801 133 717 q 158 981 146 885 q 164 996 161 992 q 175 1000 167 1000 z "},"Î":{"ha":469,"x_min":117,"x_max":336,"o":"m 175 1000 q 284 955 250 997 q 321 833 318 913 q 326 654 324 749 q 331 463 329 560 q 335 272 333 367 q 336 94 336 178 q 333 60 336 78 q 319 29 329 43 q 293 6 310 15 q 250 -3 276 -3 q 211 2 233 -3 q 172 14 189 7 q 149 38 158 18 q 132 81 139 57 q 122 128 125 106 q 117 161 118 150 q 117 224 117 194 q 119 288 118 254 q 123 363 121 321 q 128 467 125 406 q 129 533 129 488 q 131 649 129 581 q 140 801 133 717 q 158 981 146 885 q 164 996 161 992 q 175 1000 167 1000 z "},"Ï":{"ha":469,"x_min":117,"x_max":336,"o":"m 175 1000 q 284 955 250 997 q 321 833 318 913 q 326 654 324 749 q 331 463 329 560 q 335 272 333 367 q 336 94 336 178 q 333 60 336 78 q 319 29 329 43 q 293 6 310 15 q 250 -3 276 -3 q 211 2 233 -3 q 172 14 189 7 q 149 38 158 18 q 132 81 139 57 q 122 128 125 106 q 117 161 118 150 q 117 224 117 194 q 119 288 118 254 q 123 363 121 321 q 128 467 125 406 q 129 533 129 488 q 131 649 129 581 q 140 801 133 717 q 158 981 146 885 q 164 996 161 992 q 175 1000 167 1000 z "},"ì":{"ha":469,"x_min":117,"x_max":336,"o":"m 175 1000 q 284 955 250 997 q 321 833 318 913 q 326 654 324 749 q 331 463 329 560 q 335 272 333 367 q 336 94 336 178 q 333 60 336 78 q 319 29 329 43 q 293 6 310 15 q 250 -3 276 -3 q 211 2 233 -3 q 172 14 189 7 q 149 38 158 18 q 132 81 139 57 q 122 128 125 106 q 117 161 118 150 q 117 224 117 194 q 119 288 118 254 q 123 363 121 321 q 128 467 125 406 q 129 533 129 488 q 131 649 129 581 q 140 801 133 717 q 158 981 146 885 q 164 996 161 992 q 175 1000 167 1000 z "},"í":{"ha":469,"x_min":117,"x_max":336,"o":"m 175 1000 q 284 955 250 997 q 321 833 318 913 q 326 654 324 749 q 331 463 329 560 q 335 272 333 367 q 336 94 336 178 q 333 60 336 78 q 319 29 329 43 q 293 6 310 15 q 250 -3 276 -3 q 211 2 233 -3 q 172 14 189 7 q 149 38 158 18 q 132 81 139 57 q 122 128 125 106 q 117 161 118 150 q 117 224 117 194 q 119 288 118 254 q 123 363 121 321 q 128 467 125 406 q 129 533 129 488 q 131 649 129 581 q 140 801 133 717 q 158 981 146 885 q 164 996 161 992 q 175 1000 167 1000 z "},"î":{"ha":469,"x_min":117,"x_max":336,"o":"m 175 1000 q 284 955 250 997 q 321 833 318 913 q 326 654 324 749 q 331 463 329 560 q 335 272 333 367 q 336 94 336 178 q 333 60 336 78 q 319 29 329 43 q 293 6 310 15 q 250 -3 276 -3 q 211 2 233 -3 q 172 14 189 7 q 149 38 158 18 q 132 81 139 57 q 122 128 125 106 q 117 161 118 150 q 117 224 117 194 q 119 288 118 254 q 123 363 121 321 q 128 467 125 406 q 129 533 129 488 q 131 649 129 581 q 140 801 133 717 q 158 981 146 885 q 164 996 161 992 q 175 1000 167 1000 z "},"ï":{"ha":469,"x_min":117,"x_max":336,"o":"m 175 1000 q 284 955 250 997 q 321 833 318 913 q 326 654 324 749 q 331 463 329 560 q 335 272 333 367 q 336 94 336 178 q 333 60 336 78 q 319 29 329 43 q 293 6 310 15 q 250 -3 276 -3 q 211 2 233 -3 q 172 14 189 7 q 149 38 158 18 q 132 81 139 57 q 122 128 125 106 q 117 161 118 150 q 117 224 117 194 q 119 288 118 254 q 123 363 121 321 q 128 467 125 406 q 129 533 129 488 q 131 649 129 581 q 140 801 133 717 q 158 981 146 885 q 164 996 161 992 q 175 1000 167 1000 z "},"Ò":{"ha":1022,"x_min":28,"x_max":994,"o":"m 133 108 q 52 292 76 203 q 28 464 28 381 q 72 670 28 575 q 190 834 117 765 q 360 942 264 903 q 561 981 457 981 q 708 957 653 981 q 778 903 778 929 q 757 878 778 886 q 717 867 736 869 l 722 867 q 817 855 768 867 q 911 814 867 843 q 944 777 929 803 q 971 719 960 751 q 988 653 982 688 q 994 592 994 619 q 932 358 994 464 q 769 177 869 253 q 544 58 669 101 q 294 8 419 14 q 264 -37 286 -17 q 217 -81 242 -57 q 154 22 175 -26 q 133 103 133 69 l 133 108 m 728 697 q 625 665 672 697 q 536 574 578 633 q 456 431 494 515 q 378 244 417 347 l 414 244 q 496 258 450 244 q 589 295 542 271 q 681 353 636 319 q 761 428 726 388 q 817 514 796 468 q 839 608 839 560 q 808 675 839 653 q 728 697 778 697 m 599 846 q 647 858 624 853 q 697 867 671 864 q 609 851 656 863 q 525 828 563 840 q 374 763 438 807 q 269 660 311 718 q 208 535 228 601 q 189 406 189 469 q 191 364 189 385 q 200 322 193 343 q 288 525 244 436 q 378 678 332 614 q 474 783 424 743 q 583 842 525 824 l 599 846 z "},"Ó":{"ha":1022,"x_min":28,"x_max":994,"o":"m 133 108 q 52 292 76 203 q 28 464 28 381 q 72 670 28 575 q 190 834 117 765 q 360 942 264 903 q 561 981 457 981 q 708 957 653 981 q 778 903 778 929 q 757 878 778 886 q 717 867 736 869 l 722 867 q 817 855 768 867 q 911 814 867 843 q 944 777 929 803 q 971 719 960 751 q 988 653 982 688 q 994 592 994 619 q 932 358 994 464 q 769 177 869 253 q 544 58 669 101 q 294 8 419 14 q 264 -37 286 -17 q 217 -81 242 -57 q 154 22 175 -26 q 133 103 133 69 l 133 108 m 728 697 q 625 665 672 697 q 536 574 578 633 q 456 431 494 515 q 378 244 417 347 l 414 244 q 496 258 450 244 q 589 295 542 271 q 681 353 636 319 q 761 428 726 388 q 817 514 796 468 q 839 608 839 560 q 808 675 839 653 q 728 697 778 697 m 599 846 q 647 858 624 853 q 697 867 671 864 q 609 851 656 863 q 525 828 563 840 q 374 763 438 807 q 269 660 311 718 q 208 535 228 601 q 189 406 189 469 q 191 364 189 385 q 200 322 193 343 q 288 525 244 436 q 378 678 332 614 q 474 783 424 743 q 583 842 525 824 l 599 846 z "},"Ô":{"ha":1022,"x_min":28,"x_max":994,"o":"m 133 108 q 52 292 76 203 q 28 464 28 381 q 72 670 28 575 q 190 834 117 765 q 360 942 264 903 q 561 981 457 981 q 708 957 653 981 q 778 903 778 929 q 757 878 778 886 q 717 867 736 869 l 722 867 q 817 855 768 867 q 911 814 867 843 q 944 777 929 803 q 971 719 960 751 q 988 653 982 688 q 994 592 994 619 q 932 358 994 464 q 769 177 869 253 q 544 58 669 101 q 294 8 419 14 q 264 -37 286 -17 q 217 -81 242 -57 q 154 22 175 -26 q 133 103 133 69 l 133 108 m 728 697 q 625 665 672 697 q 536 574 578 633 q 456 431 494 515 q 378 244 417 347 l 414 244 q 496 258 450 244 q 589 295 542 271 q 681 353 636 319 q 761 428 726 388 q 817 514 796 468 q 839 608 839 560 q 808 675 839 653 q 728 697 778 697 m 599 846 q 647 858 624 853 q 697 867 671 864 q 609 851 656 863 q 525 828 563 840 q 374 763 438 807 q 269 660 311 718 q 208 535 228 601 q 189 406 189 469 q 191 364 189 385 q 200 322 193 343 q 288 525 244 436 q 378 678 332 614 q 474 783 424 743 q 583 842 525 824 l 599 846 z "},"Õ":{"ha":1022,"x_min":28,"x_max":994,"o":"m 133 108 q 52 292 76 203 q 28 464 28 381 q 72 670 28 575 q 190 834 117 765 q 360 942 264 903 q 561 981 457 981 q 708 957 653 981 q 778 903 778 929 q 757 878 778 886 q 717 867 736 869 l 722 867 q 817 855 768 867 q 911 814 867 843 q 944 777 929 803 q 971 719 960 751 q 988 653 982 688 q 994 592 994 619 q 932 358 994 464 q 769 177 869 253 q 544 58 669 101 q 294 8 419 14 q 264 -37 286 -17 q 217 -81 242 -57 q 154 22 175 -26 q 133 103 133 69 l 133 108 m 728 697 q 625 665 672 697 q 536 574 578 633 q 456 431 494 515 q 378 244 417 347 l 414 244 q 496 258 450 244 q 589 295 542 271 q 681 353 636 319 q 761 428 726 388 q 817 514 796 468 q 839 608 839 560 q 808 675 839 653 q 728 697 778 697 m 599 846 q 647 858 624 853 q 697 867 671 864 q 609 851 656 863 q 525 828 563 840 q 374 763 438 807 q 269 660 311 718 q 208 535 228 601 q 189 406 189 469 q 191 364 189 385 q 200 322 193 343 q 288 525 244 436 q 378 678 332 614 q 474 783 424 743 q 583 842 525 824 l 599 846 z "},"Ö":{"ha":1022,"x_min":28,"x_max":994,"o":"m 133 108 q 52 292 76 203 q 28 464 28 381 q 72 670 28 575 q 190 834 117 765 q 360 942 264 903 q 561 981 457 981 q 708 957 653 981 q 778 903 778 929 q 757 878 778 886 q 717 867 736 869 l 722 867 q 817 855 768 867 q 911 814 867 843 q 944 777 929 803 q 971 719 960 751 q 988 653 982 688 q 994 592 994 619 q 932 358 994 464 q 769 177 869 253 q 544 58 669 101 q 294 8 419 14 q 264 -37 286 -17 q 217 -81 242 -57 q 154 22 175 -26 q 133 103 133 69 l 133 108 m 728 697 q 625 665 672 697 q 536 574 578 633 q 456 431 494 515 q 378 244 417 347 l 414 244 q 496 258 450 244 q 589 295 542 271 q 681 353 636 319 q 761 428 726 388 q 817 514 796 468 q 839 608 839 560 q 808 675 839 653 q 728 697 778 697 m 599 846 q 647 858 624 853 q 697 867 671 864 q 609 851 656 863 q 525 828 563 840 q 374 763 438 807 q 269 660 311 718 q 208 535 228 601 q 189 406 189 469 q 191 364 189 385 q 200 322 193 343 q 288 525 244 436 q 378 678 332 614 q 474 783 424 743 q 583 842 525 824 l 599 846 z "},"Ø":{"ha":1022,"x_min":28,"x_max":994,"o":"m 133 108 q 52 292 76 203 q 28 464 28 381 q 72 670 28 575 q 190 834 117 765 q 360 942 264 903 q 561 981 457 981 q 708 957 653 981 q 778 903 778 929 q 757 878 778 886 q 717 867 736 869 l 722 867 q 817 855 768 867 q 911 814 867 843 q 944 777 929 803 q 971 719 960 751 q 988 653 982 688 q 994 592 994 619 q 932 358 994 464 q 769 177 869 253 q 544 58 669 101 q 294 8 419 14 q 264 -37 286 -17 q 217 -81 242 -57 q 154 22 175 -26 q 133 103 133 69 l 133 108 m 728 697 q 625 665 672 697 q 536 574 578 633 q 456 431 494 515 q 378 244 417 347 l 414 244 q 496 258 450 244 q 589 295 542 271 q 681 353 636 319 q 761 428 726 388 q 817 514 796 468 q 839 608 839 560 q 808 675 839 653 q 728 697 778 697 m 599 846 q 647 858 624 853 q 697 867 671 864 q 609 851 656 863 q 525 828 563 840 q 374 763 438 807 q 269 660 311 718 q 208 535 228 601 q 189 406 189 469 q 191 364 189 385 q 200 322 193 343 q 288 525 244 436 q 378 678 332 614 q 474 783 424 743 q 583 842 525 824 l 599 846 z "},"ò":{"ha":1022,"x_min":28,"x_max":994,"o":"m 133 108 q 52 292 76 203 q 28 464 28 381 q 72 670 28 575 q 190 834 117 765 q 360 942 264 903 q 561 981 457 981 q 708 957 653 981 q 778 903 778 929 q 757 878 778 886 q 717 867 736 869 l 722 867 q 817 855 768 867 q 911 814 867 843 q 944 777 929 803 q 971 719 960 751 q 988 653 982 688 q 994 592 994 619 q 932 358 994 464 q 769 177 869 253 q 544 58 669 101 q 294 8 419 14 q 264 -37 286 -17 q 217 -81 242 -57 q 154 22 175 -26 q 133 103 133 69 l 133 108 m 728 697 q 625 665 672 697 q 536 574 578 633 q 456 431 494 515 q 378 244 417 347 l 414 244 q 496 258 450 244 q 589 295 542 271 q 681 353 636 319 q 761 428 726 388 q 817 514 796 468 q 839 608 839 560 q 808 675 839 653 q 728 697 778 697 m 599 846 q 647 858 624 853 q 697 867 671 864 q 609 851 656 863 q 525 828 563 840 q 374 763 438 807 q 269 660 311 718 q 208 535 228 601 q 189 406 189 469 q 191 364 189 385 q 200 322 193 343 q 288 525 244 436 q 378 678 332 614 q 474 783 424 743 q 583 842 525 824 l 599 846 z "},"ó":{"ha":1022,"x_min":28,"x_max":994,"o":"m 133 108 q 52 292 76 203 q 28 464 28 381 q 72 670 28 575 q 190 834 117 765 q 360 942 264 903 q 561 981 457 981 q 708 957 653 981 q 778 903 778 929 q 757 878 778 886 q 717 867 736 869 l 722 867 q 817 855 768 867 q 911 814 867 843 q 944 777 929 803 q 971 719 960 751 q 988 653 982 688 q 994 592 994 619 q 932 358 994 464 q 769 177 869 253 q 544 58 669 101 q 294 8 419 14 q 264 -37 286 -17 q 217 -81 242 -57 q 154 22 175 -26 q 133 103 133 69 l 133 108 m 728 697 q 625 665 672 697 q 536 574 578 633 q 456 431 494 515 q 378 244 417 347 l 414 244 q 496 258 450 244 q 589 295 542 271 q 681 353 636 319 q 761 428 726 388 q 817 514 796 468 q 839 608 839 560 q 808 675 839 653 q 728 697 778 697 m 599 846 q 647 858 624 853 q 697 867 671 864 q 609 851 656 863 q 525 828 563 840 q 374 763 438 807 q 269 660 311 718 q 208 535 228 601 q 189 406 189 469 q 191 364 189 385 q 200 322 193 343 q 288 525 244 436 q 378 678 332 614 q 474 783 424 743 q 583 842 525 824 l 599 846 z "},"ô":{"ha":1022,"x_min":28,"x_max":994,"o":"m 133 108 q 52 292 76 203 q 28 464 28 381 q 72 670 28 575 q 190 834 117 765 q 360 942 264 903 q 561 981 457 981 q 708 957 653 981 q 778 903 778 929 q 757 878 778 886 q 717 867 736 869 l 722 867 q 817 855 768 867 q 911 814 867 843 q 944 777 929 803 q 971 719 960 751 q 988 653 982 688 q 994 592 994 619 q 932 358 994 464 q 769 177 869 253 q 544 58 669 101 q 294 8 419 14 q 264 -37 286 -17 q 217 -81 242 -57 q 154 22 175 -26 q 133 103 133 69 l 133 108 m 728 697 q 625 665 672 697 q 536 574 578 633 q 456 431 494 515 q 378 244 417 347 l 414 244 q 496 258 450 244 q 589 295 542 271 q 681 353 636 319 q 761 428 726 388 q 817 514 796 468 q 839 608 839 560 q 808 675 839 653 q 728 697 778 697 m 599 846 q 647 858 624 853 q 697 867 671 864 q 609 851 656 863 q 525 828 563 840 q 374 763 438 807 q 269 660 311 718 q 208 535 228 601 q 189 406 189 469 q 191 364 189 385 q 200 322 193 343 q 288 525 244 436 q 378 678 332 614 q 474 783 424 743 q 583 842 525 824 l 599 846 z "},"õ":{"ha":1022,"x_min":28,"x_max":994,"o":"m 133 108 q 52 292 76 203 q 28 464 28 381 q 72 670 28 575 q 190 834 117 765 q 360 942 264 903 q 561 981 457 981 q 708 957 653 981 q 778 903 778 929 q 757 878 778 886 q 717 867 736 869 l 722 867 q 817 855 768 867 q 911 814 867 843 q 944 777 929 803 q 971 719 960 751 q 988 653 982 688 q 994 592 994 619 q 932 358 994 464 q 769 177 869 253 q 544 58 669 101 q 294 8 419 14 q 264 -37 286 -17 q 217 -81 242 -57 q 154 22 175 -26 q 133 103 133 69 l 133 108 m 728 697 q 625 665 672 697 q 536 574 578 633 q 456 431 494 515 q 378 244 417 347 l 414 244 q 496 258 450 244 q 589 295 542 271 q 681 353 636 319 q 761 428 726 388 q 817 514 796 468 q 839 608 839 560 q 808 675 839 653 q 728 697 778 697 m 599 846 q 647 858 624 853 q 697 867 671 864 q 609 851 656 863 q 525 828 563 840 q 374 763 438 807 q 269 660 311 718 q 208 535 228 601 q 189 406 189 469 q 191 364 189 385 q 200 322 193 343 q 288 525 244 436 q 378 678 332 614 q 474 783 424 743 q 583 842 525 824 l 599 846 z "},"ö":{"ha":1022,"x_min":28,"x_max":994,"o":"m 133 108 q 52 292 76 203 q 28 464 28 381 q 72 670 28 575 q 190 834 117 765 q 360 942 264 903 q 561 981 457 981 q 708 957 653 981 q 778 903 778 929 q 757 878 778 886 q 717 867 736 869 l 722 867 q 817 855 768 867 q 911 814 867 843 q 944 777 929 803 q 971 719 960 751 q 988 653 982 688 q 994 592 994 619 q 932 358 994 464 q 769 177 869 253 q 544 58 669 101 q 294 8 419 14 q 264 -37 286 -17 q 217 -81 242 -57 q 154 22 175 -26 q 133 103 133 69 l 133 108 m 728 697 q 625 665 672 697 q 536 574 578 633 q 456 431 494 515 q 378 244 417 347 l 414 244 q 496 258 450 244 q 589 295 542 271 q 681 353 636 319 q 761 428 726 388 q 817 514 796 468 q 839 608 839 560 q 808 675 839 653 q 728 697 778 697 m 599 846 q 647 858 624 853 q 697 867 671 864 q 609 851 656 863 q 525 828 563 840 q 374 763 438 807 q 269 660 311 718 q 208 535 228 601 q 189 406 189 469 q 191 364 189 385 q 200 322 193 343 q 288 525 244 436 q 378 678 332 614 q 474 783 424 743 q 583 842 525 824 l 599 846 z "},"ø":{"ha":1022,"x_min":28,"x_max":994,"o":"m 133 108 q 52 292 76 203 q 28 464 28 381 q 72 670 28 575 q 190 834 117 765 q 360 942 264 903 q 561 981 457 981 q 708 957 653 981 q 778 903 778 929 q 757 878 778 886 q 717 867 736 869 l 722 867 q 817 855 768 867 q 911 814 867 843 q 944 777 929 803 q 971 719 960 751 q 988 653 982 688 q 994 592 994 619 q 932 358 994 464 q 769 177 869 253 q 544 58 669 101 q 294 8 419 14 q 264 -37 286 -17 q 217 -81 242 -57 q 154 22 175 -26 q 133 103 133 69 l 133 108 m 728 697 q 625 665 672 697 q 536 574 578 633 q 456 431 494 515 q 378 244 417 347 l 414 244 q 496 258 450 244 q 589 295 542 271 q 681 353 636 319 q 761 428 726 388 q 817 514 796 468 q 839 608 839 560 q 808 675 839 653 q 728 697 778 697 m 599 846 q 647 858 624 853 q 697 867 671 864 q 609 851 656 863 q 525 828 563 840 q 374 763 438 807 q 269 660 311 718 q 208 535 228 601 q 189 406 189 469 q 191 364 189 385 q 200 322 193 343 q 288 525 244 436 q 378 678 332 614 q 474 783 424 743 q 583 842 525 824 l 599 846 z "},"Ù":{"ha":972,"x_min":69,"x_max":917,"o":"m 106 125 q 78 249 86 188 q 69 369 69 311 q 137 704 69 539 q 336 1031 204 869 q 356 1041 344 1038 q 375 1044 368 1044 q 414 989 406 1044 q 339 727 374 857 q 282 461 304 597 q 273 396 276 428 q 269 336 269 364 q 287 231 269 269 q 358 192 304 192 q 442 238 406 192 q 509 360 478 283 q 570 536 540 438 q 636 742 600 635 q 722 864 686 864 q 745 849 733 864 q 769 797 757 833 q 827 628 804 704 q 865 490 850 553 q 889 372 881 426 q 903 269 897 318 l 917 133 l 917 106 q 896 19 917 49 q 831 -11 875 -11 q 796 -8 811 -11 q 761 0 781 -4 q 736 49 744 24 q 728 100 728 75 q 724 177 728 136 q 714 258 721 218 l 703 369 q 636 203 675 272 q 549 88 597 133 q 444 22 501 43 q 325 0 388 0 l 322 0 q 190 35 243 3 q 106 125 138 67 z "},"Ú":{"ha":972,"x_min":69,"x_max":917,"o":"m 106 125 q 78 249 86 188 q 69 369 69 311 q 137 704 69 539 q 336 1031 204 869 q 356 1041 344 1038 q 375 1044 368 1044 q 414 989 406 1044 q 339 727 374 857 q 282 461 304 597 q 273 396 276 428 q 269 336 269 364 q 287 231 269 269 q 358 192 304 192 q 442 238 406 192 q 509 360 478 283 q 570 536 540 438 q 636 742 600 635 q 722 864 686 864 q 745 849 733 864 q 769 797 757 833 q 827 628 804 704 q 865 490 850 553 q 889 372 881 426 q 903 269 897 318 l 917 133 l 917 106 q 896 19 917 49 q 831 -11 875 -11 q 796 -8 811 -11 q 761 0 781 -4 q 736 49 744 24 q 728 100 728 75 q 724 177 728 136 q 714 258 721 218 l 703 369 q 636 203 675 272 q 549 88 597 133 q 444 22 501 43 q 325 0 388 0 l 322 0 q 190 35 243 3 q 106 125 138 67 z "},"Û":{"ha":972,"x_min":69,"x_max":917,"o":"m 106 125 q 78 249 86 188 q 69 369 69 311 q 137 704 69 539 q 336 1031 204 869 q 356 1041 344 1038 q 375 1044 368 1044 q 414 989 406 1044 q 339 727 374 857 q 282 461 304 597 q 273 396 276 428 q 269 336 269 364 q 287 231 269 269 q 358 192 304 192 q 442 238 406 192 q 509 360 478 283 q 570 536 540 438 q 636 742 600 635 q 722 864 686 864 q 745 849 733 864 q 769 797 757 833 q 827 628 804 704 q 865 490 850 553 q 889 372 881 426 q 903 269 897 318 l 917 133 l 917 106 q 896 19 917 49 q 831 -11 875 -11 q 796 -8 811 -11 q 761 0 781 -4 q 736 49 744 24 q 728 100 728 75 q 724 177 728 136 q 714 258 721 218 l 703 369 q 636 203 675 272 q 549 88 597 133 q 444 22 501 43 q 325 0 388 0 l 322 0 q 190 35 243 3 q 106 125 138 67 z "},"Ü":{"ha":972,"x_min":69,"x_max":917,"o":"m 106 125 q 78 249 86 188 q 69 369 69 311 q 137 704 69 539 q 336 1031 204 869 q 356 1041 344 1038 q 375 1044 368 1044 q 414 989 406 1044 q 339 727 374 857 q 282 461 304 597 q 273 396 276 428 q 269 336 269 364 q 287 231 269 269 q 358 192 304 192 q 442 238 406 192 q 509 360 478 283 q 570 536 540 438 q 636 742 600 635 q 722 864 686 864 q 745 849 733 864 q 769 797 757 833 q 827 628 804 704 q 865 490 850 553 q 889 372 881 426 q 903 269 897 318 l 917 133 l 917 106 q 896 19 917 49 q 831 -11 875 -11 q 796 -8 811 -11 q 761 0 781 -4 q 736 49 744 24 q 728 100 728 75 q 724 177 728 136 q 714 258 721 218 l 703 369 q 636 203 675 272 q 549 88 597 133 q 444 22 501 43 q 325 0 388 0 l 322 0 q 190 35 243 3 q 106 125 138 67 z "},"ù":{"ha":972,"x_min":69,"x_max":917,"o":"m 106 125 q 78 249 86 188 q 69 369 69 311 q 137 704 69 539 q 336 1031 204 869 q 356 1041 344 1038 q 375 1044 368 1044 q 414 989 406 1044 q 339 727 374 857 q 282 461 304 597 q 273 396 276 428 q 269 336 269 364 q 287 231 269 269 q 358 192 304 192 q 442 238 406 192 q 509 360 478 283 q 570 536 540 438 q 636 742 600 635 q 722 864 686 864 q 745 849 733 864 q 769 797 757 833 q 827 628 804 704 q 865 490 850 553 q 889 372 881 426 q 903 269 897 318 l 917 133 l 917 106 q 896 19 917 49 q 831 -11 875 -11 q 796 -8 811 -11 q 761 0 781 -4 q 736 49 744 24 q 728 100 728 75 q 724 177 728 136 q 714 258 721 218 l 703 369 q 636 203 675 272 q 549 88 597 133 q 444 22 501 43 q 325 0 388 0 l 322 0 q 190 35 243 3 q 106 125 138 67 z "},"ú":{"ha":972,"x_min":69,"x_max":917,"o":"m 106 125 q 78 249 86 188 q 69 369 69 311 q 137 704 69 539 q 336 1031 204 869 q 356 1041 344 1038 q 375 1044 368 1044 q 414 989 406 1044 q 339 727 374 857 q 282 461 304 597 q 273 396 276 428 q 269 336 269 364 q 287 231 269 269 q 358 192 304 192 q 442 238 406 192 q 509 360 478 283 q 570 536 540 438 q 636 742 600 635 q 722 864 686 864 q 745 849 733 864 q 769 797 757 833 q 827 628 804 704 q 865 490 850 553 q 889 372 881 426 q 903 269 897 318 l 917 133 l 917 106 q 896 19 917 49 q 831 -11 875 -11 q 796 -8 811 -11 q 761 0 781 -4 q 736 49 744 24 q 728 100 728 75 q 724 177 728 136 q 714 258 721 218 l 703 369 q 636 203 675 272 q 549 88 597 133 q 444 22 501 43 q 325 0 388 0 l 322 0 q 190 35 243 3 q 106 125 138 67 z "},"û":{"ha":972,"x_min":69,"x_max":917,"o":"m 106 125 q 78 249 86 188 q 69 369 69 311 q 137 704 69 539 q 336 1031 204 869 q 356 1041 344 1038 q 375 1044 368 1044 q 414 989 406 1044 q 339 727 374 857 q 282 461 304 597 q 273 396 276 428 q 269 336 269 364 q 287 231 269 269 q 358 192 304 192 q 442 238 406 192 q 509 360 478 283 q 570 536 540 438 q 636 742 600 635 q 722 864 686 864 q 745 849 733 864 q 769 797 757 833 q 827 628 804 704 q 865 490 850 553 q 889 372 881 426 q 903 269 897 318 l 917 133 l 917 106 q 896 19 917 49 q 831 -11 875 -11 q 796 -8 811 -11 q 761 0 781 -4 q 736 49 744 24 q 728 100 728 75 q 724 177 728 136 q 714 258 721 218 l 703 369 q 636 203 675 272 q 549 88 597 133 q 444 22 501 43 q 325 0 388 0 l 322 0 q 190 35 243 3 q 106 125 138 67 z "},"ü":{"ha":972,"x_min":69,"x_max":917,"o":"m 106 125 q 78 249 86 188 q 69 369 69 311 q 137 704 69 539 q 336 1031 204 869 q 356 1041 344 1038 q 375 1044 368 1044 q 414 989 406 1044 q 339 727 374 857 q 282 461 304 597 q 273 396 276 428 q 269 336 269 364 q 287 231 269 269 q 358 192 304 192 q 442 238 406 192 q 509 360 478 283 q 570 536 540 438 q 636 742 600 635 q 722 864 686 864 q 745 849 733 864 q 769 797 757 833 q 827 628 804 704 q 865 490 850 553 q 889 372 881 426 q 903 269 897 318 l 917 133 l 917 106 q 896 19 917 49 q 831 -11 875 -11 q 796 -8 811 -11 q 761 0 781 -4 q 736 49 744 24 q 728 100 728 75 q 724 177 728 136 q 714 258 721 218 l 703 369 q 636 203 675 272 q 549 88 597 133 q 444 22 501 43 q 325 0 388 0 l 322 0 q 190 35 243 3 q 106 125 138 67 z "},"ÿ":{"ha":936,"x_min":26,"x_max":919,"o":"m 388 -347 q 361 -353 375 -350 q 324 -357 347 -357 q 238 -332 271 -357 q 185 -267 204 -307 q 159 -177 167 -228 q 151 -76 151 -126 q 154 2 151 -36 q 163 82 157 40 q 179 172 169 124 q 204 281 189 221 q 142 319 174 293 q 84 381 110 346 q 42 453 58 415 q 26 526 26 492 q 52 686 26 604 q 114 836 78 768 q 188 947 150 904 q 250 990 225 990 q 290 971 271 990 q 310 921 310 951 q 295 851 310 890 q 263 766 281 811 q 231 672 246 721 q 217 574 217 622 q 268 468 217 513 q 306 581 283 518 q 358 710 329 644 q 424 837 388 775 q 501 947 460 899 q 589 1025 543 996 q 685 1054 635 1054 q 794 1027 750 1054 q 867 960 839 1000 q 907 872 894 919 q 919 783 919 825 q 882 601 919 692 q 779 437 844 511 q 626 310 714 363 q 439 239 539 257 q 419 113 428 172 q 403 -8 410 53 q 394 -137 397 -69 q 390 -286 390 -204 l 390 -329 l 388 -347 m 472 453 q 592 528 538 482 q 694 638 646 575 q 754 799 754 714 q 752 828 754 813 q 744 858 750 844 q 726 882 738 872 q 697 892 715 892 q 660 863 682 892 q 613 790 638 835 q 565 693 589 746 q 522 592 542 640 q 488 505 501 543 q 472 453 475 467 z "},"Ñ":{"ha":922,"x_min":47,"x_max":869,"o":"m 542 1036 q 546 1074 542 1053 q 569 1094 550 1094 q 619 1072 589 1094 q 682 1009 649 1050 q 749 909 715 968 q 809 776 782 850 q 853 616 836 703 q 869 433 869 529 q 855 303 869 369 q 813 183 840 238 q 747 95 786 129 q 656 61 707 61 q 575 99 615 61 q 497 195 535 138 q 425 319 458 253 q 364 444 392 386 q 316 540 336 501 q 286 578 296 578 q 276 571 282 578 q 267 547 271 564 q 263 511 264 539 q 259 445 261 483 q 255 362 257 407 q 251 274 253 317 q 245 194 249 231 q 239 136 242 157 l 238 126 q 229 89 235 110 q 215 49 224 68 q 191 18 206 31 q 156 6 176 6 q 101 31 122 6 q 68 90 81 56 q 51 163 56 125 q 47 225 47 200 q 53 324 47 261 q 70 459 58 386 q 99 607 82 532 q 136 743 115 682 q 183 842 157 804 q 239 881 208 881 q 287 854 260 881 q 346 784 314 828 q 413 684 378 740 q 486 569 449 628 q 561 453 524 510 q 636 350 599 396 q 649 335 644 342 q 656 328 653 328 q 670 346 668 328 q 672 400 672 364 q 668 515 672 464 q 656 609 664 565 q 638 694 649 653 q 613 779 626 735 q 583 875 599 824 q 550 992 567 926 l 542 1025 l 542 1036 z "},"ñ":{"ha":922,"x_min":47,"x_max":869,"o":"m 542 1036 q 546 1074 542 1053 q 569 1094 550 1094 q 619 1072 589 1094 q 682 1009 649 1050 q 749 909 715 968 q 809 776 782 850 q 853 616 836 703 q 869 433 869 529 q 855 303 869 369 q 813 183 840 238 q 747 95 786 129 q 656 61 707 61 q 575 99 615 61 q 497 195 535 138 q 425 319 458 253 q 364 444 392 386 q 316 540 336 501 q 286 578 296 578 q 276 571 282 578 q 267 547 271 564 q 263 511 264 539 q 259 445 261 483 q 255 362 257 407 q 251 274 253 317 q 245 194 249 231 q 239 136 242 157 l 238 126 q 229 89 235 110 q 215 49 224 68 q 191 18 206 31 q 156 6 176 6 q 101 31 122 6 q 68 90 81 56 q 51 163 56 125 q 47 225 47 200 q 53 324 47 261 q 70 459 58 386 q 99 607 82 532 q 136 743 115 682 q 183 842 157 804 q 239 881 208 881 q 287 854 260 881 q 346 784 314 828 q 413 684 378 740 q 486 569 449 628 q 561 453 524 510 q 636 350 599 396 q 649 335 644 342 q 656 328 653 328 q 670 346 668 328 q 672 400 672 364 q 668 515 672 464 q 656 609 664 565 q 638 694 649 653 q 613 779 626 735 q 583 875 599 824 q 550 992 567 926 l 542 1025 l 542 1036 z "}}}
